<svg width="950" height="496" viewBox="0 0 950 496" fill="none" xmlns="http://www.w3.org/2000/svg">
<path d="M136.8 242.901L142.6 205.801C142.774 204.511 143.425 203.333 144.424 202.5C145.424 201.667 146.7 201.239 148 201.301C148.752 201.32 149.491 201.5 150.168 201.827C150.845 202.155 151.445 202.622 151.927 203.199C152.409 203.776 152.763 204.449 152.966 205.174C153.168 205.898 153.214 206.657 153.1 207.401L147.4 245.801L136.8 242.901Z" fill="#E66CA5"/>
<path d="M143 236.101L148 212.801C148.048 212.606 148.167 212.437 148.333 212.326C148.5 212.215 148.702 212.17 148.9 212.201C149.3 212.301 149.6 212.601 149.5 213.001L146.3 235.801L143 236.101Z" fill="#F085B7"/>
<path d="M142.6 205.8C142.778 204.467 143.458 203.252 144.5 202.4C143.6 208.5 141.9 219.3 139.5 237.3L137.6 237.6L142.6 205.8Z" fill="#FFABBB"/>
<path d="M601.5 33.9004H256.9V424.3H601.5V33.9004Z" fill="#FEC9AA"/>
<path d="M215.9 167.699L205.1 162.199L197.7 171.899L208.9 178.899L215.9 167.699Z" fill="#133DBD"/>
<path d="M217.9 190.299L239.5 230.799C240.001 231.708 240.194 232.755 240.05 233.783C239.905 234.81 239.432 235.763 238.7 236.499L238.4 236.799C234.832 240.531 230.364 243.282 225.425 244.788C220.487 246.294 215.244 246.505 210.2 245.399C209.468 245.24 208.812 244.837 208.339 244.255C207.867 243.674 207.606 242.949 207.6 242.199L206.6 193.299C206.5 174.799 207.4 170.699 217.9 190.299Z" fill="#33BEB5"/>
<path d="M238.4 236.8C239.185 235.972 239.693 234.922 239.854 233.793C240.015 232.664 239.822 231.514 239.3 230.5L217.9 190.3C212.8 180.8 210 176.8 208.4 177.5C212.5 205.9 220.9 242.9 220.9 242.9L226.7 244.3C231.137 242.757 235.146 240.187 238.4 236.8Z" fill="#33A2BE"/>
<path d="M233.2 218.999C231.9 216.599 231.3 215.799 230.7 216.999C221.8 202.799 217.5 205.599 217.5 219.399C217.5 219.399 211.3 216.099 212 228.299C211.116 228.061 210.179 228.117 209.331 228.46C208.482 228.803 207.769 229.414 207.3 230.199L207.6 242.199C207.606 242.839 207.799 243.464 208.154 243.997C208.509 244.529 209.011 244.947 209.6 245.199C214.893 246.041 220.31 245.649 225.427 244.053C230.544 242.457 235.223 239.701 239.1 235.999C239.649 235.258 239.978 234.377 240.049 233.457C240.12 232.537 239.929 231.616 239.5 230.799L233.2 218.999Z" fill="#F7E5BC"/>
<path d="M239.5 230.799L233.2 218.999C231.9 216.599 231.3 215.799 230.7 216.999C221.8 202.799 217.5 205.599 217.5 219.399C216.973 219.132 216.39 218.995 215.8 218.999C217.5 219.399 217.6 221.099 218.6 224.799C219.6 228.499 220.3 231.799 220.3 231.799L236.1 238.499C237.168 237.751 238.171 236.915 239.1 235.999C239.649 235.258 239.978 234.377 240.049 233.457C240.12 232.537 239.929 231.616 239.5 230.799Z" fill="#F7D197"/>
<path d="M238.8 231.3C231.2 223.1 224.4 220.2 209 242.7C208.849 242.942 208.758 243.215 208.734 243.499C208.71 243.782 208.753 244.067 208.861 244.331C208.968 244.594 209.136 244.829 209.352 245.014C209.567 245.2 209.823 245.332 210.1 245.4C215.159 246.494 220.414 246.279 225.366 244.774C230.319 243.269 234.805 240.524 238.4 236.8L238.7 236.5L239.4 235.6C239.781 234.916 239.929 234.125 239.821 233.349C239.713 232.573 239.354 231.854 238.8 231.3Z" fill="#242236"/>
<path d="M237.5 238.3L235.5 228.1C229.9 223.5 224 223.4 214.1 235.8L218.2 245.5C225.157 244.849 231.816 242.365 237.5 238.3Z" fill="#9E4B34"/>
<path d="M238 237.9L230.7 237.3L229.7 240.1L227.9 236.2C226.2 232.2 226.1 232.3 224.6 235.7C223.1 239.1 216.4 237.9 216.4 237.9L215 234.8C223.7 224.3 229.2 223.7 234.3 227.2L238 237.9Z" fill="#7A2F28"/>
<path d="M193.1 258.9C188.6 262.3 187.7 261.9 188.8 268.2C189.9 274.5 193.1 258.9 193.1 258.9Z" fill="#3EE8DD"/>
<path d="M271.5 291.899C272.8 304.499 269.1 304.499 263.4 307.399H180C178.845 304.852 178.038 302.161 177.6 299.399C176.8 293.399 176.1 292.399 180.4 284.699C180.7 278.799 182.7 275.199 187.2 269.399C189.732 265.447 192.575 261.702 195.7 258.199L251.4 260.199C253.709 261.747 255.883 263.486 257.9 265.399C261 268.299 262.8 270.899 263.1 272.899C263.21 273.729 263.276 274.563 263.3 275.399C270.8 278.599 270.8 285.699 271.5 291.899Z" fill="#274BA3"/>
<path d="M251.7 279.599C257.6 273.399 258.6 271.699 259.2 270.899C259.8 270.099 258.8 269.399 257.9 268.699C257 267.999 257.1 267.599 255 271.199C252.9 274.799 248.2 283.199 251.7 279.599Z" fill="#1E397D"/>
<path d="M253.9 277.1C263.4 277.7 265.4 277.9 266.9 279.6C268.4 281.3 268.6 282.7 269 284.2C269.4 285.7 268.7 285.7 263.6 283.2C258.5 280.7 252.6 278.5 252.6 278.5L253.9 277.1Z" fill="#1E397D"/>
<path d="M202.6 279.7L201.2 285.9L184.8 287.5C184.305 287.549 183.846 287.782 183.514 288.152C183.181 288.521 182.998 289.002 183 289.5V291.1C182.991 291.323 183.035 291.544 183.129 291.747C183.223 291.949 183.363 292.126 183.54 292.263C183.716 292.4 183.922 292.493 184.141 292.534C184.361 292.575 184.586 292.564 184.8 292.5L201.2 287.2L215.9 289.5C216.059 289.524 216.211 289.579 216.348 289.663C216.484 289.747 216.603 289.858 216.696 289.988C216.789 290.119 216.855 290.267 216.89 290.423C216.925 290.58 216.929 290.742 216.9 290.9L214.7 307.4H254.7C262.3 298.8 254.6 281.9 251.3 275.4L217.3 270.8L201.2 261.1L202.9 271C203.403 273.889 203.301 276.852 202.6 279.7Z" fill="#1A3578"/>
<path d="M216.3 295.5C220.4 297.9 223.5 299.7 225.6 300.7C227.7 301.7 233.6 303.5 235.4 304.1C237.2 304.7 238.6 305.6 237.5 307.4H214.9L216.3 295.5Z" fill="#7A2F28"/>
<path d="M219.2 297.2L216.3 295.5L214.9 307.4H216.9L219.2 297.2Z" fill="#5E221D"/>
<path d="M209.4 245.699C206 246.699 205.7 245.699 203.4 252.199L208.2 252.499L209.4 245.699Z" fill="#3EE8DD"/>
<path d="M204.9 251.801L206.2 248.401C206.482 247.73 206.919 247.135 207.475 246.666C208.031 246.196 208.691 245.866 209.4 245.701L214.5 244.701L234.7 244.301L245.7 249.901C246.147 250.119 246.535 250.443 246.831 250.843C247.127 251.243 247.322 251.709 247.4 252.201L247.8 254.801L253.1 258.301C253.394 258.491 253.626 258.762 253.768 259.082C253.91 259.401 253.956 259.755 253.9 260.101C252.5 272.301 240 290.901 222.6 282.601C209.6 276.401 197.6 267.401 191.8 262.801L189.6 265.801C189 262.901 189.5 261.801 191.4 260.301C192.009 259.888 192.578 259.419 193.1 258.901C193.275 258.419 193.376 257.913 193.4 257.401C193.9 255.101 193.4 254.501 196.1 253.901L204.9 251.801Z" fill="#33BEB5"/>
<path d="M208.9 249.001C211.8 250.901 213.1 251.901 215.3 253.201C217.5 254.501 218.6 257.201 215.5 256.001C212.986 255.01 210.546 253.841 208.2 252.501C206.4 251.401 207.1 251.001 207.3 249.901C207.5 248.801 207.8 248.301 208.9 249.001Z" fill="#37CFC5"/>
<path d="M253.1 258.301L247.8 254.801L247.4 252.201C247.323 251.709 247.127 251.243 246.831 250.843C246.536 250.443 246.148 250.119 245.7 249.901L234.7 244.301H231.6L218.9 271.701C220 277.701 221.8 278.501 223.3 279.901C224.8 281.301 224.8 281.401 224.3 283.201C240.8 289.601 252.6 271.801 253.9 260.001C253.937 259.671 253.881 259.338 253.74 259.038C253.599 258.738 253.377 258.483 253.1 258.301Z" fill="#33A2BE"/>
<path d="M246.1 252.9C246.7 254.4 247.1 254.5 246.1 257.2C244.507 260.771 242.529 264.158 240.2 267.3C238.8 269.1 238.1 269.1 240.2 263.6C242.3 258.1 242.9 256.9 243.5 254.4C244.1 251.9 245.1 250.1 246.1 252.9Z" fill="#2B98B3"/>
<path d="M207 255.201C210.347 259.9 214.473 263.992 219.2 267.301C222.9 269.901 221.7 268.501 220 265.501C218.3 262.501 215.2 261.101 211.8 257.801C208.4 254.501 204.1 251.201 207 255.201Z" fill="#319BB5"/>
<path d="M194.1 258.7C194.05 258.798 194.021 258.905 194.014 259.014C194.007 259.124 194.023 259.234 194.061 259.337C194.098 259.44 194.157 259.534 194.232 259.614C194.308 259.694 194.399 259.757 194.5 259.8C203.183 264.632 212.13 268.972 221.3 272.8C226.1 274.5 223.2 272.7 217.3 268.9C211.4 265.1 201.5 258.8 198.3 256.9C195.1 255 195.1 254.7 194.1 258.7Z" fill="#33A2BE"/>
<path d="M214.6 245.9C209.9 246.7 207.3 246.6 214.6 250.9C221.9 255.2 214.6 245.9 214.6 245.9Z" fill="#1E6470"/>
<path d="M227.5 231.399L228.3 234.999C228.4 235.099 228.5 235.299 228.7 235.299L230.2 235.499L228.9 232.499V232.299L229.2 230.199L227.8 230.999L227.5 231.399Z" fill="#66251F"/>
<path d="M220.3 235L223 235.4C222 236.9 220.8 236.7 220.3 235Z" fill="#5E221D"/>
<path d="M230.2 233.999L232.9 233.199C232.6 234.999 231.4 235.299 230.2 233.999Z" fill="#5E221D"/>
<path d="M222.1 235.499C222.542 235.499 222.9 234.872 222.9 234.099C222.9 233.326 222.542 232.699 222.1 232.699C221.658 232.699 221.3 233.326 221.3 234.099C221.3 234.872 221.658 235.499 222.1 235.499Z" fill="black"/>
<path d="M231.7 233.7C232.142 233.7 232.5 233.074 232.5 232.3C232.5 231.527 232.142 230.9 231.7 230.9C231.259 230.9 230.9 231.527 230.9 232.3C230.9 233.074 231.259 233.7 231.7 233.7Z" fill="black"/>
<path d="M234.3 227.199L236.5 228.899C237.3 231.099 237.6 234.199 238.4 236.799C239.2 239.399 240.3 243.299 239.8 245.499C239.3 247.699 239.7 247.899 241.1 250.699C242.5 253.499 245.1 256.499 244.2 259.899C245.7 262.199 245.2 263.599 244.8 265.699C244.4 267.799 242.7 273.399 238.9 273.299C237.617 275.089 235.822 276.449 233.751 277.198C231.681 277.948 229.431 278.053 227.3 277.499C221.2 275.999 215.1 271.799 215.8 266.299C213.8 264.699 214.2 260.499 214.5 258.199C214.714 256.155 214.405 254.09 213.6 252.199C212.9 250.199 212.9 248.199 213.5 243.999C212.799 242.261 212.296 240.45 212 238.599L215 234.699L216.4 237.899C217.071 239.234 217.672 240.602 218.2 241.999C218.703 241.778 219.251 241.676 219.8 241.699C220.172 240.93 220.735 240.268 221.435 239.778C222.135 239.288 222.95 238.985 223.8 238.899L229.7 240.099L230.7 237.299C233.5 236.899 234.9 236.899 235.9 237.599C236.43 236.018 236.499 234.319 236.1 232.699C235.6 230.799 234.3 227.199 234.3 227.199Z" fill="white"/>
<path d="M230.2 242.399L227.9 241.899C226.8 241.599 226.9 241.499 223.8 238.899L229.7 240.099L230.7 237.299C233.5 236.899 234.9 236.899 235.9 237.599C236.43 236.018 236.499 234.319 236.1 232.699C235.6 230.799 234.3 227.199 234.3 227.199L236.4 228.899C237.3 231.099 237.6 234.199 238.4 236.799C239.2 239.399 240.3 243.299 239.8 245.499C239.3 247.699 239.7 247.899 241.1 250.699C242.5 253.499 245.1 256.499 244.2 259.899C245.7 262.199 245.2 263.599 244.8 265.699C244.4 267.799 242.7 273.399 238.9 273.299C237.617 275.089 235.822 276.449 233.751 277.198C231.681 277.948 229.432 278.053 227.3 277.499C221.2 275.999 215.1 271.799 215.8 266.299C217.7 271.499 221.7 270.499 221.7 270.499C224.13 269.974 226.614 269.739 229.1 269.799C230.5 267.299 232.2 264.899 233.6 263.899C236.6 258.199 234.3 252.099 232.9 248.699L230.2 242.399Z" fill="#D6DFFF"/>
<path d="M230.2 242.401C231.7 242.701 231.6 241.401 231.5 240.101C231.445 239.12 231.172 238.163 230.7 237.301L229.7 240.101L223.8 238.901C226.9 241.501 226.8 241.601 227.9 241.901L230.2 242.401Z" fill="#CAD5FC"/>
<path d="M218.9 233.3L224.4 231.7C223.936 231.437 223.423 231.27 222.893 231.208C222.363 231.147 221.826 231.192 221.313 231.341C220.801 231.49 220.323 231.74 219.909 232.077C219.494 232.413 219.151 232.829 218.9 233.3Z" fill="#CFDEFF"/>
<path d="M228.4 231.099L234.1 229.999C233.191 229.414 232.092 229.201 231.03 229.406C229.968 229.611 229.026 230.218 228.4 231.099Z" fill="#CFDEFF"/>
<path d="M225.6 237.2L227.6 238.3L225.1 237.9C224.8 237.8 224.7 237.8 224.9 237.4C225.1 237 225.2 237 225.6 237.2Z" fill="#7A2F28"/>
<path d="M232.6 244.5C232.579 244.875 232.428 245.23 232.172 245.504C231.916 245.779 231.572 245.954 231.2 246C225.2 246.8 222.6 245.4 221.6 244.6C221.479 244.487 221.389 244.345 221.336 244.188C221.284 244.031 221.272 243.864 221.3 243.7V243.5C224.5 244.6 229.3 244.1 230.4 243.9C231.5 243.7 231.1 243.4 231 242.9C231.21 242.9 231.418 242.942 231.612 243.022C231.806 243.103 231.983 243.22 232.131 243.369C232.28 243.518 232.398 243.694 232.478 243.888C232.559 244.082 232.6 244.29 232.6 244.5Z" fill="#DE5D70"/>
<path d="M230.2 246.1C229.574 245.352 228.831 244.71 228 244.2C225.743 244.355 223.476 244.118 221.3 243.5V243.7C221.272 243.863 221.284 244.031 221.336 244.188C221.389 244.345 221.479 244.487 221.6 244.6H221.7C222.6 245.3 225 246.7 230.2 246.1Z" fill="#B83D50"/>
<path d="M254.7 307.401H250.2C242.9 298.301 246.7 281.501 249.9 274.801L253.9 277.101C253.9 277.101 265.2 299.601 254.7 307.401Z" fill="#1C1B29"/>
<path d="M246.5 276.901C249.151 276.901 251.3 274.752 251.3 272.101C251.3 269.45 249.151 267.301 246.5 267.301C243.849 267.301 241.7 269.45 241.7 272.101C241.7 274.752 243.849 276.901 246.5 276.901Z" fill="#F7E9CB"/>
<path d="M251.3 273.8C252.626 273.8 253.7 272.725 253.7 271.4C253.7 270.075 252.626 269 251.3 269C249.975 269 248.9 270.075 248.9 271.4C248.9 272.725 249.975 273.8 251.3 273.8Z" fill="#F7E9CB"/>
<path d="M252.2 270.9H238C235.102 278.12 235.102 286.18 238 293.4H252.2C254.998 286.161 254.998 278.139 252.2 270.9Z" fill="#DB7B47"/>
<path d="M242 270.9C240.531 278.313 240.328 285.92 241.4 293.4H242.1L242.8 270.9H242Z" fill="#C2612C"/>
<path d="M248.3 270.9C250.6 279.5 249.3 293.4 249.3 293.4H248.3L247.4 270.9H248.3Z" fill="#C2612C"/>
<path d="M225.251 218.193C226.247 217.716 226.358 215.876 225.499 214.083C224.64 212.29 223.136 211.223 222.14 211.7C221.143 212.178 221.032 214.018 221.891 215.811C222.751 217.604 224.254 218.671 225.251 218.193Z" fill="#FF9CCD"/>
<path d="M225.5 213.999C224.7 212.199 223.1 211.099 222.1 211.599C221.98 211.661 221.875 211.745 221.789 211.849C221.703 211.952 221.638 212.071 221.6 212.199C223.3 212.099 222.4 214.099 225.5 213.999Z" fill="#FFEBF5"/>
<path d="M221.3 213.4C221.322 214.224 221.491 215.037 221.8 215.8L222.2 216.4C222.5 216.3 223.2 216.1 223.5 216.6C223.8 217.1 224.2 218 225.3 218.2C225.57 217.989 225.784 217.714 225.924 217.4C226.063 217.086 226.124 216.743 226.1 216.4H225.8C223.7 216.4 222.5 214.2 221.3 213.4Z" fill="#FF70B7"/>
<path d="M215 224.7C215.552 224.7 216 224.118 216 223.4C216 222.682 215.552 222.1 215 222.1C214.448 222.1 214 222.682 214 223.4C214 224.118 214.448 224.7 215 224.7Z" fill="#F7D197"/>
<path d="M209.7 233.299C210.252 233.299 210.7 232.717 210.7 231.999C210.7 231.281 210.252 230.699 209.7 230.699C209.148 230.699 208.7 231.281 208.7 231.999C208.7 232.717 209.148 233.299 209.7 233.299Z" fill="#F7D197"/>
<path d="M205.1 162.199L203 168.999L197.7 171.899L205.1 162.199Z" fill="#179DE0"/>
<path d="M212 238.599C212.296 240.158 212.697 241.695 213.2 243.199C213.2 241.999 213.7 240.599 214.5 240.299C215.3 239.999 215.4 237.999 216.4 237.899L215 234.699L212 238.599Z" fill="#A8C3FF"/>
<path d="M215.3 265.699L215.8 266.299L215.3 265.699Z" fill="#D6DFFF"/>
<path d="M222.2 249.301C224.6 250.801 225.8 251.701 225.8 254.001C224.233 252.753 222.996 251.139 222.2 249.301Z" fill="#D6DFFF"/>
<path d="M233.3 249.699C235.8 252.199 236.7 253.999 236.9 255.399C235.883 255.028 234.936 254.487 234.1 253.799L233.3 249.699Z" fill="white"/>
<path d="M214.6 245.9C214.726 247.46 215.132 248.985 215.8 250.4C214.1 249.1 214 248 214.6 245.9Z" fill="#D6DFFF"/>
<path d="M220.5 257.699C222 259.999 225.5 259.999 225.5 259.999C222.3 261.699 220.9 261.799 220.5 257.699Z" fill="#D6DFFF"/>
<path d="M236.5 239C237.9 240.5 237.7 243.2 237.7 243.2C237.7 243.2 240.4 240.9 236.5 239Z" fill="#C7D3FC"/>
<path d="M241.1 259.4C241.7 261.5 241.1 263.3 239.8 263.9C239.933 262.33 240.375 260.8 241.1 259.4Z" fill="#C7D3FC"/>
<path d="M223.7 229.899C225.901 229.237 228.138 228.703 230.4 228.299C226.8 227.899 224.8 228.499 223.7 229.899Z" fill="#66251F"/>
<path d="M217.3 234.401C217.9 234.201 218.6 233.801 219.2 234.401H217.3Z" fill="#5E221D"/>
<path d="M217.6 235.701C218 235.201 218.5 234.601 219.3 234.901L217.6 235.701Z" fill="#5E221D"/>
<path d="M234.9 230.801C234.3 230.901 233.5 231.101 233.4 231.901L234.9 230.801Z" fill="#5E221D"/>
<path d="M235.5 231.9C234.9 231.8 234.1 231.6 233.6 232.4L235.5 231.9Z" fill="#5E221D"/>
<path d="M226 234.199C226.021 234.661 226.139 235.113 226.345 235.527C226.552 235.94 226.843 236.305 227.2 236.599C227.7 236.999 227.3 236.299 226.7 234.999C226.1 233.699 225.8 233.399 226 234.199Z" fill="#C27059"/>
<path d="M222.4 242.801C222.168 242.799 221.942 242.864 221.746 242.988C221.551 243.113 221.396 243.291 221.3 243.501C224.5 244.601 229.3 244.101 230.4 243.901C231.5 243.701 231.1 243.401 231 242.901H230.9C228.073 243.214 225.218 243.18 222.4 242.801Z" fill="#D6DFFF"/>
<path d="M236.4 228.899L234.3 227.199C234.3 227.199 235.1 229.399 235.7 231.299L237.3 232.299C237.119 231.138 236.817 229.998 236.4 228.899Z" fill="#A8C3FF"/>
<path d="M256.4 287.3C256.783 288.153 256.819 289.122 256.5 290C256.325 290.349 256.052 290.639 255.715 290.834C255.377 291.03 254.99 291.122 254.6 291.1H248.1C246.8 291.1 246.5 290.3 246.5 290.1C246.5 289.9 246.4 288.7 247.1 288.5C248.478 288.129 249.882 287.862 251.3 287.7C249.535 287.808 247.765 287.808 246 287.7C244.1 287.6 243.9 286.6 243.9 284.9C243.9 284.9 242 285.1 241.8 284C241.6 282.9 241.1 281.5 243 281.1L251.7 279.6L244.2 279.1C242.6 278.9 242 278.8 241.7 277.8C241.4 276.8 242.1 276.1 243.4 276C246.3 275.7 251 275.4 254 275.4C254.448 275.412 254.876 275.59 255.2 275.9C255.594 276.26 255.856 276.74 255.947 277.265C256.037 277.79 255.951 278.33 255.7 278.8C257.3 280.7 257.5 281.1 256.4 282.8C256.969 283.411 257.286 284.215 257.286 285.05C257.286 285.885 256.969 286.69 256.4 287.3Z" fill="#7A2F28"/>
<path d="M251.7 279.6L254.5 279.2L254.3 278.5L251.3 279.5L251.7 279.6Z" fill="#5E221D"/>
<path d="M253.7 282.4L243.1 284.7L243.9 284.9L250.9 283.5L254.1 283.2L253.7 282.4Z" fill="#5E221D"/>
<path d="M251.3 287.699L255 287.599L254.9 286.699L253.1 287.099L251.3 287.699Z" fill="#5E221D"/>
<path d="M236.9 290.1C236.5 284 238.7 275.4 240.6 270.9H238C235.593 277.019 235.208 283.747 236.9 290.1Z" fill="#FFAE82"/>
<path d="M245.5 270.9C248.5 273.6 249.4 270.9 249.4 270.9L246.7 270L245.5 270.9Z" fill="#F7E9CB"/>
<path d="M198.4 291.7C189.4 295.8 186.1 296 184.7 296.4C183.3 296.8 181.7 297.1 184.7 299.2C187.7 301.3 188.2 301.5 193.1 297.8C198 294.1 202.4 289.9 198.4 291.7Z" fill="#1A3E9C"/>
<path d="M201.2 285.899C200.245 282.08 199.008 278.336 197.5 274.699C196.6 272.699 197.1 271.899 197.9 271.299C198.7 270.699 199 271.299 199.6 273.499C200.2 275.699 202.1 285.199 202.1 285.199L201.2 285.899Z" fill="#1E397D"/>
<path d="M190 273.5C193.2 277.6 195 279.6 196 281.1C197 282.6 196.7 282.3 192.1 281.8C187.5 281.3 184.7 281.6 185.1 279.9C185.5 278.2 187.1 274.6 187.5 273.5C187.9 272.4 188.8 272 190 273.5Z" fill="#1A3E9C"/>
<path d="M601.5 424.301H769.3V33.9008H601.5V424.301Z" fill="#DB989D"/>
<path d="M742.5 190.801L683 242.701L750.2 238.701L742.5 190.801Z" fill="#D99398"/>
<path d="M713.6 53.5996L748 75.8996L744.2 114.4L713.6 53.5996Z" fill="#D69196"/>
<path d="M601.5 101.199L769.3 101.199V93.5792L601.5 93.5792V101.199Z" fill="#C9795F"/>
<path d="M565.9 66.8008H256.9V181.701L601.6 333.601V157.401L581.1 78.0008L565.9 66.8008Z" fill="url(#paint0_linear)"/>
<path d="M601.5 93.5996H256.9V101.22H601.5V93.5996Z" fill="#C9795F"/>
<path d="M429.3 157.4C441.872 157.4 453.928 162.394 462.817 171.284C471.706 180.173 476.7 192.229 476.7 204.8V424.3H381.9V204.8C381.9 192.229 386.894 180.173 395.784 171.284C404.673 162.394 416.729 157.4 429.3 157.4Z" fill="#1C1B29"/>
<path d="M441 158.8C430.807 161.438 421.78 167.388 415.336 175.714C408.892 184.04 405.397 194.272 405.4 204.8V424.3H381.9V204.8C381.9 192.229 386.894 180.173 395.784 171.284C404.673 162.394 416.729 157.4 429.3 157.4C433.242 157.398 437.17 157.868 441 158.8Z" fill="#41314A"/>
<path d="M444.2 455.4H17.7002V495.81H444.2V455.4Z" fill="#EDAC95"/>
<path d="M140.7 495.801L176.2 464.801L188.5 478.301L181.3 495.801H140.7Z" fill="#EBA48D"/>
<path d="M444.2 455.4H17.7002V467.2L444.2 474.1V455.4Z" fill="#D98A93"/>
<path d="M444.1 495.699L812.4 495.699V455.289L444.1 455.289V495.699Z" fill="#D68890"/>
<path d="M553.5 495.801L812.4 495.801V298.461H553.5V495.801Z" fill="#D68890"/>
<path d="M612.4 495.699H790.7V412.399H612.4V495.699Z" fill="#C4755A"/>
<path d="M620.9 495.801H782.2V419.621H620.9V495.801Z" fill="#D68890"/>
<path d="M553.5 382.4L812.4 382.4V375.43L553.5 375.43V382.4Z" fill="#C4755A"/>
<path d="M239.2 101.199H225.5V128.089H239.2V101.199Z" fill="#F7AB5B"/>
<path d="M239.2 101.199H229.7V128.089H239.2V101.199Z" fill="#F09E48"/>
<path d="M246.9 123.4H233.2V150.29H246.9V123.4Z" fill="#FFB464"/>
<path d="M293.4 134.301H279.7V161.191H293.4V134.301Z" fill="#FFB464"/>
<path d="M293.3 134.301H288V161.191H293.3V134.301Z" fill="#FAA255"/>
<path d="M447.9 149.9H434.2V176.79H447.9V149.9Z" fill="#FFB464"/>
<path d="M447.9 149.9H439.9V176.79H447.9V149.9Z" fill="#FAA255"/>
<path d="M364.8 130.5H351.1V157.39H364.8V130.5Z" fill="#FFB464"/>
<path d="M364.7 130.5H357.9V157.39H364.7V130.5Z" fill="#FAA255"/>
<path d="M515.6 130.5H501.9V157.39H515.6V130.5Z" fill="#FFB464"/>
<path d="M515.6 130.5H505.4V157.39H515.6V130.5Z" fill="#FAA255"/>
<path d="M74.0996 365.4C84.3996 376.4 89.4996 402.3 78.2996 424.3H32.4996C21.0996 405.9 24.6996 380.9 35.9996 365.4H74.0996Z" fill="#914343"/>
<path d="M37.2002 424.3H78.3002C89.5002 402.3 84.4002 376.4 74.1002 365.4H54.4002L37.2002 424.3Z" fill="#803333"/>
<path d="M68.9004 365.4C73.3303 384.704 74.4797 404.615 72.3004 424.3H74.1004C78.5004 400.4 75.6004 382.7 71.4004 365.4H68.9004Z" fill="#732A2A"/>
<path d="M58.5996 365.4C61.4184 384.901 62.1225 404.649 60.6996 424.3H62.9996C65.8996 400.4 63.8996 382.7 61.2996 365.4H58.5996Z" fill="#732A2A"/>
<path d="M27 383.1C30.9 373.7 49.4 372 40.4 393.1H28.8L27 383.1Z" fill="#1A606E"/>
<path d="M23.2005 393.101C23.2005 393.101 12.1005 379.301 17.2005 371.201C22.3005 363.101 34.4005 368.201 32.6005 393.101H23.2005Z" fill="#216C7A"/>
<path d="M19.4004 372.301C12.3004 363.201 0.200421 363.501 0.300421 371.201C0.400421 378.901 19.4004 374.301 19.4004 374.301V372.301Z" fill="#216C7A"/>
<path d="M28.8996 344C20.1996 345.5 25.3996 356.1 22.5996 370.5L27.1996 373.7C37.2996 359.7 37.5996 342.5 28.8996 344Z" fill="#216C7A"/>
<path d="M12.8406 363.648C13.3167 361.265 12.3856 359.07 10.7609 358.746C9.13616 358.421 7.43305 360.089 6.95689 362.472C6.48073 364.855 7.41183 367.05 9.03657 367.375C10.6613 367.7 12.3644 366.031 12.8406 363.648Z" fill="#216C7A"/>
<path d="M36.2998 380.299C36.2998 364.999 37.8998 358.599 42.0998 358.799C46.2998 358.999 39.1998 380.999 39.1998 380.999L36.2998 380.299Z" fill="#1A606E"/>
<path d="M31.4004 349.801C35.4004 342.001 42.4004 343.901 39.9004 349.801C37.4004 355.701 32.2004 352.701 32.2004 352.701L31.4004 349.801Z" fill="#216C7A"/>
<path d="M38.7998 386.8C45.5998 373.2 52.0998 363 57.5998 370.5C63.0998 378 42.0998 396 42.0998 396H38.7998V386.8Z" fill="#216C7A"/>
<path d="M50.9 371.7C47.9 365.2 45.7 360 47.9 355.2C50.1 350.4 59.9 350.9 54.1 371.2L50.9 371.7Z" fill="#216C7A"/>
<path d="M30.4004 395.2C33.1004 384.9 40.3004 384.1 42.4004 387.3C44.5004 390.5 38.3004 394.9 38.3004 394.9L30.4004 395.2Z" fill="#2A858C"/>
<path d="M47.8 424.3H21L12.5 408.7L14 393.1H54.8L56.6 408.7L47.8 424.3Z" fill="#F77C7C"/>
<path d="M275.3 424.299L274.1 342.399C274.055 339.288 273.269 336.232 271.809 333.485C270.348 330.737 268.254 328.377 265.7 326.599L255.7 319.499L188.3 315.699L194.6 321.299C190.3 324.099 190.4 326.099 189.9 334.199L183.7 424.299H275.3Z" fill="#244AB0"/>
<path d="M274.1 342.4C274.055 339.288 273.269 336.233 271.808 333.485C270.348 330.738 268.254 328.377 265.7 326.6L262.2 324.1H194L201.9 330C204.031 331.592 205.713 333.71 206.782 336.146C207.851 338.582 208.27 341.253 208 343.9L200.4 424.3H275.3L274.1 342.4Z" fill="#203D87"/>
<path d="M183.7 424.299C196.2 413.899 200.3 413.699 205.8 413.699C211.3 413.699 212.1 424.299 212.1 424.299H183.7Z" fill="#203D87"/>
<path d="M223 334.2C235.4 346.1 243.9 352.3 246 353.6C248.1 354.9 250.7 350.4 253 343.9C255.3 337.4 257 330.7 257.9 328.5C258.8 326.3 262.1 321.8 248.6 321.8C235.1 321.8 203.5 317.2 223 334.2Z" fill="#1A3578"/>
<path d="M267.5 338.4C257.6 353 243.3 370.9 239.2 376.3C235.1 381.7 229.1 377.3 224.6 372.7C220.1 368.1 222.1 370.2 224.3 376.8C226.09 381.828 229.199 386.283 233.3 389.7C235.6 391.7 239.2 396.5 248.3 379.8C257.4 363.1 272.7 330.9 267.5 338.4Z" fill="#1A3578"/>
<path d="M193.7 424.3C203 413.5 213.1 412.8 220.6 424.3H193.7Z" fill="#30868C"/>
<path d="M201.8 417.499C208.6 419.799 210.7 423.699 211 424.299H220.6C215.2 416.099 208.6 414.099 201.8 417.499Z" fill="#2B7585"/>
<path d="M259.6 417.8C252.2 417.4 246.5 420.6 239.5 424.3H266.4C267.3 419.4 264.7 418.1 259.6 417.8Z" fill="#2B7585"/>
<path d="M177.6 389.4H103.8V394.84H177.6V389.4Z" fill="#3D1A10"/>
<path d="M145.5 337.301L153.4 424.301H143.4L135.4 337.301H145.5Z" fill="#542518"/>
<path d="M177.3 337.301L185.2 424.301H175.2L167.1 337.301H177.3Z" fill="#542518"/>
<path d="M105.1 334.199L97.2002 424.299H107.2L115.2 334.199H105.1Z" fill="#542518"/>
<path d="M105.1 341.2L90.8998 272.4C90.8562 272.187 90.8591 271.968 90.9084 271.757C90.9577 271.546 91.0521 271.348 91.1851 271.177C91.3182 271.006 91.4867 270.866 91.6791 270.766C91.8716 270.666 92.0833 270.61 92.2998 270.6H99.2998C99.646 270.61 99.9794 270.733 100.25 270.949C100.52 271.166 100.713 271.464 100.8 271.8L115.2 341.2H105.1Z" fill="#6E2B17"/>
<path d="M141 276.6H97.9004V284.19H141V276.6Z" fill="#6E2B17"/>
<path d="M103.1 334.2H169.5V342H103.1C102.575 342.014 102.052 341.923 101.561 341.735C101.071 341.546 100.623 341.262 100.242 340.9C99.8612 340.538 99.5555 340.104 99.3424 339.624C99.1293 339.143 99.013 338.626 99 338.1C99.013 337.575 99.1293 337.058 99.3424 336.577C99.5555 336.097 99.8612 335.663 100.242 335.301C100.623 334.939 101.071 334.655 101.561 334.466C102.052 334.278 102.575 334.187 103.1 334.2Z" fill="#6E2B17"/>
<path d="M124.8 334.201H179.7C180.22 334.187 180.738 334.278 181.223 334.468C181.708 334.658 182.15 334.943 182.522 335.307C182.895 335.67 183.191 336.105 183.394 336.585C183.596 337.064 183.7 337.58 183.7 338.1C183.7 338.621 183.596 339.137 183.394 339.616C183.191 340.096 182.895 340.531 182.522 340.894C182.15 341.258 181.708 341.543 181.223 341.733C180.738 341.923 180.22 342.014 179.7 342H124.8V334.201Z" fill="#542113"/>
<path d="M117.8 204.6C116.242 205.227 114.982 206.424 114.276 207.948C113.57 209.471 113.471 211.206 114 212.8L124.8 244.4L138.7 240.3L126.3 208.3C125.653 206.69 124.399 205.399 122.809 204.707C121.218 204.014 119.418 203.976 117.8 204.6Z" fill="#E66CA5"/>
<path d="M128.5 236.501L134 235.701L126.4 216.801C126.307 216.519 126.151 216.262 125.946 216.047C125.74 215.833 125.489 215.667 125.212 215.562C124.934 215.456 124.636 215.414 124.34 215.438C124.044 215.462 123.757 215.552 123.5 215.701C123.049 215.918 122.69 216.289 122.488 216.748C122.287 217.206 122.255 217.721 122.4 218.201L128.5 236.501Z" fill="#F085B7"/>
<path d="M125.5 236.5L114.8 207.1C114.251 207.931 113.895 208.873 113.756 209.859C113.618 210.845 113.701 211.85 114 212.8L122.2 236.9L125.5 236.5Z" fill="#FFA3B5"/>
<path d="M152.036 232.051L111.278 237.345C105.418 238.106 101.284 243.473 102.045 249.334L102.082 249.621C102.844 255.481 108.211 259.615 114.071 258.854L154.829 253.56C160.689 252.799 164.823 247.432 164.062 241.571L164.025 241.284C163.263 235.424 157.896 231.29 152.036 232.051Z" fill="#FF85AB"/>
<path d="M120.1 295.5C117.6 293.3 115.3 291.2 114.8 290.3C114.3 289.4 115.1 289.3 116.4 288.8C117.7 288.3 118.6 289.9 119.9 292.4C121.2 294.9 122.3 297.5 120.1 295.5Z" fill="#F2C591"/>
<path d="M154.2 269L117.7 274.8C115.3 276.9 115.1 277.4 113.4 278.9C108.5 283.2 107.2 286.7 107.1 290.5C106.8 295.8 107.3 295.6 106.2 297.5C105.1 299.4 104 300.1 105 302.8C105.684 304.518 106.704 306.081 108 307.4H165.6C178.5 292.3 166.8 280 154.2 269Z" fill="#F7E5BC"/>
<path d="M159.6 307.4H120.9C120.9 307.4 121.1 304 121.3 295.3C121.5 286.6 119.8 280.6 113.4 278.9C114.7 277.6 116.1 276.2 117.7 274.8L154.2 269.1C156.6 271.2 159 273.3 161.2 275.5C161.749 286.16 161.213 296.848 159.6 307.4Z" fill="#1F3A70"/>
<path d="M154.2 269.1H153.7L153.2 269.7C151.727 275.156 149.787 280.476 147.4 285.6C147.4 285.6 147.6 287.6 150.3 283.7C153.034 279.862 155.128 275.607 156.5 271.1L154.2 269.1Z" fill="#172E5C"/>
<path d="M121.8 274.8C128.9 283.3 131.3 285.3 133.9 287C136.5 288.7 134.3 286.1 131.6 282.1C128.9 278.1 125.7 273.1 125.7 273.1L121.8 274.8Z" fill="#172E5C"/>
<path d="M143.5 298.901C140.9 298.101 129.8 294.301 121.3 292.301V295.301C121.1 304.001 120.9 307.401 120.9 307.401H159.6C160.2 303.101 160.8 298.201 161.1 293.001L143.5 298.901Z" fill="#172E5C"/>
<path d="M124.6 279.8C124.6 279.8 124.3 280.5 122.7 281.5C121.1 282.5 120.8 283 120.6 282.7C120.036 281.463 119.191 280.376 118.132 279.525C117.073 278.674 115.829 278.083 114.5 277.8C115.5 276.7 116.6 275.7 117.8 274.6C123.3 276.9 124.6 279.8 124.6 279.8Z" fill="#244AB0"/>
<path d="M151 269L143.6 296.6L124.8 269.9L151 269Z" fill="#D4BF9B"/>
<path d="M135 278.7L149.1 282.4L143.8 290.8L135 280.3C133.8 278.9 132.7 278.1 135 278.7Z" fill="#CCAC89"/>
<path d="M128.9 274.3L146.1 276.6C148 276.8 148.1 274.7 149.1 270.6L130.5 272L128.9 274.3Z" fill="#DE5D98"/>
<path d="M156.305 249.885L114.428 255.384C108.905 256.109 105.016 261.172 105.741 266.691C106.466 272.211 111.53 276.098 117.052 275.372L158.929 269.873C164.452 269.148 168.341 264.086 167.616 258.566C166.891 253.047 161.827 249.16 156.305 249.885Z" fill="#FF85AB"/>
<path d="M158.5 270.499C161.126 270.197 163.535 268.897 165.229 266.868C166.922 264.839 167.772 262.237 167.6 259.599C167.434 257.646 166.702 255.783 165.494 254.238C164.287 252.693 162.656 251.533 160.8 250.899C162.061 249.728 163.026 248.274 163.617 246.658C164.208 245.041 164.408 243.308 164.2 241.599V241.299C164.04 239.906 163.603 238.56 162.915 237.339C162.226 236.117 161.3 235.047 160.191 234.189C159.082 233.332 157.812 232.705 156.457 232.346C155.102 231.987 153.688 231.903 152.3 232.099L119.2 236.399C126.3 241.299 126.3 245.499 125.1 253.499C125.016 254.719 125.294 255.937 125.9 256.999C127.507 259.809 128.206 263.046 127.901 266.269C127.597 269.491 126.304 272.54 124.2 274.999L158.5 270.499Z" fill="#F06EA8"/>
<path d="M144.1 367.299C144.1 370.999 142 373.999 145.8 375.699C151.4 378.199 154 380.799 158.1 381.999C162.2 383.199 168.8 385.099 165.5 378.599C163.377 374.572 161.474 370.433 159.8 366.199L144.1 367.299Z" fill="#914343"/>
<path d="M164.8 362.4C164.5 365.9 162.3 368.5 165.7 370.4C170.8 373.2 172.9 375.9 176.7 377.3C180.5 378.7 186.4 381.2 183.9 374.8C181.4 368.4 179.6 362.8 179.6 362.8L164.8 362.4Z" fill="#914343"/>
<path d="M155.5 334.401H154L161.9 368.301L157.4 370.401C155.086 371.455 152.583 372.033 150.041 372.102C147.498 372.17 144.968 371.728 142.6 370.801L134.7 334.601H124.4C123.774 334.588 123.157 334.45 122.585 334.196C122.013 333.941 121.498 333.575 121.069 333.119C120.641 332.662 120.308 332.125 120.09 331.538C119.872 330.951 119.773 330.326 119.8 329.701L120.3 320.801H165.7C168.367 320.812 170.935 321.808 172.91 323.599C174.885 325.39 176.129 327.848 176.4 330.501L181 366.001L177.2 366.401C172.504 366.917 167.759 366.783 163.1 366.001L155.5 334.401Z" fill="#1C1B29"/>
<path d="M135.9 319.5H117.7V424.34H135.9V319.5Z" fill="#AD482C"/>
<path d="M124.7 319.5H117.7V424.34H124.7V319.5Z" fill="#EB9151"/>
<path d="M135.9 319.5H117.7V338.53H135.9V319.5Z" fill="#AD482C"/>
<path d="M221.5 300.699H198.6V307.389H221.5V300.699Z" fill="#BA4E5D"/>
<path d="M205 300.699L203.3 305.399H200.3L202.2 300.699H205Z" fill="#D65A6B"/>
<path d="M221.4 300.699H208.2V307.389H221.4V300.699Z" fill="#AD4452"/>
<path d="M312.9 301.5H304V286H311.1C311.578 286 312.036 286.19 312.373 286.527C312.711 286.865 312.9 287.323 312.9 287.8V301.5Z" fill="#692F1C"/>
<path d="M304.1 300.699H310.7V289.249H304.1V300.699Z" fill="#FEC9AA"/>
<path d="M307 284C309.099 284 310.8 282.299 310.8 280.2C310.8 278.102 309.099 276.4 307 276.4C304.902 276.4 303.2 278.102 303.2 280.2C303.2 282.299 304.902 284 307 284Z" fill="white"/>
<path d="M303.1 284.399C305.917 284.399 308.2 282.116 308.2 279.299C308.2 276.483 305.917 274.199 303.1 274.199C300.283 274.199 298 276.483 298 279.299C298 282.116 300.283 284.399 303.1 284.399Z" fill="white"/>
<path d="M296 285.899C298.817 285.899 301.1 283.616 301.1 280.799C301.1 277.983 298.817 275.699 296 275.699C293.184 275.699 290.9 277.983 290.9 280.799C290.9 283.616 293.184 285.899 296 285.899Z" fill="white"/>
<path d="M308.5 280.801H288V308.201H308.5V280.801Z" fill="#8C422A"/>
<path d="M308.5 280.801H295.3V308.201H308.5V280.801Z" fill="#7A3721"/>
<path d="M308.5 280.801H288V284.641H308.5V280.801Z" fill="#6D6996"/>
<path d="M293.8 280.801H290.2V284.641H293.8V280.801Z" fill="#807BB0"/>
<path d="M153.7 296.7L146.8 302.1C146.693 302.195 146.566 302.266 146.429 302.308C146.292 302.35 146.147 302.362 146.005 302.343C145.862 302.324 145.726 302.275 145.604 302.198C145.483 302.122 145.379 302.02 145.3 301.9L137.4 291.3C137.256 291.065 137.198 290.788 137.234 290.514C137.271 290.241 137.4 289.989 137.6 289.8L144.6 284.4C144.829 284.235 145.111 284.164 145.39 284.201C145.669 284.238 145.923 284.381 146.1 284.6L153.9 295.2C153.996 295.307 154.067 295.434 154.109 295.571C154.151 295.709 154.163 295.853 154.144 295.996C154.125 296.138 154.075 296.275 153.999 296.396C153.922 296.518 153.82 296.621 153.7 296.7Z" fill="#BA4E5D"/>
<path d="M164.8 296.8L156.5 296.2C156.321 296.179 156.155 296.099 156.029 295.972C155.902 295.845 155.821 295.679 155.8 295.5L156.4 281.6C156.424 281.406 156.519 281.227 156.667 281.098C156.814 280.969 157.004 280.899 157.2 280.9L165.5 281.5C165.694 281.525 165.873 281.62 166.002 281.767C166.131 281.915 166.201 282.104 166.2 282.3L165.6 296.1C165.575 296.295 165.48 296.473 165.333 296.603C165.185 296.732 164.996 296.802 164.8 296.8Z" fill="#BA4E5D"/>
<path d="M165.031 287.417L161.524 283.311L157.175 287.025L160.682 291.132L165.031 287.417Z" fill="#AD3B4B"/>
<path d="M164.9 294.9C164.994 294.878 165.082 294.836 165.159 294.777C165.236 294.719 165.3 294.645 165.347 294.56C165.394 294.475 165.423 294.382 165.432 294.286C165.441 294.189 165.43 294.092 165.4 294L162.2 281.3L157.2 280.9C157.004 280.899 156.814 280.969 156.667 281.098C156.519 281.227 156.424 281.406 156.4 281.6L155.8 295.5V295.7C155.877 295.779 155.972 295.837 156.076 295.872C156.18 295.907 156.291 295.917 156.4 295.9L164.9 294.9Z" fill="#872C39"/>
<path d="M163.8 294.801L155.4 295.801C155.231 295.813 155.062 295.771 154.918 295.681C154.774 295.591 154.663 295.458 154.6 295.301L151.2 281.801C151.167 281.707 151.157 281.607 151.172 281.509C151.187 281.411 151.226 281.319 151.285 281.239C151.344 281.16 151.423 281.097 151.512 281.055C151.602 281.014 151.701 280.995 151.8 281.001L160.2 279.901C160.369 279.888 160.537 279.93 160.681 280.02C160.825 280.11 160.937 280.243 161 280.401L164.4 293.901C164.43 293.999 164.438 294.104 164.422 294.206C164.407 294.309 164.37 294.406 164.312 294.492C164.255 294.578 164.179 294.651 164.091 294.704C164.002 294.757 163.903 294.79 163.8 294.801Z" fill="#BA4E5D"/>
<path d="M161.19 286.197L156.872 282.955L153.438 287.529L157.756 290.772L161.19 286.197Z" fill="#AD3B4B"/>
<path d="M148.4 290.1H143V295.82H148.4V290.1Z" fill="#AD3B4B"/>
<path d="M158.8 292.901L153.2 280.801L151.8 281.001C151.701 280.995 151.602 281.014 151.512 281.056C151.423 281.097 151.344 281.161 151.285 281.24C151.226 281.319 151.187 281.412 151.172 281.51C151.157 281.607 151.167 281.707 151.2 281.801L154.6 295.201L158.3 293.901C158.497 293.832 158.66 293.689 158.753 293.503C158.847 293.316 158.863 293.1 158.8 292.901Z" fill="#872C39"/>
<path d="M146.1 284.6C145.923 284.381 145.669 284.238 145.39 284.201C145.111 284.164 144.828 284.235 144.6 284.4L142 286.4L147.4 298.2C147.432 298.273 147.479 298.338 147.537 298.392C147.595 298.447 147.663 298.489 147.737 298.517C147.812 298.545 147.891 298.558 147.97 298.555C148.05 298.552 148.128 298.533 148.2 298.5L153.7 296.7C153.82 296.621 153.922 296.518 153.998 296.396C154.075 296.275 154.124 296.138 154.143 295.996C154.162 295.853 154.15 295.709 154.108 295.571C154.066 295.434 153.995 295.307 153.9 295.2L146.1 284.6Z" fill="#872C39"/>
<path d="M157.8 294.5L148.7 297.5C148.527 297.544 148.345 297.528 148.182 297.455C148.019 297.383 147.884 297.258 147.8 297.1L142 284.5C141.8 284.1 142 283.7 142.5 283.5L151.5 280.5C151.674 280.457 151.856 280.473 152.019 280.546C152.182 280.618 152.317 280.743 152.4 280.9L158.2 293.5C158.25 293.591 158.278 293.691 158.284 293.793C158.29 293.896 158.273 293.999 158.235 294.094C158.197 294.19 158.138 294.276 158.063 294.346C157.988 294.416 157.898 294.469 157.8 294.5Z" fill="#BA4E5D"/>
<path d="M137.4 301.6C136.2 300.1 135.1 298.8 133.3 298.3C129.175 297.32 125.003 296.553 120.8 296C119.619 295.78 118.4 295.919 117.3 296.4C113.9 297.8 112.8 300.1 114.9 307.4H135.3L136.9 305.8C138.4 303.9 138.5 303.1 137.4 301.6Z" fill="#FF8FB1"/>
<path d="M160.7 289.199C164.1 290.899 168.8 293.699 168.8 293.699C169.606 294.205 170.28 294.894 170.767 295.712C171.254 296.529 171.54 297.45 171.6 298.399V299.299C171.627 300.096 171.495 300.889 171.212 301.634C170.928 302.378 170.5 303.059 169.95 303.636C169.401 304.213 168.742 304.675 168.013 304.995C167.283 305.315 166.497 305.487 165.7 305.499C165.5 305.599 165.3 305.499 165.1 305.499C164.307 305.429 163.538 305.186 162.848 304.789C162.157 304.392 161.561 303.85 161.1 303.199C160.016 301.704 158.812 300.3 157.5 298.999C156.8 298.299 154.9 297.199 154.3 296.599C152.3 294.399 152.7 293.399 154.3 290.899C155.9 288.399 156.9 287.299 160.7 289.199Z" fill="#F57FB5"/>
<path d="M137.586 252.934C138.454 252.251 138.355 250.677 137.365 249.419C136.374 248.16 134.867 247.693 133.999 248.376C133.131 249.06 133.231 250.634 134.221 251.892C135.212 253.151 136.718 253.618 137.586 252.934Z" fill="#1E1C2B"/>
<path d="M155.808 248.691C156.085 247.226 155.474 245.88 154.443 245.685C153.412 245.491 152.351 246.52 152.075 247.986C151.798 249.451 152.409 250.797 153.44 250.991C154.471 251.186 155.532 250.156 155.808 248.691Z" fill="#1E1C2B"/>
<path d="M324.6 234L321.4 234.5C317.232 235.11 313.41 237.163 310.6 240.3C310.6 240.3 308.5 252.3 315.2 262.3L326.9 259.5C331.2 271 341.8 277.9 341.8 277.9C341.8 277.9 346.9 293.6 350.6 298.3C354.3 303 374.4 306.4 408.1 277.4C408.7 266.4 400.2 259.7 400.2 259.7C400.2 259.7 400.2 241 391 229.5C381.8 218 324.6 234 324.6 234Z" fill="#F7E9CB"/>
<path d="M412.5 413.1C412.1 413.9 412.1 414.3 411.5 415.4C411.9 418.3 412.3 424.3 412.3 424.3H390L379.2 367.4L406.5 361.9C408.9 374.3 410.7 391.5 411.8 404.7C413.5 409.4 413.5 410.9 412.5 413.1Z" fill="#8C422A"/>
<path d="M364.6 366.099L345.8 424.299H324.6L338.8 357.699L364.6 366.099Z" fill="#7D361F"/>
<path d="M408.1 277.4L350.6 294.9L339.9 339.3L334.1 355.2C333.664 355.94 333.426 356.779 333.408 357.637C333.391 358.495 333.594 359.344 334 360.1L337 366.1L364.6 374.2L374.8 342.1C374.202 346.542 374.102 351.036 374.5 355.5C374.5 355.5 373.5 360.1 373.1 363.7C373.052 364.111 373.089 364.528 373.209 364.924C373.33 365.319 373.531 365.686 373.8 366L376.4 369C376.73 369.352 377.135 369.625 377.585 369.798C378.036 369.971 378.519 370.04 379 370L390.9 369L404.3 371.2C404.925 371.286 405.562 371.201 406.143 370.955C406.724 370.708 407.227 370.31 407.6 369.8L409.2 367.5L412.5 363.3C413.186 362.48 413.578 361.454 413.614 360.385C413.65 359.316 413.329 358.266 412.7 357.4L410.4 354.1C410.4 354.1 411.9 347.7 414 334C416.1 320.3 419.7 295.7 408.1 277.4Z" fill="#34355E"/>
<path d="M368.8 366.899L374.8 342.099C375.8 332.999 377.9 312.199 377.9 312.199C377.9 312.199 352 338.099 347.2 342.099C342.4 346.099 343 346.199 345.1 349.299C347.2 352.399 348.3 354.099 348.3 354.099L337 356.699V366.099L364.6 374.199L368.8 366.899Z" fill="#2C2D57"/>
<path d="M410 280.8C409.4 279.7 408.8 278.5 408.1 277.4L350.6 294.9L348.8 301.1L408.9 284.4L410 280.8Z" fill="#451B10"/>
<path d="M394 281.701L408.2 277.101C409.706 276.651 411.323 276.745 412.768 277.366C414.212 277.988 415.391 279.097 416.1 280.501L424.4 297.501C424.806 298.313 425.035 299.202 425.071 300.11C425.107 301.017 424.949 301.922 424.609 302.764C424.268 303.605 423.753 304.365 423.096 304.992C422.439 305.619 421.657 306.1 420.8 306.401L405.9 311.901C405.172 312.16 404.397 312.26 403.628 312.194C402.858 312.128 402.112 311.897 401.439 311.518C400.766 311.139 400.182 310.62 399.727 309.996C399.272 309.372 398.956 308.658 398.8 307.901L394 281.701Z" fill="#451B10"/>
<path d="M367 220.9C362.7 235.9 345.4 246.2 331.4 236.5C317.4 226.8 331.3 206.6 331.3 206.6C331.3 206.6 323.8 187.6 342.7 183.1C361.6 178.6 366.3 186.8 367 220.9Z" fill="#4D7AE8"/>
<path d="M367 220.9C366.4 191.1 362.7 181.1 349.2 182L351.5 186.5C349.7 189.5 348.5 192.8 348.4 200.9C348.4 204.8 349.8 205.9 351.9 206.4C354 206.9 354.6 207 355.3 208C356 209 355.8 209.9 355.1 212.6C354 216.9 351.5 220.6 351.3 226C351.1 231.4 351 234.6 351.9 238.4C355.514 236.721 358.73 234.292 361.333 231.275C363.936 228.258 365.868 224.721 367 220.9Z" fill="#2E64E8"/>
<path d="M351.5 183.6L352.9 176.2C353.046 175.521 353.334 174.881 353.746 174.322C354.158 173.763 354.683 173.298 355.289 172.957C355.894 172.617 356.564 172.409 357.256 172.347C357.947 172.286 358.644 172.372 359.3 172.6C360.039 172.845 360.708 173.266 361.248 173.828C361.788 174.389 362.183 175.073 362.399 175.821C362.616 176.569 362.647 177.359 362.491 178.122C362.334 178.884 361.994 179.598 361.5 180.2L356.1 186.8L351.5 183.6Z" fill="#201E2F"/>
<path d="M360.4 181.599C357.79 180.588 354.995 180.145 352.2 180.299L351.5 183.599L356.1 186.799L360.4 181.599Z" fill="#41314A"/>
<path d="M339 209.899C341.099 209.899 342.8 207.616 342.8 204.799C342.8 201.983 341.099 199.699 339 199.699C336.902 199.699 335.2 201.983 335.2 204.799C335.2 207.616 336.902 209.899 339 209.899Z" fill="#DBE7FF"/>
<path d="M337.379 208.469C337.93 208.431 338.322 207.597 338.255 206.605C338.187 205.613 337.685 204.84 337.134 204.877C336.583 204.915 336.192 205.749 336.259 206.741C336.327 207.733 336.828 208.507 337.379 208.469Z" fill="#201E2F"/>
<path d="M334.6 195.4C334.854 194.647 335.338 193.993 335.984 193.529C336.63 193.066 337.405 192.816 338.2 192.816C338.994 192.816 339.769 193.066 340.415 193.529C341.061 193.993 341.545 194.647 341.8 195.4H334.6Z" fill="#201E2F"/>
<path d="M335 217C338.7 218 342.7 217.1 346 213.5C346.427 213.006 347.023 212.691 347.672 212.616C348.32 212.542 348.973 212.715 349.5 213.1C350.069 213.485 350.462 214.08 350.593 214.755C350.724 215.43 350.583 216.129 350.2 216.7C345.1 225 337.2 226.2 332.3 221.6C331.957 221.291 331.702 220.897 331.561 220.458C331.421 220.019 331.399 219.55 331.5 219.1C331.567 218.718 331.715 218.356 331.934 218.037C332.153 217.718 332.438 217.449 332.77 217.25C333.102 217.051 333.473 216.926 333.858 216.882C334.242 216.839 334.632 216.879 335 217Z" fill="#590942"/>
<path d="M335 223.4C339.8 225.6 346 223.6 350.2 216.7C350.524 216.195 350.67 215.597 350.616 214.999C350.561 214.401 350.31 213.839 349.9 213.4L340.2 217.7C337.824 218.895 335.972 220.925 335 223.4Z" fill="#400015"/>
<path d="M350.6 215.2C350.596 214.787 350.494 214.382 350.303 214.017C350.112 213.652 349.836 213.337 349.5 213.1C348.972 212.715 348.32 212.542 347.672 212.616C347.023 212.691 346.426 213.006 346 213.5C342.7 217.1 338.7 218 335 217H334.1V219.5C334.1 219.5 335.5 220.5 341 220V219C344.458 218.52 347.75 217.217 350.6 215.2Z" fill="#DBE7FF"/>
<path d="M362.9 190C359.5 182.1 353.3 180.6 342.7 183.1C340.556 183.585 338.499 184.394 336.6 185.5C336.1 188.6 340.8 189.6 349.7 186.7C346.8 192 352.9 201.4 362.9 190Z" fill="#201E2F"/>
<path d="M315.2 262.3L304 264.7C302.854 264.965 301.652 264.856 300.572 264.388C299.492 263.92 298.591 263.118 298 262.1C295.1 257 290.2 246.8 289.9 234.9L306.4 226.6L313.1 239.9C315.386 247.132 316.102 254.769 315.2 262.3Z" fill="#3467E3"/>
<path d="M386.6 222.201C388.3 223.201 388.2 223.101 388.4 225.301C388.6 227.501 388.5 226.701 390.2 227.401C391.9 228.101 392.8 228.901 392.7 231.801C366.1 221.201 369.2 228.101 358.4 264.701C358.4 264.701 351.4 269.301 341 264.701C330.6 260.101 324.6 234.001 324.6 234.001L327.6 233.001C328.697 234.339 329.976 235.517 331.4 236.501C340.3 242.701 350.6 240.701 357.9 234.601L358.2 230.601C358.262 229.219 358.626 227.868 359.265 226.642C359.904 225.416 360.803 224.344 361.9 223.501L367 219.401L366.8 214.301L369 215.201C370.028 215.682 370.973 216.323 371.8 217.101L373.1 218.401L376 217.301C377.3 216.901 378.9 215.701 382.9 220.501C384.217 220.863 385.467 221.437 386.6 222.201Z" fill="#F76574"/>
<path d="M392.7 231.801C392.8 228.901 392.4 228.301 390.2 227.401C388 226.501 388.5 226.801 388.4 225.301C388.3 223.801 388.3 223.201 386.6 222.201C385.467 221.437 384.218 220.863 382.9 220.501C378.9 215.701 377.3 216.901 376 217.301L373.1 218.401L371.8 217.101C370.974 216.323 370.028 215.682 369 215.201L366.8 214.301L367 219.401L361.9 223.501C360.804 224.344 359.905 225.416 359.266 226.642C358.627 227.868 358.263 229.219 358.2 230.601L357.9 234.601C355.612 236.603 352.948 238.129 350.063 239.09C347.179 240.052 344.132 240.429 341.1 240.201L340.4 241.101C337.3 246.101 339.8 248.101 339.8 248.101L341 253.601L345.8 257.201C344.726 258.272 343.922 259.583 343.452 261.026C342.983 262.469 342.862 264.002 343.1 265.501C352.3 268.701 358.4 264.701 358.4 264.701C369.2 228.101 366.1 221.201 392.7 231.801Z" fill="#EB495B"/>
<path d="M306.6 220C306.399 217.003 306.703 213.995 307.5 211.1C308.2 208.3 308.1 207.5 307.8 202.1C307.806 201.913 307.768 201.728 307.69 201.559C307.612 201.39 307.495 201.241 307.35 201.124C307.204 201.008 307.034 200.927 306.851 200.888C306.669 200.849 306.48 200.853 306.3 200.9L302.3 201.7L303.2 205.2L301.7 207.6L286.6 209.9L287.6 238.7C287.6 238.7 303.3 237.9 309.9 230L306.6 220Z" fill="#542113"/>
<path d="M302.3 212.601H289.7C289.468 212.601 289.239 212.554 289.025 212.462C288.812 212.371 288.62 212.236 288.461 212.068C288.302 211.899 288.179 211.7 288.1 211.482C288.02 211.264 287.986 211.032 288 210.801L290 190.201C290 189.995 290.041 189.791 290.123 189.603C290.205 189.414 290.324 189.244 290.474 189.103C290.624 188.962 290.802 188.854 290.995 188.785C291.189 188.716 291.395 188.687 291.6 188.701H304.3C304.528 188.699 304.754 188.746 304.962 188.838C305.171 188.931 305.357 189.067 305.508 189.238C305.66 189.408 305.773 189.609 305.841 189.827C305.908 190.045 305.929 190.274 305.9 190.501L303.9 211.101C303.9 211.306 303.859 211.51 303.777 211.699C303.695 211.888 303.576 212.058 303.426 212.198C303.276 212.339 303.098 212.447 302.905 212.516C302.711 212.586 302.505 212.614 302.3 212.601Z" fill="#BA4E5D"/>
<path d="M303.3 202.999H290.1L291.3 190.199H304.4L303.3 202.999Z" fill="#F7E9CB"/>
<path d="M302.6 211.1H289.5L290 204.9H303.2L302.6 211.1Z" fill="#B53F50"/>
<path d="M296.4 201.7C292.9 201.2 292.9 197.8 294.7 195.6C295.721 194.446 296.594 193.17 297.3 191.8C297.6 191.3 297.9 191.5 298.2 193.4L298.6 195.3C298.901 194.854 299.169 194.386 299.4 193.9C299.6 193.3 299.8 194.3 300.3 195.8C300.8 197.3 302.3 202.6 296.4 201.7Z" fill="#EB495B"/>
<path d="M287.1 222.799L298.3 220.899L299.1 211.999C299.3 210.599 299.4 209.499 296.3 209.299C293.2 209.099 288.3 209.099 288.3 209.099L297.4 206.199C299 205.699 298.9 204.999 298.8 203.699C298.7 202.399 298 200.899 295.8 201.399L285.8 203.499C284.961 203.633 284.173 203.992 283.522 204.538C282.87 205.084 282.379 205.796 282.1 206.599C281.6 208.099 282.5 208.699 283.8 209.899C285.1 211.099 284 211.099 283.4 211.999C282.912 212.624 282.69 213.416 282.784 214.202C282.878 214.989 283.279 215.707 283.9 216.199C285.6 217.999 282.1 219.599 287.1 222.799Z" fill="#542113"/>
<path d="M233.4 319.5H215.5V424.34H233.4V319.5Z" fill="#EB9151"/>
<path d="M233.3 319.5H221.5V424.34H233.3V319.5Z" fill="#AD482C"/>
<path d="M233.4 319.5H215.5V338.53H233.4V319.5Z" fill="#AD482C"/>
<path d="M352.3 424.301H370.4V319.461H352.3V424.301Z" fill="#AD482C"/>
<path d="M299.7 319.5H282.9V424.34H299.7V319.5Z" fill="#A13A20"/>
<path d="M352.3 332.301H370.4V319.441H352.3V332.301Z" fill="#9C361C"/>
<path d="M299.7 319.5H282.9V332.36H299.7V319.5Z" fill="#A13A20"/>
<path d="M405.3 307.4H81.0996V324.13H405.3V307.4Z" fill="#EB9151"/>
<path d="M405.4 307.4H225V324.13H405.4V307.4Z" fill="#C45F3D"/>
<path d="M354.7 205.7L372.8 188.8C372.964 188.641 373.16 188.519 373.375 188.443C373.59 188.366 373.818 188.336 374.046 188.355C374.273 188.374 374.493 188.441 374.693 188.553C374.892 188.664 375.065 188.816 375.2 189C375.4 189.25 375.524 189.552 375.56 189.871C375.595 190.189 375.54 190.511 375.4 190.8L360.9 217.7L354.7 205.7Z" fill="#2E64E8"/>
<path d="M179.2 191.201L183.2 189.301C183.3 189.301 183.3 189.201 183.2 189.201L179.2 187.401H179.1L177.3 183.301H177.1L175.3 187.401L171.2 189.201C171.1 189.201 171.1 189.301 171.2 189.301L175.3 191.201L177.1 195.301H177.3L179.1 191.201H179.2Z" fill="#6ADBC6"/>
<path d="M308.4 185.999L310.4 185.199L308.4 184.299L307.6 182.399C307.5 182.299 307.5 182.299 307.5 182.399L306.6 184.299L304.7 185.199C304.6 185.199 304.6 185.299 304.7 185.299L306.6 186.099L307.5 188.099H307.6L308.4 186.099V185.999Z" fill="#FFE091"/>
<path d="M440.6 337.099L444.6 335.299C444.7 335.299 444.7 335.199 444.6 335.199L440.6 333.299H440.5L438.7 329.199H438.5L436.7 333.299L432.6 335.199C432.5 335.199 432.5 335.299 432.6 335.299L436.7 337.099L438.5 341.199H438.7L440.5 337.099H440.6Z" fill="#4F81FF"/>
<path d="M44.1002 332.899L46.5002 331.799C46.6002 331.799 46.6002 331.699 46.5002 331.699L44.1002 330.599L43.0002 328.199H42.9002L41.8002 330.599L39.4002 331.699C39.3002 331.699 39.3002 331.799 39.4002 331.799L41.8002 332.899L42.9002 335.299H43.0002L44.1002 332.899Z" fill="#FF85AB"/>
<path d="M310.3 119.9V76.9004" stroke="#612D46" stroke-width="6" stroke-miterlimit="10" stroke-linecap="round"/>
<path d="M429.3 119.9V76.9004" stroke="#612D46" stroke-width="6" stroke-miterlimit="10" stroke-linecap="round"/>
<path d="M237.3 52.5996C251.7 52.5996 259.6 57.5996 266.6 62.7996L268.9 64.4996L271.3 66.3996C277.8 71.1996 284.6 75.2996 297 75.2996C309.4 75.2996 315.5 71.5996 321.7 67.0996L325.1 64.4996L326.4 63.5996L325.4 62.7996C318.4 57.5996 310.5 52.5996 296.1 52.5996H237.3Z" fill="#DE548C"/>
<path d="M309.4 69.5996H289.6L281.2 63.5996H300.5L309.4 69.5996Z" fill="#DE5B90"/>
<path d="M313.4 75.3004L300.5 66.4004H327.2L337.8 75.3004H313.4Z" fill="#D94C86"/>
<path d="M301.4 55.7996H274.4L266.7 52.5996H291.6L301.4 55.7996Z" fill="#E85A94"/>
<path d="M297 80.9988H355.8C370.2 80.9988 378.1 75.9988 385.2 70.6988L386 70.0988C385.614 69.6799 385.177 69.3104 384.7 68.9988L381.5 66.3988C375.6 61.8988 368.6 58.2988 356.7 58.2988C344.8 58.2988 337.6 62.3988 331.1 67.0988L328.5 68.9988L326.4 70.6988C319.3 75.9988 311.4 80.9988 297 80.9988Z" fill="#B03A73"/>
<path d="M416.4 80.9988H475.2C489.6 80.9988 497.5 75.9988 504.6 70.6988L505.4 70.0988L504.1 68.9988L500.8 66.3988C494.9 61.8988 487.9 58.2988 476 58.2988C464.1 58.2988 456.9 62.3988 450.5 67.0988L447.9 68.9988L445.8 70.6988C438.7 75.9988 430.8 80.9988 416.4 80.9988Z" fill="#B03A73"/>
<path d="M447.3 80.9988H472.2L482.5 75.2988H457.4L447.3 80.9988Z" fill="#B5437A"/>
<path d="M361.2 60.6992H371.4C375.047 62.0534 378.456 63.9773 381.5 66.3992L384.7 68.9992C385.177 69.3108 385.614 69.6803 386 70.0992L385.2 70.6992L381.1 73.5992H342.8L361.2 60.6992Z" fill="#A3366B"/>
<path d="M445.8 63.4987L444.5 64.3987L441 67.0987C434.9 71.5987 428.1 75.2987 416.4 75.2987C404.7 75.2987 397.2 71.1987 390.7 66.3987L388.2 64.4987L386.2 62.7987C380.4 58.2987 373.6 54.0987 363 52.9987L360.6 52.6987H415.5C430.5 52.5987 438.9 57.8987 445.8 63.4987Z" fill="#DE548C"/>
<path d="M425 74.4996C430.838 73.3141 436.317 70.78 441 67.0996H415.4L425 74.4996Z" fill="#D94C86"/>
<path d="M193.9 81.0004H236.5C250.9 81.0004 258.8 76.0004 265.9 70.7004L266.7 70.1004L265.5 69.1004H265.4L262.1 66.7004C256.3 62.4004 250 58.9004 239.5 58.4004H235.1C222.4 58.9004 215.6 63.7004 209.3 69.1004H209.2C198.1 78.5004 195.7 80.4004 195.7 80.4004C195.185 80.7966 194.551 81.0079 193.9 81.0004Z" fill="#B03A73"/>
<path d="M245.7 70L238.5 75.9H196.3L203.3 70H245.7Z" fill="#A3366B"/>
<path d="M386.2 62.7996C379.4 57.3996 371.1 52.5996 356.7 52.5996C342.3 52.5996 333.7 57.9996 326.4 63.5996L325.1 64.4996L321.7 67.0996C315.5 71.5996 308.8 75.2996 297 75.2996C285.2 75.2996 277.8 71.1996 271.3 66.3996L268.9 64.4996L266.6 62.7996C259.6 57.5996 251.7 52.5996 237.3 52.5996C221.3 52.5996 212.9 58.4996 205.7 64.5996L192.1 75.8996C191.529 76.3855 191.169 77.0734 191.094 77.8191C191.02 78.5648 191.237 79.3104 191.7 79.8996C191.964 80.233 192.297 80.5043 192.678 80.6944C193.058 80.8845 193.475 80.9887 193.9 80.9996C194.232 81.014 194.564 80.9592 194.874 80.8387C195.183 80.7182 195.465 80.5346 195.7 80.2996L209.3 68.9996C216 63.2996 223.2 58.2996 237.3 58.2996C249.2 58.2996 255.9 62.0996 262.1 66.5996L265.4 68.9996L266.8 70.0996C274.1 75.5996 282 80.9996 297 80.9996C312 80.9996 319.3 75.9996 326.4 70.6996L328.6 68.9996L331.1 67.0996C337.6 62.3996 344.4 58.2996 356.7 58.2996C369 58.2996 375.6 61.8996 381.5 66.3996L388.3 64.5996L386.2 62.7996Z" fill="#F06FA2"/>
<path d="M353.8 61.6992L429.3 119.899" stroke="#612D46" stroke-width="6" stroke-miterlimit="10" stroke-linecap="round"/>
<path d="M234.8 61.6992L310.3 119.899" stroke="#612D46" stroke-width="6" stroke-miterlimit="10" stroke-linecap="round"/>
<path d="M311.2 61.3988C311.2 61.8014 311.281 62.1998 311.438 62.5705C311.595 62.9411 311.825 63.2764 312.114 63.5563C312.403 63.8362 312.746 64.0551 313.121 64.1998C313.497 64.3446 313.898 64.4122 314.3 64.3988H378.7C373.4 60.8988 366.8 58.2988 356.7 58.2988H314.3C313.893 58.2988 313.49 58.379 313.114 58.5348C312.738 58.6906 312.396 58.9189 312.108 59.2068C311.82 59.4947 311.592 59.8364 311.436 60.2125C311.28 60.5886 311.2 60.9917 311.2 61.3988Z" fill="#6B3143"/>
<path d="M314.3 64.4988C316.012 64.4988 317.4 63.1109 317.4 61.3988C317.4 59.6867 316.012 58.2988 314.3 58.2988C312.588 58.2988 311.2 59.6867 311.2 61.3988C311.2 63.1109 312.588 64.4988 314.3 64.4988Z" fill="#9C4651"/>
<path d="M359.7 61.3988C359.714 60.9965 359.646 60.5956 359.501 60.22C359.356 59.8444 359.138 59.5018 358.858 59.2126C358.578 58.9233 358.242 58.6933 357.872 58.5364C357.501 58.3794 357.103 58.2986 356.7 58.2988C366.8 58.2988 373.4 60.8988 378.7 64.3988H356.7C357.098 64.4128 357.494 64.3448 357.865 64.1989C358.235 64.0531 358.571 63.8326 358.853 63.5512C359.134 63.2698 359.354 62.9335 359.5 62.5632C359.646 62.1929 359.714 61.7966 359.7 61.3988Z" fill="#522539"/>
<path d="M191.9 61.4004C191.886 61.7981 191.954 62.1945 192.1 62.5648C192.246 62.9351 192.466 63.2714 192.748 63.5528C193.029 63.8342 193.366 64.0547 193.736 64.2005C194.106 64.3463 194.502 64.4144 194.9 64.4004H259C253.461 60.7468 247.03 58.6725 240.4 58.4004H194.9C194.105 58.4004 193.342 58.7165 192.779 59.2791C192.216 59.8417 191.9 60.6047 191.9 61.4004Z" fill="#6B3143"/>
<path d="M194.9 64.4988C196.612 64.4988 198 63.1109 198 61.3988C198 59.6867 196.612 58.2988 194.9 58.2988C193.188 58.2988 191.8 59.6867 191.8 61.3988C191.8 63.1109 193.188 64.4988 194.9 64.4988Z" fill="#9C4651"/>
<path d="M237.3 64.3988H259C253.228 60.5982 246.508 58.4855 239.6 58.2988H237.3C238.122 58.2988 238.91 58.6254 239.492 59.2068C240.073 59.7882 240.4 60.5767 240.4 61.3988C240.4 61.8014 240.319 62.1998 240.162 62.5705C240.005 62.9411 239.775 63.2764 239.486 63.5563C239.197 63.8362 238.854 64.0551 238.479 64.1998C238.103 64.3446 237.702 64.4122 237.3 64.3988Z" fill="#522539"/>
<path d="M289.3 103.599C274.9 110.399 235.9 113.499 211.2 64.3988C223.5 106.099 251.2 129.899 276.7 129.899C302.2 129.899 329.9 106.099 342.2 64.3988C367.7 184.799 460.9 176.399 465.8 62.7988C491.8 122.899 514.4 133.299 534.8 107.099" stroke="#735980" stroke-width="2.5" stroke-linecap="round" stroke-linejoin="round"/>
<path d="M241.3 70.9992L241.9 60.6992" stroke="#522539" stroke-width="3" stroke-miterlimit="10" stroke-linecap="round"/>
<path d="M247.6 61L237.3 68.2" stroke="#522539" stroke-width="3" stroke-miterlimit="10" stroke-linecap="round"/>
<path d="M362 70.9992L362.6 60.6992" stroke="#522539" stroke-width="3" stroke-miterlimit="10" stroke-linecap="round"/>
<path d="M368.3 61L358 68.2" stroke="#522539" stroke-width="3" stroke-miterlimit="10" stroke-linecap="round"/>
<path d="M548.7 119.9V76.9004" stroke="#612D46" stroke-width="6" stroke-miterlimit="10" stroke-linecap="round"/>
<path d="M473.2 61.6992L548.7 119.899" stroke="#612D46" stroke-width="6" stroke-miterlimit="10" stroke-linecap="round"/>
<path d="M481.4 70.9992L481.9 60.6992" stroke="#522539" stroke-width="3" stroke-miterlimit="10" stroke-linecap="round"/>
<path d="M487.6 61L477.4 68.2" stroke="#522539" stroke-width="3" stroke-miterlimit="10" stroke-linecap="round"/>
<path d="M391.1 54.2988L396.4 56.2988H385.8L381.1 54.2988H391.1Z" fill="#D94C86"/>
<path d="M399.3 59.9004L403.8 62.8004H409L404.3 59.9004H399.3Z" fill="#E85A94"/>
<path d="M534.8 52.5996C550.8 52.5996 559.3 58.4996 566.5 64.5996L580.1 75.8996C580.387 76.1397 580.622 76.4348 580.793 76.7674C580.963 77.1001 581.066 77.4635 581.094 77.8363C581.122 78.2091 581.075 78.5838 580.956 78.9381C580.836 79.2925 580.648 79.6194 580.4 79.8996C580.147 80.2441 579.815 80.5234 579.433 80.7147C579.05 80.9059 578.628 81.0036 578.2 80.9996H519.4C519.828 81.0036 520.25 80.9059 520.633 80.7147C521.015 80.5234 521.347 80.2441 521.6 79.8996C521.842 79.6131 522.024 79.281 522.135 78.9229C522.246 78.5648 522.284 78.188 522.246 77.815C522.209 77.4419 522.097 77.0802 521.918 76.7511C521.738 76.4221 521.494 76.1326 521.2 75.8996L510 66.5996L507.7 64.5996L505.5 62.7996C498.7 57.3996 490.5 52.5996 476 52.5996H534.8Z" fill="#DE548C"/>
<path d="M521.2 75.9004H580.1C580.387 76.1405 580.622 76.4356 580.793 76.7682C580.964 77.1008 581.066 77.4643 581.094 77.8371C581.122 78.2099 581.075 78.5846 580.956 78.9389C580.837 79.2933 580.648 79.6202 580.4 79.9004C580.147 80.2449 579.815 80.5242 579.433 80.7155C579.05 80.9067 578.628 81.0044 578.2 81.0004H519.4C519.828 81.0044 520.25 80.9067 520.633 80.7155C521.015 80.5242 521.347 80.2449 521.6 79.9004C521.842 79.6139 522.024 79.2817 522.135 78.9236C522.246 78.5656 522.284 78.1888 522.247 77.8158C522.209 77.4427 522.098 77.0809 521.918 76.7519C521.738 76.4229 521.494 76.1333 521.2 75.9004Z" fill="#B03A73"/>
<path d="M534.8 67.0996L545.6 75.4996H579.5L569.5 67.0996H534.8Z" fill="#D94C86"/>
<path d="M521.2 75.8996L510 66.5996L507.7 64.5996L505.5 62.7996C498.7 57.3996 490.5 52.5996 476 52.5996C461.5 52.5996 453.1 57.9996 445.8 63.5996L444.5 64.4996L441 67.0996C434.9 71.5996 428.1 75.2996 416.4 75.2996C404.7 75.2996 397.1 71.1996 390.7 66.3996L388.2 64.4996L386 62.7996C378.9 57.5996 371 52.5996 356.7 52.5996V58.2996C368.5 58.2996 375.3 62.0996 381.5 66.5996L384.8 68.9996L386.1 70.0996C393.5 75.5996 401.4 80.9996 416.4 80.9996C431.4 80.9996 438.7 75.9996 445.8 70.6996L447.9 68.9996L450.5 67.0996C456.9 62.3996 463.7 58.2996 476 58.2996C488.3 58.2996 494.9 61.8996 500.8 66.3996L504.1 68.9996L505.4 70.0996L517.6 80.2996C518.093 80.7469 518.734 80.9962 519.4 80.9996C519.828 81.0036 520.25 80.9059 520.633 80.7147C521.015 80.5234 521.347 80.2441 521.6 79.8996C521.842 79.6131 522.024 79.281 522.135 78.9229C522.246 78.5648 522.284 78.188 522.247 77.815C522.209 77.4419 522.097 77.0802 521.918 76.7511C521.738 76.4221 521.494 76.1326 521.2 75.8996Z" fill="#F06FA2"/>
<path d="M518.6 63.1992H542.6L551 70.0992H526.8L518.6 63.1992Z" fill="#CC4D80"/>
<path d="M528.6 52.5996L533.9 54.5996H523.3L518.6 52.5996H528.6Z" fill="#E85A94"/>
<path d="M505.9 55.9004L510.5 58.9004H515.6L510.9 55.9004H505.9Z" fill="#E85A94"/>
<path d="M430.6 61.3988C430.599 61.8014 430.68 62.1998 430.837 62.5705C430.994 62.9411 431.224 63.2764 431.513 63.5563C431.803 63.8362 432.145 64.0551 432.521 64.1998C432.896 64.3446 433.297 64.4122 433.7 64.3988H498.1C492.7 60.8988 486.2 58.2988 476 58.2988H433.7C432.877 58.2988 432.089 58.6254 431.508 59.2068C430.926 59.7882 430.6 60.5767 430.6 61.3988Z" fill="#6B3143"/>
<path d="M433.7 64.4988C435.412 64.4988 436.8 63.1109 436.8 61.3988C436.8 59.6867 435.412 58.2988 433.7 58.2988C431.988 58.2988 430.6 59.6867 430.6 61.3988C430.6 63.1109 431.988 64.4988 433.7 64.4988Z" fill="#9C4651"/>
<path d="M479.1 61.3988C479.1 60.9917 479.02 60.5886 478.864 60.2125C478.708 59.8364 478.48 59.4947 478.192 59.2068C477.904 58.9189 477.562 58.6906 477.186 58.5348C476.81 58.379 476.407 58.2988 476 58.2988C486.2 58.2988 492.7 60.8988 498.1 64.3988H476C476.402 64.4122 476.803 64.3446 477.179 64.1998C477.554 64.0551 477.897 63.8362 478.186 63.5563C478.476 63.2764 478.705 62.9411 478.862 62.5705C479.019 62.1998 479.1 61.8014 479.1 61.3988Z" fill="#522539"/>
<path d="M784 26.5L241.6 26.5V2.1C241.6 1.56957 241.811 1.06086 242.186 0.685787C242.561 0.310715 243.07 0.1 243.6 0.1L781.9 0.1C782.43 0.1 782.939 0.310715 783.314 0.685787C783.689 1.06086 783.9 1.56957 783.9 2.1V26.5H784Z" fill="#E46A9B"/>
<path d="M447.3 11.8L442.7 26.5H455L474.8 10.4L463.4 0H455.6L447.3 11.8Z" fill="#E36899"/>
<path d="M375.9 13.2004L401.3 10.4004L398.1 26.5004H388.3L375.9 13.2004Z" fill="#EB6EA0"/>
<path d="M531.5 0L513.7 16.7L508.3 12.4L515.6 0H531.5Z" fill="#E86D9E"/>
<path d="M784 26.5L588.5 26.5V2.1C588.5 1.56957 588.711 1.06086 589.086 0.685787C589.461 0.310715 589.97 0.1 590.5 0.1L781.9 0.1C782.43 0.1 782.939 0.310715 783.314 0.685787C783.689 1.06086 783.9 1.56957 783.9 2.1V26.5H784Z" fill="#C45999"/>
<path d="M671.7 1.69922L677.3 8.39922L670.2 7.59922L671.7 1.69922Z" fill="#C25194"/>
<path d="M605.2 0L601.6 12.6L606.1 10.9L615.6 0H605.2Z" fill="#C95F9F"/>
<path d="M710.3 10.3L695.1 16.7L686.3 26.5H715.9L734.8 0H723.9L710.3 10.3Z" fill="#C95F9F"/>
<path d="M784 26.5V27.7C779.6 27.7 774.2 29.8 772.2 33.9H253.4C251.4 29.8 246 27.7 241.6 27.7V26.5H784Z" fill="#C84B8B"/>
<path d="M784 26.5V27.7C779.6 27.7 774.2 29.8 772.2 33.9H600.3C598.3 29.8 592.9 27.7 588.5 27.7V26.5H784Z" fill="#B03A73"/>
<path d="M241.7 6.30078L592.7 6.30078V4.03078L241.7 4.03078V6.30078Z" fill="#E49B9B"/>
<path d="M241.7 22.4004L592.7 22.4004V20.1304L241.7 20.1304V22.4004Z" fill="#E49B9B"/>
<path d="M588.5 6.30078L784 6.30078V4.03078L588.5 4.03078V6.30078Z" fill="#C46999"/>
<path d="M588.5 22.4004L784 22.4004V20.1304L588.5 20.1304V22.4004Z" fill="#C46999"/>
<path d="M512.4 451.5L0.000366211 451.5V426.4C0.000366211 425.843 0.22168 425.309 0.615479 424.915C1.00931 424.521 1.54346 424.3 2.1004 424.3L510.3 424.3C510.576 424.3 510.849 424.354 511.104 424.46C511.359 424.565 511.59 424.72 511.785 424.915C511.98 425.11 512.135 425.342 512.241 425.596C512.346 425.851 512.4 426.124 512.4 426.4V451.5Z" fill="#E46A9B"/>
<path d="M142.4 451.501L152.1 439.801L164.9 435.501L169.5 424.301H198.6L185.2 437.901L192.1 443.001L187.4 451.501H142.4Z" fill="#E36497"/>
<path d="M245.8 424.301L235.7 436.501L247.1 439.801L271.1 424.301H245.8Z" fill="#E86D9E"/>
<path d="M589.4 426.301H528.4V282.201C528.4 281.925 528.455 281.652 528.56 281.397C528.666 281.142 528.82 280.911 529.015 280.716C529.21 280.521 529.442 280.366 529.697 280.261C529.951 280.155 530.225 280.101 530.5 280.101H589.4V426.301Z" fill="#F079AA"/>
<path d="M589.4 451.5H429.2V426.4C429.2 425.843 429.422 425.309 429.815 424.915C430.209 424.521 430.743 424.3 431.3 424.3H589.3V451.5H589.4Z" fill="#C45999"/>
<path d="M512.4 451.5V452.8C507.9 452.8 502.3 454.9 500.3 459.2H12.1C10 454.9 4.5 452.8 0 452.8V451.5H512.4Z" fill="#C84B8B"/>
<path d="M589.4 451.5V452.8C584.9 452.8 579.3 454.9 577.3 459.2H441.4C439.3 454.9 433.8 452.8 429.2 452.8V451.5H589.4Z" fill="#B03A73"/>
<path d="M828.7 307.301V308.601C824.2 308.601 818.6 310.701 816.6 314.901H589.4V307.301H828.7Z" fill="#B03A73"/>
<path d="M0.000183105 430.699L429.2 430.699V428.359L0.000183105 428.359V430.699Z" fill="#E49B9B"/>
<path d="M0.000183105 447.4L429.2 447.4V445.06L0.000183105 445.06V447.4Z" fill="#E49B9B"/>
<path d="M429.3 430.699H568.7V428.359H429.3V430.699Z" fill="#C46999"/>
<path d="M429.3 447.4H585.3V445.06H429.3V447.4Z" fill="#C46999"/>
<path d="M562.2 424.4V302.2C562.2 301.458 562.495 300.746 563.02 300.22C563.545 299.695 564.258 299.4 565 299.4H589.4V424.4H562.2Z" fill="#C45999"/>
<path d="M828.7 307.301L562.2 307.301V282.601C562.2 281.938 562.463 281.302 562.932 280.833C563.401 280.364 564.037 280.101 564.7 280.101L826.5 280.101C827.11 280.101 827.695 280.343 828.126 280.774C828.557 281.206 828.8 281.791 828.8 282.401V307.301H828.7Z" fill="#C45999"/>
<path d="M566.4 286.6L828.7 286.6V284.26L566.4 284.26V286.6Z" fill="#C46999"/>
<path d="M583 303.1L828.7 303.1V300.76L583 300.76V303.1Z" fill="#C46999"/>
<path d="M566.3 284.201V430.801H568.64V284.201H566.3Z" fill="#C46999"/>
<path d="M582.9 300.8V447.4H585.24V300.8H582.9Z" fill="#C46999"/>
<path d="M585.1 93.5996L587.1 101.2H601.6V93.5996H585.1Z" fill="#F8AB64"/>
<path d="M657.3 134.4V231.1H713.6V134.4H657.3ZM706.8 224H664.2V141.5H706.8V224Z" fill="#C9795F"/>
<path d="M706.7 141.5H697.5V224.03H706.7V141.5Z" fill="#944751"/>
<path d="M664.1 224.1H697.5V141.57H664.1V224.1Z" fill="#803C44"/>
<path d="M698.6 208.901L699.7 203.801H684.7L685.7 208.901C683.3 211.401 678.6 216.701 685.7 224.001H698.6C705.7 216.701 701 211.401 698.6 208.901Z" fill="#733545"/>
<path d="M677.7 195.699H668.9V224.029H677.7V195.699Z" fill="#733545"/>
<path d="M764.7 334.801H738.1C734.676 334.801 731.9 337.556 731.9 340.956C731.9 344.355 734.676 347.111 738.1 347.111H764.7C768.125 347.111 770.9 344.355 770.9 340.956C770.9 337.556 768.125 334.801 764.7 334.801Z" fill="#9C5757"/>
<path d="M711.9 334.801H685.3C681.875 334.801 679.1 337.556 679.1 340.956C679.1 344.355 681.875 347.111 685.3 347.111H711.9C715.324 347.111 718.1 344.355 718.1 340.956C718.1 337.556 715.324 334.801 711.9 334.801Z" fill="#9C5757"/>
<path d="M659 334.801H632.4C628.976 334.801 626.2 337.556 626.2 340.956C626.2 344.355 628.976 347.111 632.4 347.111H659C662.424 347.111 665.2 344.355 665.2 340.956C665.2 337.556 662.424 334.801 659 334.801Z" fill="#9C5757"/>
<path d="M764.7 347.001C768.069 347.001 770.8 344.27 770.8 340.901C770.8 337.532 768.069 334.801 764.7 334.801C761.331 334.801 758.6 337.532 758.6 340.901C758.6 344.27 761.331 347.001 764.7 347.001Z" fill="#8A4C4C"/>
<path d="M817.9 334.801H791.3C787.875 334.801 785.1 337.556 785.1 340.956C785.1 344.355 787.875 347.111 791.3 347.111H817.9C821.324 347.111 824.1 344.355 824.1 340.956C824.1 337.556 821.324 334.801 817.9 334.801Z" fill="#9C5757"/>
<path d="M817.9 347.001C821.269 347.001 824 344.27 824 340.901C824 337.532 821.269 334.801 817.9 334.801C814.531 334.801 811.8 337.532 811.8 340.901C811.8 344.27 814.531 347.001 817.9 347.001Z" fill="#8A4C4C"/>
<path d="M711.9 347.001C715.269 347.001 718 344.27 718 340.901C718 337.532 715.269 334.801 711.9 334.801C708.531 334.801 705.8 337.532 705.8 340.901C705.8 344.27 708.531 347.001 711.9 347.001Z" fill="#8A4C4C"/>
<path d="M659 347.001C662.369 347.001 665.1 344.27 665.1 340.901C665.1 337.532 662.369 334.801 659 334.801C655.631 334.801 652.9 337.532 652.9 340.901C652.9 344.27 655.631 347.001 659 347.001Z" fill="#8A4C4C"/>
<path d="M282.7 13.2004L292.1 10.4004L296.1 15.4004L282.7 13.2004Z" fill="#EB6EA0"/>
<path d="M493.2 0L487.1 4L484.5 0H493.2Z" fill="#DE548C"/>
<path d="M359.5 10.4004L357.5 13.2004L363.1 10.4004H359.5Z" fill="#F078A8"/>
<path d="M52.5004 435.1L51.4004 439.1L58.6004 435.8L52.5004 435.1Z" fill="#E36497"/>
<path d="M90.5 424.301L91.6 426.501L95.6 424.301H90.5Z" fill="#E35B91"/>
<path d="M298.9 440.599L294.2 435.199H303.2L298.9 440.599Z" fill="#E35B91"/>
<path d="M562.2 312.199L547.1 326.199L528.3 336.499V357.499L551.2 336.999L562.2 321.599V312.199Z" fill="#F082AF"/>
<path d="M528.3 287.801L530.2 290.601L532.4 291.001L528.3 296.001V287.801Z" fill="#E06999"/>
<path d="M547 360.199V363.599H552L547 360.199Z" fill="#F082AF"/>
<path d="M540.7 395.801V398.501H545.3L540.7 395.801Z" fill="#F082AF"/>
<path d="M547 305.6L545.3 308.8H548.3L547 305.6Z" fill="#F082AF"/>
<path d="M237.3 123.4H233.2V150.29H237.3V123.4Z" fill="#FFD380"/>
<path d="M288 153.701L279.7 146.901V142.301L288 149.101V153.701Z" fill="#FFC485"/>
<path d="M233.2 126L237.3 129.3V136.6L233.2 130.8V126Z" fill="#FFE2AB"/>
<path d="M669.2 57.4004L661.6 62.8004L676 67.1004L677 60.3004L669.2 57.4004Z" fill="#D69196"/>
<path d="M630 157.4L635.6 176.8L626.7 180.2L614.2 168.8L630 157.4Z" fill="#D99398"/>
<path d="M621.1 78.0996L631.7 85.9996L623.4 83.9996L621.1 78.0996Z" fill="#D99398"/>
<path d="M700.7 8.40039L708.2 16.9004L695.2 12.6004L700.7 8.40039Z" fill="#C45999"/>
<path d="M641.1 9.69922L635.3 14.2992L647.1 13.1992L641.1 9.69922Z" fill="#C95F9F"/>
<path d="M750.8 10.9004L755.9 16.9004L756.9 8.40039L750.8 10.9004Z" fill="#C95F9F"/>
<path d="M950 495.8C936.1 434.3 859.8 436.7 859.8 436.7C845.9 387.1 791.4 378.6 769.7 408.3C736.4 408.9 683.7 428.4 702.5 495.8H950Z" fill="#30868C"/>
<path d="M711.901 472.5C681.301 462 647.401 469.1 648.401 495.8H720.401L711.901 472.5Z" fill="#30868C"/>
<path d="M743.9 438.7C760.1 423.3 791.3 416.3 816.3 414.8C805.6 399 787.2 402.3 769.7 408.3C759.259 408.449 748.916 410.341 739.1 413.9C742.9 417.4 745.7 424.9 743.9 438.7Z" fill="#349E95"/>
<path d="M785.3 417.9C766.9 429.2 764.4 437.3 764.4 437.3C783.9 427.6 800.1 428.4 810.1 429.5C809.3 422.5 802.3 413.3 790.6 412.5L785.3 417.9Z" fill="#349E95"/>
<path d="M797.9 470.201C814 444.901 854.7 443.501 871.3 451.201C851.4 455.701 837.3 473.501 837.3 473.501C825.7 469.801 797.9 470.201 797.9 470.201Z" fill="#349E95"/>
<path d="M854.9 451.3C852.8 439.9 843.3 431.2 835.3 428.5C844.7 438.4 840.8 452.6 840.8 452.6L854.9 451.3Z" fill="#349E95"/>
<path d="M762.3 449.3C763.515 449.3 764.5 448.315 764.5 447.1C764.5 445.885 763.515 444.9 762.3 444.9C761.085 444.9 760.1 445.885 760.1 447.1C760.1 448.315 761.085 449.3 762.3 449.3Z" fill="#349E95"/>
<path d="M802.4 438.7C803.836 438.7 805 437.536 805 436.1C805 434.664 803.836 433.5 802.4 433.5C800.964 433.5 799.8 434.664 799.8 436.1C799.8 437.536 800.964 438.7 802.4 438.7Z" fill="#349E95"/>
<path d="M785.3 451.8C785.686 451.8 786 451.487 786 451.1C786 450.714 785.686 450.4 785.3 450.4C784.913 450.4 784.6 450.714 784.6 451.1C784.6 451.487 784.913 451.8 785.3 451.8Z" fill="#349E95"/>
<path d="M859.3 464.201C859.962 464.201 860.5 463.664 860.5 463.001C860.5 462.338 859.962 461.801 859.3 461.801C858.637 461.801 858.1 462.338 858.1 463.001C858.1 463.664 858.637 464.201 859.3 464.201Z" fill="#349E95"/>
<path d="M787.3 410.1L780.9 414.8L791.2 415.7L787.3 410.1Z" fill="#39AD96"/>
<path d="M849.2 410.1L842.8 414.8L853.2 415.7L849.2 410.1Z" fill="#256D7D"/>
<path d="M759.6 404.199L747.5 408.799L756.6 414.899L759.6 404.199Z" fill="#349E95"/>
<path d="M782.1 403.699L778.9 405.999L784.1 406.499L782.1 403.699Z" fill="#256D7D"/>
<path d="M768.7 411.699L767.2 416.499L772.8 412.999L768.7 411.699Z" fill="#39AD96"/>
<path d="M849.5 450.199L848 454.999L853.6 451.499L849.5 450.199Z" fill="#39AD96"/>
<path d="M840.8 454L833.8 451.1L833.7 457.8L840.8 454Z" fill="#39AD96"/>
<path d="M818.1 452.301L809.7 455.001L817.5 460.801L818.1 452.301Z" fill="#39AD96"/>
<path d="M851.6 462.599L844.5 459.699L844.4 466.399L851.6 462.599Z" fill="#256D7D"/>
<path d="M828 468.199L818.8 469.299L826.5 476.799L828 468.199Z" fill="#256D7D"/>
<path d="M795.2 409.3C795.973 409.3 796.6 408.673 796.6 407.9C796.6 407.127 795.973 406.5 795.2 406.5C794.427 406.5 793.8 407.127 793.8 407.9C793.8 408.673 794.427 409.3 795.2 409.3Z" fill="#256D7D"/>
<path d="M880.4 461.801C881.173 461.801 881.8 460.905 881.8 459.801C881.8 458.696 881.173 457.801 880.4 457.801C879.627 457.801 879 458.696 879 459.801C879 460.905 879.627 461.801 880.4 461.801Z" fill="#31A388"/>
<path d="M775.4 440.601H786L778.9 437.301L775.4 440.601Z" fill="#349E95"/>
<path d="M818.8 424.9L822.3 421V424.9H818.8Z" fill="#31A388"/>
<path d="M943.6 495.8C935.1 489.8 919.3 477.7 897.6 485.7C876.8 477.5 851.8 474.4 837.3 495.8H943.6Z" fill="#256D7D"/>
<path d="M890.5 480.699L882.7 476.699L884.1 486.299L890.5 480.699Z" fill="#349E95"/>
<path d="M905.8 475.6L901.5 481.6L910.9 479.4L905.8 475.6Z" fill="#256D7D"/>
<path d="M858 475.5L880.4 490.9L837.3 495.8V486.2L858 475.5Z" fill="#30868C"/>
<path d="M720.4 431.399C720.4 431.399 726.3 430.999 726.5 439.799L720.4 431.399Z" fill="#329191"/>
<path d="M714.2 464.701C717.5 454.301 726.8 454.201 730.4 456.601L714.2 464.701Z" fill="#329191"/>
<path d="M687.3 495.799C699.2 478.099 717.8 469.499 743.5 468.199C734.2 476.099 733.6 478.599 733.6 478.599C761 474.399 779.5 486.299 784.7 495.799H687.3Z" fill="#256D7D"/>
<path d="M664.5 482L676.7 471.1C676.7 471.1 662.7 471 664.5 482Z" fill="#329191"/>
<path d="M685.5 470.099L680.4 464.699H688.3L685.5 470.099Z" fill="#329191"/>
<path d="M757.5 441.5C749.1 441.7 743.2 447.4 743.9 456.6L757.5 441.5Z" fill="#256D7D"/>
<path d="M765.4 466.4H772.8L769.1 470.1L765.4 466.4Z" fill="#329191"/>
<path d="M716.1 488.4C717.149 488.4 718 487.549 718 486.5C718 485.45 717.149 484.6 716.1 484.6C715.051 484.6 714.2 485.45 714.2 486.5C714.2 487.549 715.051 488.4 716.1 488.4Z" fill="#30868C"/>
<path d="M669.4 489.5C670.063 489.5 670.6 488.962 670.6 488.3C670.6 487.637 670.063 487.1 669.4 487.1C668.737 487.1 668.2 487.637 668.2 488.3C668.2 488.962 668.737 489.5 669.4 489.5Z" fill="#349E95"/>
<path d="M714.2 445.4C715.249 445.4 716.1 444.549 716.1 443.5C716.1 442.45 715.249 441.6 714.2 441.6C713.15 441.6 712.3 442.45 712.3 443.5C712.3 444.549 713.15 445.4 714.2 445.4Z" fill="#39AD96"/>
<path d="M221.4 302H200.4V302.49H221.4V302Z" fill="#913945"/>
<path d="M221.5 304H198.6V304.49H221.5V304Z" fill="#913945"/>
<path d="M221.5 306.199H198.6V306.689H221.5V306.199Z" fill="#913945"/>
<path d="M323.9 300.301H299.7V307.381H323.9V300.301Z" fill="#BA4E5D"/>
<path d="M306.6 300.301L304.7 305.201H301.6L303.6 300.301H306.6Z" fill="#D65A6B"/>
<path d="M323.8 300.301H309.9V307.381H323.8V300.301Z" fill="#AD4452"/>
<path d="M323.9 301.699H301.7V302.219H323.9V301.699Z" fill="#913945"/>
<path d="M323.9 303.801H299.7V304.321H323.9V303.801Z" fill="#913945"/>
<path d="M323.9 306.1H299.7V306.62H323.9V306.1Z" fill="#913945"/>
<path d="M198.7 343.799C191.1 376.899 192.4 373.599 193.8 377.899C195.2 382.199 195.8 382.499 197.4 373.599C199 364.699 199.9 357.099 200.9 348.699C201.9 340.299 201.3 332.199 198.7 343.799Z" fill="#1A40A1"/>
<path d="M241.6 417.8C245.918 416.183 250.326 414.814 254.8 413.7C257.1 413.2 257.9 413 258.9 406.8C259.9 400.6 260.3 393.6 260.5 392.2C260.7 390.8 255.7 398.5 251.9 403.9C248.1 409.3 236.2 419.9 241.6 417.8Z" fill="#1A3578"/>
<path d="M142.7 256.5L145.3 258.2C145.706 258.459 146.163 258.63 146.639 258.699C147.116 258.769 147.602 258.737 148.066 258.604C148.529 258.472 148.959 258.243 149.327 257.931C149.695 257.62 149.993 257.234 150.2 256.8L151 255.1" stroke="#BA4173" stroke-width="2" stroke-miterlimit="10" stroke-linecap="round"/>
<path d="M111.3 256.801C108.9 256.201 106 255.401 104.8 255.301C105.942 256.62 107.382 257.648 109 258.301L108.6 258.701L114.8 258.401C117 258.101 116.1 257.901 111.3 256.801Z" fill="#F071AB"/>
<path d="M108.992 243.986C110.565 242.281 111.314 240.413 110.664 239.814C110.015 239.215 108.213 240.111 106.64 241.816C105.067 243.52 104.318 245.388 104.968 245.987C105.617 246.587 107.419 245.691 108.992 243.986Z" fill="#FFA1BD"/>
<path d="M108.6 296.6L114.1 294.3C115.2 293.9 114.2 293.5 111.7 292.4C109.2 291.3 108.7 290.9 108.5 293.1C108.3 295.3 107.5 297 108.6 296.6Z" fill="#FAD596"/>
<path d="M115 295.5C109.5 297 109.4 297.7 109.3 298.7C109.2 299.7 109.2 300.5 111.3 299C113.019 297.69 114.861 296.551 116.8 295.6C117.8 295.2 117.3 294.8 115 295.5Z" fill="#F7D08D"/>
<path d="M122.2 295.4C123.3 289.8 123.2 288.3 123.6 288.2C124 288.1 125 289.5 125.8 291.2C126.6 292.9 122.2 295.4 122.2 295.4Z" fill="#172E5C"/>
<path d="M117.3 296.401C113.9 297.801 112.8 300.101 114.9 307.401H115.5C113.8 296.301 118.6 296.301 120.8 296.101C119.629 295.849 118.41 295.954 117.3 296.401Z" fill="#F278B0"/>
<path d="M133.8 298.5C135.2 299.2 134.6 300.7 133.5 303C132.4 305.3 131.8 306.3 131.3 307.4H135.3L136.9 305.8C138.4 303.9 138.5 303.1 137.4 301.6C136.3 300.1 135.3 299 133.8 298.5Z" fill="#F278B0"/>
<path d="M171.6 298.401C171.54 297.452 171.254 296.53 170.767 295.713C170.28 294.896 169.606 294.206 168.8 293.701C168.8 293.701 165 291.401 161.8 289.801C159.918 291.508 158.36 293.54 157.2 295.801C156.787 296.508 156.515 297.289 156.4 298.101L157.6 299.001C158.888 300.324 160.09 301.726 161.2 303.201C161.895 304.172 162.873 304.906 164 305.301C165.352 305.686 166.793 305.616 168.1 305.101C169.225 304.576 170.162 303.72 170.788 302.648C171.413 301.576 171.697 300.338 171.6 299.101V298.401Z" fill="#F073AB"/>
<path d="M154.27 287.495L149.445 285.068L146.875 290.178L151.699 292.605L154.27 287.495Z" fill="#AD3B4B"/>
<path d="M349.5 213.1C348.973 212.715 348.321 212.542 347.672 212.616C347.024 212.691 346.427 213.006 346 213.5C345.684 213.884 345.313 214.221 344.9 214.5L346.5 217.5C347.94 216.87 349.313 216.1 350.6 215.2C350.597 214.787 350.495 214.382 350.304 214.017C350.112 213.652 349.837 213.337 349.5 213.1Z" fill="#B5CDFF"/>
<path d="M341 219.9V219C338.709 219.265 336.405 219.399 334.1 219.4C334.1 219.4 335.5 220.4 341 219.9Z" fill="#B5CDFF"/>
<path d="M346.8 210.699L352.6 211.799C352.6 211.799 351.6 207.699 346.8 210.699Z" fill="#3366E0"/>
<path d="M332.5 232.201C335.5 236.701 344.3 238.201 348.2 233.101C350.1 230.501 345.3 230.101 340.5 229.901C335.7 229.701 330.8 229.701 332.5 232.201Z" fill="#3366E0"/>
<path d="M329.9 219L332.1 225.3C332.1 225.3 327.9 224 329.9 219Z" fill="#3366E0"/>
<path d="M335.285 191.215C336.054 190.002 336.338 188.803 335.918 188.537C335.499 188.271 334.535 189.038 333.765 190.25C332.996 191.462 332.712 192.661 333.132 192.928C333.552 193.194 334.516 192.427 335.285 191.215Z" fill="#78ACFA"/>
<path d="M367.8 196.299C366.295 197.59 364.891 198.995 363.6 200.499C363 201.299 363.3 202.399 362.9 203.999C362.5 205.599 362 207.299 363.1 206.499C363.707 206.16 364.196 205.642 364.5 205.016C364.804 204.391 364.908 203.687 364.8 202.999C364.5 201.399 364.5 201.499 365.7 200.599C367.008 199.544 368.066 198.212 368.8 196.699C369.6 194.799 370 194.399 367.8 196.299Z" fill="#204FBF"/>
<path d="M364.2 212.6C362.7 213.6 362.4 212.8 361.9 211.5C361.4 210.2 361.2 210 362.2 210.2C362.674 210.311 363.166 210.305 363.637 210.183C364.107 210.061 364.541 209.827 364.9 209.5C365.1 210.6 365 212 364.2 212.6Z" fill="#2158DE"/>
<path d="M376.1 218.4C369.4 221.5 366.5 223.3 363.6 224.8C360.7 226.3 361.1 225.8 360.7 229.1C360.3 232.4 360.4 231.9 365.9 228C371.4 224.1 373.1 222.8 375.5 220.8C377.9 218.8 379.5 216.9 376.1 218.4Z" fill="#D43545"/>
<path d="M367 219.4C369 218 369.6 217.6 366.8 215.4L367 219.4Z" fill="#A63843"/>
<path d="M349.8 245.099C343.9 248.399 342.6 249.199 341.5 248.999C340.4 248.799 337.8 246.599 336.3 245.099C334.8 243.599 333.5 242.399 334.1 243.599C337 249.899 339.2 253.299 341.9 255.699C344.6 258.099 346.6 260.799 357 251.599C359.8 249.199 362 246.899 363.9 244.999C364.757 241.668 365.826 238.394 367.1 235.199L349.8 245.099Z" fill="#D93B4C"/>
<path d="M389 226.9C384.708 225.211 380.021 224.795 375.5 225.7C372.7 226.5 374.2 225.3 376.7 224.6C379.2 223.9 383.9 222.5 388.4 225.3L389 226.9Z" fill="#D43545"/>
<path d="M325.4 233.699L324.6 233.999C324.6 233.999 325.2 236.699 326.4 240.499C332.1 253.899 336.6 259.099 338.5 259.499C340.4 259.899 341.1 259.899 339.7 258.599C335.9 254.999 332.9 251.199 325.4 233.699Z" fill="#E84D5C"/>
<path d="M362.3 250.801C357.5 256.701 353.2 260.501 350.1 262.001C347 263.501 341.7 265.601 336.3 260.801C337.565 262.426 339.169 263.757 341 264.701C342.174 265.175 343.376 265.576 344.6 265.901C346.539 265.729 348.434 265.222 350.2 264.401C354.8 262.401 358.8 257.801 361.4 254.101L362.3 250.801Z" fill="#D43545"/>
<path d="M357.9 234.6C352.2 239.4 344.7 241.6 337.5 239.4C342.3 244.4 343.7 245.8 357.9 234.6Z" fill="#590942"/>
<path d="M382.8 228.301C385.516 228.941 388.075 230.12 390.326 231.769C392.576 233.419 394.472 235.504 395.9 237.901C397 234.601 398.1 233.101 392.5 230.601C389.469 229.146 386.161 228.362 382.8 228.301Z" fill="#EB495B"/>
<path d="M371.5 228.699C363.7 234.199 362.5 235.599 362.6 248.399C361.3 249.599 361.6 250.399 362 251.999C378.4 254.399 388 260.699 388 260.699L371.5 228.699Z" fill="#F7E9CB"/>
<path d="M362.6 248.399C362.6 248.399 365.8 246.999 367 246.299C368.2 245.599 368.3 245.599 368.4 244.699C368.5 243.799 368.1 235.099 371.5 228.699C363.7 234.199 362.5 235.599 362.6 248.399Z" fill="white"/>
<path d="M389.1 260.7C391.27 257.186 393.015 253.426 394.3 249.5C395.2 246.7 395.8 247.9 395 252.9C394.2 257.9 393.3 258.7 389.1 260.7Z" fill="#EDC993"/>
<path d="M388 260.7H387.9C387.4 260.3 377.9 254.3 362 252L350.6 291.1L370 298.4L376.1 290.2C379.52 285.41 381.148 279.569 380.7 273.7L380.5 270.5L388 260.7Z" fill="#4D7AE8"/>
<path d="M387.9 260.7C387.4 260.3 380.1 255.7 367.7 253C366.2 267.7 364.9 268.4 363.2 271.8C361.5 275.2 359.7 277.4 358.6 280.8C357.632 284.899 355.752 288.728 353.1 292L370 298.4L376.1 290.2C379.52 285.41 381.148 279.569 380.7 273.7L380.5 270.5L388 260.7H387.9Z" fill="#3467E3"/>
<path d="M373 297.901L365.2 307.401H331.4V306.201C331.407 305.816 331.536 305.443 331.77 305.137C332.004 304.831 332.33 304.608 332.7 304.501C335.4 303.701 341.8 301.701 344.2 300.301C347.4 295.901 348 293.201 349.8 286.801C353.5 287.801 368 291.901 373 297.901Z" fill="#542113"/>
<path d="M379.5 271.801L373.4 277.401C373.4 277.401 379.3 280.501 379.5 271.801Z" fill="#1C53D9"/>
<path d="M339.9 303.801L347.9 301.101L354.5 288.201C352.5 287.501 350.8 287.101 349.8 286.801C348 293.201 347.4 295.901 344.2 300.301H345.9L339.9 303.801Z" fill="#732D1A"/>
<path d="M326.9 259.501L322.7 248.401C322.1 246.901 321.9 247.201 321.3 248.001C320.7 248.801 321.7 251.701 323.3 255.201C324.9 258.701 326.9 259.501 326.9 259.501Z" fill="#EDC993"/>
<path d="M299.2 240.5L290.2 239.1C291.279 247.201 293.928 255.014 298 262.1L298.2 262.4L299.1 263.5C299.642 263.928 300.25 264.266 300.9 264.5L297 256.2C297.957 256.989 298.959 257.724 300 258.4C301.8 259.5 301.7 258.2 301.6 257.4C300.6 250.9 299.2 240.5 299.2 240.5Z" fill="#4D7AE8"/>
<path d="M301.6 261.1L304.6 262.6C304.6 262.6 301.7 264.8 301.6 261.1Z" fill="#1C53D9"/>
<path d="M289.4 214.9L297.7 214.5C298.3 214.5 298 214.7 295.2 215.1L288.4 216.2C288 216.2 287.7 216.3 287.6 215.6C287.5 214.9 288.1 215 289.4 214.9Z" fill="#40180C"/>
<path d="M298 219.1L295.5 219.7C293.824 220.337 292.078 220.774 290.3 221C289.6 221.1 289.1 221.1 290.5 222C291.9 222.9 292.2 223.4 293.8 222.4C295.4 221.4 299.4 218.8 298 219.1Z" fill="#40180C"/>
<path d="M286 218.501C286.7 217.001 286.3 216.401 285.5 215.101C284.7 213.801 284 212.701 285 211.401C286 210.101 285.5 209.301 284.9 207.601C284.3 205.901 284.6 205.001 286.4 203.301L285.8 203.501C284.961 203.635 284.173 203.994 283.522 204.54C282.87 205.085 282.379 205.798 282.1 206.601C281.6 208.101 282.5 208.701 283.8 209.901C285.1 211.101 284 211.101 283.4 212.001C282.912 212.625 282.69 213.417 282.784 214.204C282.878 214.991 283.279 215.709 283.9 216.201C285.6 218.001 282.1 219.601 287.1 222.801C286.561 222.24 286.176 221.549 285.983 220.796C285.79 220.042 285.796 219.251 286 218.501Z" fill="#732D1A"/>
<path d="M304.5 221.799C300.4 225.399 297 228.299 295.5 229.099C294 229.899 294.7 230.399 297.1 232.199C299.5 233.999 300.2 234.499 302.4 230.399C304.6 226.299 307.1 219.399 304.5 221.799Z" fill="#4D1D0F"/>
<path d="M297.1 193.699L295.9 195.599C297.6 195.599 297.1 193.699 297.1 193.699Z" fill="#FF904F"/>
<path d="M296.4 200.8C294.7 200.4 295.2 198.4 297.3 196C299.7 199.1 299.2 201.4 296.4 200.8Z" fill="#FF904F"/>
<path d="M296.8 200.999C296.2 200.899 296.4 200.199 297.2 199.199C298.1 200.399 297.9 201.199 296.8 200.999Z" fill="#F7E9CB"/>
<path d="M416.6 279.801C415.954 278.525 414.874 277.521 413.554 276.971C412.234 276.421 410.761 276.361 409.4 276.801L396.9 280.801H396.8L398.6 280.301C399.502 280.042 400.468 280.136 401.304 280.563C402.139 280.99 402.781 281.718 403.1 282.601L407.4 295.601C407.491 295.89 407.638 296.159 407.833 296.392C408.029 296.624 408.268 296.815 408.538 296.955C408.807 297.094 409.102 297.179 409.404 297.204C409.707 297.229 410.011 297.194 410.3 297.101L422 293.001C422.142 292.947 422.27 292.864 422.379 292.757C422.487 292.651 422.572 292.523 422.628 292.382C422.684 292.241 422.711 292.09 422.706 291.939C422.701 291.787 422.665 291.638 422.6 291.501L416.6 279.801Z" fill="#572214"/>
<path d="M404.2 351.801C404.2 351.801 392.9 357.101 389.7 359.001C386.5 360.901 386.7 361.301 390 361.601C393.761 361.867 397.533 361.934 401.3 361.801C404.5 361.601 405.6 361.901 406 358.701C406.4 355.501 407.4 350.301 404.2 351.801Z" fill="#2C2D57"/>
<path d="M377.6 350.2C377.3 352.8 377.1 353.1 380.1 353.9C382.503 354.447 384.943 354.815 387.4 355C388.8 355.1 389.5 354.5 391.9 353.1C394.3 351.7 394.7 351.4 390.8 350.2C386.9 349 382.7 347.3 380.4 346.7C378.1 346.1 378.2 346.3 377.6 350.2Z" fill="#2C2D57"/>
<path d="M386.8 407.6C387.6 411.9 385.5 415 382.5 417C379.5 419 376.5 419.2 375.7 421.1C375.241 422.109 374.97 423.193 374.9 424.3H406.9L386.8 407.6Z" fill="#8C422A"/>
<path d="M388.6 409.1C389.7 405.6 391.7 405.3 398.9 412.1C406.1 418.9 401 415.5 395.2 413.3C389.4 411.1 390.2 410.8 388.6 412.4C387 414 387.7 412.4 388.6 409.1Z" fill="#7D361F"/>
<path d="M398.5 405.3C401.6 407.6 405.2 410.5 406.4 409.6C407.6 408.7 409.2 406.5 409.4 405.3C409.6 404.1 408.6 404.7 404 404.2C399.4 403.7 396.5 403.8 398.5 405.3Z" fill="#7D361F"/>
<path d="M327.7 409.699C326.8 414.099 323.6 416.699 317.8 418.799C315.1 419.799 314.1 419.799 313.5 421.999C313.259 422.741 313.157 423.521 313.2 424.299H348.1V412.799L327.7 409.699Z" fill="#7D361F"/>
<path d="M178.3 356.801L180.8 359.401C181.146 359.705 181.382 360.114 181.473 360.566C181.563 361.018 181.502 361.487 181.3 361.901L180.1 364.601L178.3 356.801Z" fill="#1C1B29"/>
<path d="M140.7 356.801L140.2 363.201C140.127 363.63 140.173 364.07 140.331 364.475C140.49 364.881 140.755 365.235 141.1 365.501L143.8 368.101L140.7 356.801Z" fill="#1C1B29"/>
<path d="M165.5 359.4L179.9 360.7L175.3 363.1C174.207 363.649 172.974 363.857 171.762 363.697C170.549 363.536 169.413 363.015 168.5 362.2L165.5 359.4Z" fill="#13121C"/>
<path d="M153.4 360.699L144.8 365.099C144.8 365.099 151.2 370.399 153.4 360.699Z" fill="#13121C"/>
<path d="M95.1004 273.3C97.1438 273.3 98.8004 271.644 98.8004 269.6C98.8004 267.557 97.1438 265.9 95.1004 265.9C93.0569 265.9 91.4004 267.557 91.4004 269.6C91.4004 271.644 93.0569 273.3 95.1004 273.3Z" fill="#6E2B17"/>
<path d="M145.7 307.4L150.1 311.2L153 307.4H145.7Z" fill="#DB704C"/>
<path d="M12.5 408.7H24.3L25.8 393.1H14L12.5 408.7Z" fill="#FF9191"/>
<path d="M10.7002 358.899C9.10019 358.599 7.4002 360.199 6.9002 362.599C6.72959 363.529 6.76371 364.484 7.0002 365.399C4.1002 365.399 1.6002 366.599 0.700195 368.899C3.006 367.94 5.53032 367.628 8.0002 367.999C8.0002 367.999 7.4002 362.299 10.9002 358.999C10.9002 358.899 10.8002 358.899 10.7002 358.899Z" fill="#2A858C"/>
<path d="M31.4004 349.8L39.0004 345C37.1004 344 33.8004 345.2 31.4004 349.8Z" fill="#2A858C"/>
<path d="M23.5 361.6C24.5 354 25.3 348.4 28.9 344C22.1 345.2 23.8 351.9 23.5 361.6Z" fill="#2A858C"/>
<path d="M47.8997 355.2C46.9356 357.477 46.7597 360.011 47.3997 362.4L51.9997 352.7C51.1378 352.617 50.2721 352.816 49.5328 353.266C48.7935 353.717 48.2204 354.396 47.8997 355.2Z" fill="#2A858C"/>
<path d="M20.2004 374.9L19.4004 376.6L21.7004 376.2L20.2004 374.9Z" fill="#2A858C"/>
<path d="M30.3998 356L28.2998 358.8H31.3998L30.3998 356Z" fill="#2A858C"/>
<path d="M50.3002 374.9L48.7002 376.6L51.0002 377.2L50.3002 374.9Z" fill="#2A858C"/>
<path d="M28.7998 381.4V384L30.9998 382.7L28.7998 381.4Z" fill="#1A606E"/>
<path d="M23.2002 341C23.3629 341.661 23.6564 342.283 24.0634 342.829C24.4703 343.375 24.9825 343.834 25.5697 344.179C26.1569 344.524 26.8072 344.748 27.4822 344.837C28.1573 344.927 28.8434 344.88 29.5002 344.7C30.1506 344.536 30.7624 344.246 31.3005 343.846C31.8386 343.446 32.2925 342.943 32.6362 342.367C32.9799 341.792 33.2066 341.154 33.3034 340.49C33.4001 339.826 33.3651 339.15 33.2002 338.5L23.2002 341Z" fill="#FFB869"/>
<defs>
<linearGradient id="paint0_linear" x1="429.25" y1="69.0808" x2="429.25" y2="226.081" gradientUnits="userSpaceOnUse">
<stop stop-color="#E8827D"/>
<stop offset="1" stop-color="#E2A395"/>
</linearGradient>
</defs>
</svg>
