<svg width="950" height="452" viewBox="0 0 950 452" fill="none" xmlns="http://www.w3.org/2000/svg">
<path d="M107.9 391.4C71.6 385.9 50.1 401.3 57.6 427.4C34.5 425.5 13.6 436.4 0 451.8H215.7L230.3 394.9C169.6 366.4 132.9 364 107.9 391.4Z" fill="#30868C"/>
<path d="M232.5 451.8H148.7C139.1 435.2 124.3 425 124.3 425C155 416.6 170.5 429.2 170.5 429.2C181.5 416.3 195.9 411.5 213.9 411.5L232.5 451.8Z" fill="#237A85"/>
<path d="M784.4 65.9004C786.9 69.5004 787.9 76.3004 788.9 83.3004C789.9 90.3004 791.3 101.6 789.6 110L784.4 65.9004Z" fill="#C2FFCE"/>
<path d="M584.3 156.4C582 164.4 581.301 166.9 584.201 169.9C587.101 172.9 584.3 156.4 584.3 156.4Z" fill="#7D9FFF"/>
<path d="M572.6 85.5008C575.8 78.6008 575.7 78.3008 581.5 76.3008L573.8 87.2008L572.6 85.5008Z" fill="#FF707E"/>
<path d="M820.8 245.5H370V451.79H820.8V245.5Z" fill="#FECCAF"/>
<path d="M693.2 283.7C689.8 307.9 684.3 302.4 679.5 290.6C674.7 278.8 671.7 266.5 671.6 274C671.5 281.5 677.7 297.2 667.1 305.2C656.5 313.2 652.8 306.2 648.7 294.7C644.6 283.2 638 271.9 633.5 245.5H691.4C691.4 245.5 696.6 259.5 693.2 283.7Z" fill="#ED988D"/>
<path d="M524.1 376.9L568.9 334L572.4 371.9L524.1 426V376.9Z" fill="#FFC3A5"/>
<path d="M715.5 313.001L799.6 279.301L784.8 313.001H715.5Z" fill="#FEC6A5"/>
<path d="M820.9 245.5H370V275.9L820.9 255.5V245.5Z" fill="#ED988D"/>
<path d="M731.1 254.801L731.9 266.501C731.9 266.501 781.6 264.201 797.1 254.801H731.1Z" fill="#ED988D"/>
<path d="M769.2 254.301C770.9 260.001 772.2 261.001 777.6 263.301C783 265.601 792.9 269.901 783.1 251.801L769.2 254.301Z" fill="#ED988D"/>
<path d="M747.2 263.2C748.2 269 749.4 270.2 754.4 273.1C759.4 276 768.8 281.6 761.3 262.4L747.2 263.2Z" fill="#ED988D"/>
<path d="M820.9 335.7L707.6 320L619.5 341.1L616.4 351.4L616.1 245.5H602.9V262H560.9V245.5H547.6L548.4 451.8H561.6V442.6H589L586.2 451.8H820.9V335.7ZM560.9 269.8H603V305.2H561L560.9 269.8ZM561 313H603.2V348.4H561.2L561 313ZM561.2 356.2H603.3V391.6H561.3L561.2 356.2ZM561.4 434.8V399.4H602L591.4 434.8H561.4Z" fill="url(#paint0_linear)"/>
<path d="M736.5 353.6C732.347 353.6 728.286 354.831 724.833 357.139C721.38 359.446 718.688 362.726 717.099 366.563C715.509 370.401 715.093 374.623 715.904 378.697C716.714 382.77 718.714 386.512 721.651 389.449C724.588 392.386 728.329 394.386 732.403 395.196C736.477 396.006 740.699 395.591 744.536 394.001C748.374 392.412 751.653 389.72 753.961 386.267C756.268 382.813 757.5 378.753 757.5 374.6C757.5 369.03 755.288 363.689 751.349 359.75C747.411 355.812 742.07 353.6 736.5 353.6ZM736.5 390C733.454 390 730.477 389.096 727.944 387.404C725.412 385.712 723.438 383.307 722.272 380.493C721.107 377.679 720.802 374.583 721.396 371.595C721.99 368.608 723.457 365.864 725.611 363.71C727.764 361.556 730.508 360.09 733.496 359.496C736.483 358.901 739.579 359.206 742.393 360.372C745.207 361.537 747.612 363.511 749.305 366.044C750.997 368.576 751.9 371.554 751.9 374.6C751.9 378.684 750.278 382.601 747.389 385.489C744.501 388.377 740.584 390 736.5 390Z" fill="#CC8564"/>
<path d="M804.5 392V339.5" stroke="#612D46" stroke-width="8" stroke-miterlimit="10" stroke-linecap="round"/>
<path d="M659.1 392V339.5" stroke="#612D46" stroke-width="8" stroke-miterlimit="10" stroke-linecap="round"/>
<path d="M820.8 290.6H370V297.21H820.8V290.6Z" fill="#F8AB64"/>
<path d="M692 290.6H679.5C680.387 292.882 681.457 295.09 682.7 297.2H690C690.909 295.081 691.58 292.867 692 290.6Z" fill="#DB8669"/>
<path d="M673.3 290.6H647.2C647.7 292 648.3 293.4 648.7 294.7L649.7 297.2H672.5C673.073 295.048 673.342 292.826 673.3 290.6Z" fill="#DB8669"/>
<path d="M616.2 290.6H603.1V297.2H616.3L616.2 290.6Z" fill="#DB8669"/>
<path d="M547.8 297.2H561V290.6H547.8V297.2Z" fill="#DB8669"/>
<path d="M524.1 245.5H370V451.79H524.1V245.5Z" fill="#DB989D"/>
<path d="M478.2 335.7L421.1 363.4H381.1L407.8 315.6L478.2 335.7Z" fill="#D99398"/>
<path d="M893.701 309.801C876.101 309.801 866.501 315.901 857.801 322.301L855.101 324.401L852.101 326.701C844.201 332.501 835.901 337.501 820.801 337.501C805.701 337.501 798.201 333.001 790.601 327.601L786.401 324.401L784.801 323.201L786.001 322.301C794.701 315.901 804.301 309.801 821.801 309.801H893.701Z" fill="#DE548C"/>
<path d="M805.601 330.601H829.801L840.101 323.201H816.501L805.601 330.601Z" fill="#DE5B90"/>
<path d="M800.7 337.501L816.5 326.701H783.9L770.9 337.501H800.7Z" fill="#D94C86"/>
<path d="M815.4 313.801H848.3L857.7 309.801H827.3L815.4 313.801Z" fill="#E85A94"/>
<path d="M820.8 344.501H748.9C731.3 344.501 721.7 338.401 713 331.901L712 331.201L713.6 329.801L717.5 326.701C724.8 321.201 733.3 316.801 747.8 316.801C762.3 316.801 771.2 321.701 779.1 327.601L782.2 329.901L784.8 331.901C793.5 338.401 803.1 344.501 820.8 344.501Z" fill="#B03A73"/>
<path d="M742.4 319.701H729.9C725.432 321.384 721.249 323.745 717.5 326.701L713.6 329.801L712 331.201L713 331.901L718 335.401H764.8L742.4 319.701Z" fill="#A3366B"/>
<path d="M676 309.9C656.5 309.9 646.2 317.1 637.3 324.5L620.8 338.3C620.088 338.886 619.636 339.73 619.543 340.648C619.449 341.565 619.721 342.483 620.3 343.2C620.635 343.593 621.048 343.912 621.513 344.136C621.978 344.36 622.485 344.484 623 344.5H694.8C694.296 344.497 693.8 344.377 693.349 344.152C692.899 343.927 692.506 343.601 692.2 343.2C691.61 342.495 691.32 341.585 691.395 340.668C691.47 339.751 691.903 338.901 692.6 338.3L706.3 326.9L709.2 324.5L711.8 322.3C720.1 315.7 730.2 309.9 747.8 309.9H676Z" fill="#DE548C"/>
<path d="M692.6 338.301H620.8C620.088 338.887 619.636 339.73 619.543 340.648C619.449 341.566 619.721 342.483 620.3 343.201C620.635 343.594 621.048 343.912 621.513 344.136C621.978 344.36 622.485 344.484 623 344.501H694.8C694.296 344.497 693.8 344.378 693.349 344.152C692.899 343.927 692.506 343.602 692.2 343.201C691.61 342.495 691.32 341.586 691.395 340.669C691.47 339.752 691.903 338.901 692.6 338.301Z" fill="#B03A73"/>
<path d="M676.1 327.602L662.9 337.802H621.4L633.7 327.602H676.1Z" fill="#D94C86"/>
<path d="M946.701 344.5H894.701C877.101 344.5 867.501 338.4 858.801 331.9L857.801 331.2L859.201 330H859.301L863.301 327C870.501 321.8 878.101 317.5 891.001 316.9H896.401C911.801 317.5 920.101 323.4 927.901 329.9H928.001L944.501 343.7C945.121 344.212 945.897 344.494 946.701 344.5Z" fill="#B03A73"/>
<path d="M883.5 331.102L892.2 338.302H943.7L935.2 331.102H883.5Z" fill="#A3366B"/>
<path d="M948.901 338.3L932.301 324.5C923.501 317.1 913.201 309.9 893.701 309.9C876.101 309.9 866.501 315.9 857.801 322.3L855.101 324.4L852.101 326.7C844.201 332.5 835.901 337.5 820.701 337.5C805.501 337.5 798.201 333 790.601 327.6L786.401 324.4L784.801 323.2C775.901 316.5 766.201 309.9 747.801 309.9C729.401 309.9 720.101 315.7 711.801 322.3L709.201 324.5L706.301 326.9L692.601 338.3C691.903 338.901 691.47 339.751 691.395 340.668C691.321 341.585 691.61 342.495 692.201 343.2C692.506 343.601 692.899 343.927 693.35 344.152C693.8 344.377 694.297 344.497 694.801 344.5C695.604 344.494 696.381 344.212 697.001 343.7L712.001 331.2L713.601 329.8L717.501 326.7C724.801 321.2 733.301 316.8 747.801 316.8C762.301 316.8 771.201 321.7 779.101 327.6L782.201 329.9L784.801 331.9C793.501 338.4 803.201 344.5 820.701 344.5C838.201 344.5 848.701 337.9 857.701 331.2L859.301 329.9L863.301 326.9C870.901 321.4 879.201 316.8 893.701 316.8C910.901 316.8 919.701 322.9 927.901 329.8L944.501 343.7C945.12 344.212 945.897 344.494 946.701 344.5C947.204 344.497 947.701 344.377 948.151 344.152C948.602 343.927 948.995 343.601 949.301 343.2C949.891 342.495 950.181 341.585 950.106 340.668C950.031 339.751 949.598 338.901 948.901 338.3Z" fill="#F06FA2"/>
<path d="M348.8 196.9H839.8C840.57 196.9 841.307 197.206 841.851 197.75C842.395 198.294 842.7 199.031 842.7 199.8V234.8H345.9V199.8C345.9 199.031 346.206 198.294 346.75 197.75C347.294 197.206 348.031 196.9 348.8 196.9Z" fill="#E46A9B"/>
<path d="M810 234.8H735.9C735.9 234.8 735.1 226.9 731.9 196.9H799.8L810 234.8Z" fill="#C84B8B"/>
<path d="M627.4 196.9C627.4 196.9 627.1 208.6 630.1 213.6C631.5 220.1 635.1 231.1 635.1 231.1V234.8H667.1V196.9H627.4Z" fill="#C84B8B"/>
<path d="M825.7 196.9L830.9 210.2L842.7 215.8V211.1L835.8 198.6L831.8 196.9H825.7Z" fill="#E86F9F"/>
<path d="M842.8 202.699H345.9V205.919H842.8V202.699Z" fill="#E49B9B"/>
<path d="M842.8 225.6H345.9V228.82H842.8V225.6Z" fill="#E49B9B"/>
<path d="M667.1 202.699V205.899H627.9C627.705 204.843 627.605 203.773 627.6 202.699H667.1Z" fill="#C46999"/>
<path d="M667.1 225.6V228.8H634.4L633.4 225.6H667.1Z" fill="#C46999"/>
<path d="M348.8 196.9H542.8C543.57 196.9 544.307 197.206 544.851 197.75C545.395 198.294 545.7 199.031 545.7 199.8V234.8H345.9V199.8C345.9 199.031 346.206 198.294 346.75 197.75C347.294 197.206 348.031 196.9 348.8 196.9Z" fill="#C45999"/>
<path d="M497.8 196.9L522.5 213.6L497.8 212.5L486.9 196.9H497.8Z" fill="#C75E9D"/>
<path d="M345.9 234.801V236.701C352.2 236.701 359.9 239.601 362.8 245.501H825.8C828.7 239.601 836.4 236.701 842.7 236.701V234.801H345.9Z" fill="#C84B8B"/>
<path d="M842.7 236.699H530.1V239.359H842.7V236.699Z" fill="#B03A73"/>
<path d="M345.9 234.801V236.701C352.2 236.701 359.9 239.601 362.8 245.501H528.8C531.7 239.601 539.4 236.701 545.7 236.701V234.801H345.9Z" fill="#B03A73"/>
<path d="M793 451.8H677.6C677.6 430.2 695.1 412.4 716.6 412.4H753.9C764.305 412.453 774.265 416.631 781.595 424.017C788.925 431.403 793.026 441.395 793 451.8Z" fill="#CC8564"/>
<path d="M757.6 390H713C697.936 390 683.489 395.984 672.837 406.636C662.184 417.288 656.2 431.736 656.2 446.8V451.8H661.8V446.8C661.8 433.221 667.194 420.198 676.796 410.596C686.398 400.994 699.421 395.6 713 395.6H757.6C771.179 395.6 784.202 400.994 793.804 410.596C803.406 420.198 808.8 433.221 808.8 446.8V451.8H814.3V446.8C814.3 431.753 808.33 417.321 797.699 406.672C787.069 396.022 772.647 390.026 757.6 390Z" fill="#CC8564"/>
<path d="M764.8 354.699H753.5V383.219H764.8V354.699Z" fill="#C95A3E"/>
<path d="M764.8 354.699H758.3V383.219H764.8V354.699Z" fill="#D15C42"/>
<path d="M707.6 381.199H696.1V409.719H707.6V381.199Z" fill="#C95A3E"/>
<path d="M812.8 399.9H801.3V428.42H812.8V399.9Z" fill="#C95A3E"/>
<path d="M812.8 399.9H807.1V428.42H812.8V399.9Z" fill="#D4674C"/>
<path d="M707.6 381.199H699.4V409.719H707.6V381.199Z" fill="#D4704C"/>
<path d="M872.9 404.5H861.4V433.02H872.9V404.5Z" fill="#CE644A"/>
<path d="M894.2 373.199H882.7V401.719H894.2V373.199Z" fill="#CE644A"/>
<path d="M894.2 373.199H889.5V401.719H894.2V373.199Z" fill="#D17736"/>
<path d="M872.9 404.5H865.8V433.02H872.9V404.5Z" fill="#E38B4C"/>
<path d="M872.9 417.6L865.8 422.9V419.7L872.9 414.4V417.6Z" fill="#F09E48"/>
<path d="M661.5 24.3995L661.2 24.6995L660.4 25.3995L660.1 25.6995L659.5 26.1995C646 37.7995 628.6 42.7995 616.9 46.2995C601.7 50.7995 589.1 52.1995 579.6 52.1995C567.3 52.0995 564.9 45.6995 570 37.9995L573 34.3995L588 16.1995L588.7 15.2995C598.6 3.59948 607.5 -1.70052 626.2 2.39948L654.6 8.49948H654.7C664.6 10.6995 669.3 16.6995 661.5 24.3995Z" fill="url(#paint1_linear)"/>
<path d="M628.8 4.59984C640.2 7.39984 659.6 13.0998 659.6 13.0998L664.4 13.7998C662.7 11.3998 659.3 9.49984 654.7 8.49984H654.6L626.2 2.39984C617.3 0.399837 610.7 0.599838 605.1 2.59984C613.8 0.499838 618.8 2.09984 628.8 4.59984Z" fill="#FFFDC4"/>
<path d="M617.7 47.7991C627.7 44.7991 649 36.2991 657.3 27.9991C655.4 29.9991 657.3 26.4991 653.5 28.2991C633.9 37.8991 589.3 50.7991 579.6 52.1991C589.1 52.7991 607.5 50.7991 617.7 47.7991Z" fill="#FFFDC4"/>
<path d="M663.8 13.099C655.1 10.499 635.3 12.799 613.4 19.699C591.5 26.599 572.4 36.699 567.6 43.999C567 48.699 570.7 52.099 579.6 52.199C588.5 52.299 601.7 50.799 616.9 46.299C628.6 42.799 646 37.799 659.5 26.199L660.1 25.699L660.4 25.399L661.2 24.699L661.5 24.399C666.1 19.899 666.4 15.999 663.8 13.099Z" fill="url(#paint2_linear)"/>
<path d="M620.252 41.4213C641.49 34.7655 657.676 26.0803 656.405 22.0223C655.133 17.9643 636.885 20.0702 615.646 26.726C594.408 33.3818 578.221 42.067 579.493 46.125C580.765 50.183 599.013 48.0771 620.252 41.4213Z" fill="#6B3143"/>
<path d="M656.3 23.6004C656.514 23.1313 656.584 22.6092 656.5 22.1004L656.1 21.5004L634.1 30.9004L650.6 20.1004C649.87 20.0004 649.13 20.0004 648.4 20.1004L633.2 30.3004C632.312 30.0953 631.388 30.0953 630.5 30.3004L638.8 21.1004L635.7 21.7004L629.3 30.4004L624.8 31.2004L629.6 23.0004L626.7 23.7004L623.6 31.5004L620.6 32.3004L622.8 24.7004L619.4 25.7004L618.3 32.9004H618.6L617.8 33.2004L615.4 26.9004L612.9 27.7004L616.9 33.4004L614.9 34.1004L609.1 29.0004L606.1 30.1004L613.2 34.7004L611.1 35.5004L602.2 31.5004L598.5 33.0004L609.4 36.2004L606.9 37.4004L591.4 36.3004L587.7 38.2004H605.2L604 39.0004L582.7 41.5004C581.808 42.1645 581.002 42.9371 580.3 43.8004L602.9 39.9004C602.8 40.2004 602.7 40.4004 602.8 40.5004C602.9 40.6004 603 40.8004 603.2 40.9004L579.7 46.7004C580.29 47.3202 581.06 47.7398 581.9 47.9004L605.4 41.1004C606.675 41.0006 607.943 40.8337 609.2 40.6004L590.4 48.1004L593.3 47.8004L611.6 40.1004H612.3L600.5 46.7004L606.1 45.5004L614.6 39.5004L619.2 38.2004L624.6 36.3004L631.8 37.7004L638.7 34.9004L627.6 35.1004H627.7L644.6 32.1004C646.5 31.2004 648.2 30.2004 649.7 29.3004L631 33.4004L632.2 32.7004L656.3 23.6004Z" fill="#7A384C"/>
<path d="M651.5 126L646.3 103.9L642.7 112.2L637.2 128.3L651.5 126Z" fill="#1F40A1"/>
<path d="M574.3 85.0994L649.4 95.2994C655.8 98.2994 657.8 99.4994 660.9 107.199L663.2 112.899C665.4 114.699 665.6 114.999 665 117.599L648.8 128.299L657.7 158.699L589.2 166.999L574.7 134.999L552.6 121.699C552.105 121.407 551.692 120.994 551.4 120.499C550.5 118.599 550.7 116.799 554.1 115.199C556.2 107.999 556.1 106.699 557.8 101.099C561.5 88.5994 564.4 84.8994 574.3 85.0994Z" fill="#2347A1"/>
<path d="M636.3 149C634.05 145.79 632.957 141.912 633.2 138C633.6 127.9 629.1 125 627.7 117.5H626.7L624.1 117.8C624.4 125.4 620.5 129.2 623.1 139C624.101 142.784 623.82 146.793 622.3 150.4C620.1 155.4 620.3 160.5 623.5 164.6L631.4 163.8H632.1L638.2 163.2C640.4 158.5 639.6 153.5 636.3 149Z" fill="#1A378A"/>
<path d="M650.1 132.6L626.6 125.4L630.4 146.1L656.7 155.2L650.1 132.6Z" fill="#1A378A"/>
<path d="M582.5 152.799C578.7 152.999 578.5 152.699 576.5 149.499C574.729 146.182 573.127 142.778 571.7 139.299L573.9 136.699L582.5 152.799Z" fill="#7D9FFF"/>
<path d="M629.5 143.7L604.3 137.2L602.9 143.7L608 148.3L613.2 164.1L608.4 164.6L586.4 168.9L585.8 172.1L584.2 169.9C583.743 169.274 583.426 168.557 583.271 167.798C583.116 167.038 583.126 166.255 583.3 165.5L584.4 159.6L582.5 152.8H581.6C579.6 152.6 579.6 152 578.1 149.4C575.638 145.132 573.498 140.687 571.7 136.1L574.7 135L581.6 120.1C610.3 130 620.3 134.3 632.5 140C644.7 145.7 645 145.7 647.2 147.5C649.4 149.3 648.2 148.4 629.5 143.7Z" fill="#1A378A"/>
<path d="M608 112.801C591.1 128.001 587.1 139.001 582.5 152.801L584.4 159.601C592.5 143.701 596 137.101 601.3 131.601C606.6 126.101 616.1 117.601 616.1 117.601L608 112.801Z" fill="#242236"/>
<path d="M584.1 89.5996L573 95.7996L584.1 109.7L595.1 100.8L584.1 89.5996Z" fill="#2A52C2"/>
<path d="M605.6 63.8008L600.4 64.7008C599.178 64.882 598.01 65.3241 596.975 65.9971C595.94 66.67 595.061 67.5581 594.4 68.6008L591.3 73.4008L581.5 76.3008C580.459 76.6099 579.49 77.1226 578.649 77.8093C577.807 78.496 577.111 79.3428 576.6 80.3008L574.3 85.1008C574.3 85.1008 601.6 122.901 623.2 129.101C644.8 135.301 649.4 95.3008 649.4 95.3008C649.405 94.8634 649.286 94.4334 649.056 94.0615C648.825 93.6895 648.494 93.3909 648.1 93.2008L642.4 89.9008L642.9 82.5008C642.948 81.8156 642.827 81.1292 642.548 80.5016C642.269 79.8739 641.841 79.3243 641.3 78.9008L625.7 66.8008L605.6 63.8008Z" fill="#EF6270"/>
<path d="M589.1 74.0008C590.7 70.2008 591.4 65.7008 601 63.8008L608 62.8008L607.4 68.5008L594.1 77.3008L589.1 74.0008Z" fill="#FF707E"/>
<path d="M600.4 64.7008C599.178 64.882 598.01 65.3241 596.975 65.9971C595.94 66.67 595.061 67.5581 594.4 68.6008L591.3 73.4008L581.5 76.3008C580.459 76.6099 579.49 77.1226 578.649 77.8093C577.807 78.496 577.111 79.3428 576.6 80.3008L574.3 85.1008C580.75 93.7832 587.801 102.003 595.4 109.701L598.4 102.101H616.1C616.1 102.101 614 94.8008 613.3 91.5008C612.6 88.2008 611 86.3008 615.9 85.5008L611.8 64.8008L605.6 63.8008L600.4 64.7008Z" fill="#E05164"/>
<path d="M601.4 74.4992C596.6 70.8992 596.9 71.1992 599.6 69.4992C601.2 68.4135 603.069 67.7906 605 67.6992L601.4 74.4992Z" fill="#BD3C53"/>
<path d="M595.1 78C599.2 84.2 623.5 110.5 627.2 113C630.9 115.5 625.7 119 625.7 119C618.709 115.562 611.961 111.653 605.5 107.3C597.3 101.4 592.4 97.7 590.1 95.5C587.8 93.3 587.1 91.4 591.6 94.3C596.393 97.0924 601.451 99.4036 606.7 101.2L608 99.7L595.9 82.5L595.1 78Z" fill="#E05164"/>
<path d="M635.1 75.7C640.4 80.3 643.1 79.1 630.5 96.2L627.5 94.3L618.8 84.4L629.9 70.5L635.1 75.7Z" fill="#C74153"/>
<path d="M633.5 29.5992C633.2 28.4992 626 29.6992 617.4 32.2992C608.8 34.8992 602.1 37.7992 602.4 38.7992C604.2 53.0992 603.9 65.6992 601.4 74.4992L627.5 94.2992C638.5 67.8992 635.1 44.4992 633.5 29.5992Z" fill="#FFB685"/>
<path d="M613.5 70.0008C617 74.0008 623.5 73.0008 626.2 70.3008C629.7 73.7008 631.7 73.2008 634.1 70.2008C636.5 67.2008 623.5 64.3008 623.5 64.3008L613.5 70.0008Z" fill="#FE9B77"/>
<path d="M615.9 85.5C614.821 77.0726 614.187 68.5942 614 60.1C613.6 51.8 613.3 41.9 613.4 33.5C606.9 35.7 602.2 37.9 602.4 38.8C604.2 53.1 603.9 65.7 601.4 74.5L615.9 85.5Z" fill="#FE9B77"/>
<g style="mix-blend-mode:multiply" opacity="0.4">
<path d="M633.5 29.5992C633.2 28.4992 626 29.6992 617.4 32.2992C608.8 34.8992 602.1 37.7992 602.4 38.7992C602.7 39.7992 602.8 42.3992 603 44.1992C612.3 43.0992 625.3 44.4992 635.1 47.4992C634.8 40.6992 634 34.6992 633.5 29.5992Z" fill="#A8387E"/>
</g>
<path d="M613.9 72.3008L611.1 67.9008L613.9 58.3008C614.153 61.6238 615.528 64.762 617.8 67.2008C618.9 68.2008 618.4 68.4008 617.8 70.5008C617.2 72.6008 615.1 76.8008 615.3 80.4008C615.5 84.0008 613.9 72.3008 613.9 72.3008Z" fill="#FE9B77"/>
<path d="M611.5 167.3L605.7 196.9H660.6V212.3H673.6L674.1 222.8H703.4L702.3 212.4L706.8 208.2C707.154 207.85 707.427 207.427 707.6 206.961C707.773 206.494 707.841 205.996 707.8 205.5L705.1 176.6C704.857 173.905 704.066 171.288 702.777 168.909C701.488 166.53 699.728 164.439 697.603 162.764C695.478 161.089 693.034 159.864 690.42 159.165C687.806 158.467 685.077 158.308 682.4 158.7L611.5 167.3Z" fill="#232233"/>
<path d="M689.9 272.301L689.1 273.001C688.666 273.349 688.38 273.85 688.3 274.401L688.1 275.801C688.016 276.506 688.194 277.218 688.6 277.801C690.5 280.401 692.6 281.001 695 281.801C697.755 282.432 700.324 283.699 702.5 285.501C706.172 288.226 710.541 289.856 715.1 290.201C720.2 290.601 722.2 288.301 722.1 286.401C722 284.501 719.4 282.701 719.4 282.701L689.9 272.301Z" fill="#4F2431"/>
<path d="M689.1 267.299C689.9 260.399 686.1 256.299 681.4 247.099C676.7 237.899 674.6 227.099 672.9 213.199H697.9C697.9 213.199 703.3 246.699 704.8 253.899C705.7 258.299 706.2 265.299 710.9 271.099C717.1 278.899 721.5 282.599 720.5 285.299C719.5 287.999 716 289.099 709 286.299C707.1 285.499 705 283.999 702.5 282.599C700 281.199 696.7 280.099 694.7 279.099C689.6 276.699 688.2 275.499 689.1 267.299Z" fill="#6B313F"/>
<path d="M708.9 282.299C705 278.299 701.7 275.399 701.1 273.099C700.5 270.799 700 267.099 699.3 263.799C698.6 260.499 687.6 230.699 684.6 214.099L681.9 213.199H672.9C674.6 227.099 676.7 237.899 681.4 247.099C686.1 256.299 689.9 260.399 689.1 267.299C688.3 274.199 689.6 276.699 694.7 279.099C696.7 280.099 699.3 280.799 702.5 282.599C705.7 284.399 707.1 285.499 709 286.299C713.1 287.899 715.9 288.199 717.8 287.699C714.466 286.59 711.424 284.745 708.9 282.299Z" fill="#592534"/>
<path d="M680.6 214.1C681.1 227.9 685.3 240.9 688.3 246.6C691.3 252.3 693.9 258.4 694.7 270.5" stroke="#4F2431" stroke-width="2" stroke-miterlimit="10" stroke-linecap="round"/>
<path d="M707.2 264.3C706.71 263.073 706.341 261.8 706.1 260.5C705.625 259.996 705.051 259.594 704.415 259.319C703.779 259.044 703.093 258.902 702.4 258.9C699.7 259.1 697.7 261.1 696.9 264.4C696.1 267.7 694.8 270.4 693.4 270.9C692 271.4 691.1 270.8 689.5 269.7C689.423 269.622 689.328 269.564 689.224 269.529C689.12 269.494 689.009 269.484 688.9 269.5V271.8C689.997 272.554 691.274 273.003 692.6 273.1L694.1 272.9C696.3 272.1 697.8 269.5 698.9 264.9C699.5 262.5 700.8 261.1 702.5 261C704.2 260.9 706 262.2 707.2 264.3Z" fill="#4F2431"/>
<path d="M703.4 204.3C700.9 204.4 696.4 204.6 681 207.4L673.6 213.6L673.8 216.9L692.1 221.1C692.1 221.1 698.6 218 702.4 213.1V212.4L703.9 211C707.2 204.8 705.9 204.2 703.4 204.3Z" fill="#1C1B29"/>
<path d="M674.1 222.799H703.4L702.3 212.399L702.1 209.699L691.2 210.399C686.5 210.799 666.6 211.099 666.6 211.099L667 212.299H673.6L674.1 222.799Z" fill="#28263B"/>
<path d="M672.1 187.1C682.2 182.9 684.8 181.7 686.9 181C689 180.3 686.9 178.9 683.8 177.4C680.7 175.9 679.8 177.4 672.1 187.1Z" fill="#1C1B29"/>
<path d="M638.1 134.6C635.865 131.383 634.773 127.51 635 123.6C635.4 113.5 630.9 110.6 629.5 103.1H628.5L625.9 103.3C626.2 111 622.3 114.8 624.9 124.6C625.901 128.35 625.619 132.328 624.1 135.9C621.9 141 622.1 146.1 625.3 150.2H625.9C630.66 150.676 635.467 150.131 640 148.6C642.2 144 641.4 139.1 638.1 134.6Z" fill="#B8C5FF"/>
<path d="M634 115.301C632.7 111.201 630.6 108.301 629.7 103.801H629.2C629.2 103.801 631.5 111.001 633.1 114.301C633.5 115.101 633.8 115.301 634 115.301Z" fill="#E0E6FF"/>
<path d="M626.9 103.301H625.9C626.2 111.001 622.3 114.801 624.9 124.601C625.205 125.849 625.406 127.12 625.5 128.401L634.2 121.901C631.278 115.904 628.837 109.685 626.9 103.301Z" fill="#9CA8F5"/>
<path d="M625.1 132.8C624.98 133.445 624.813 134.08 624.6 134.7C626.691 134.925 628.743 135.429 630.7 136.2C630.7 136.2 636.2 143.3 640.4 147.6C642 143.2 641.1 138.7 638.1 134.6C637.402 133.521 636.8 132.383 636.3 131.2L627.2 130.5L625.1 132.8Z" fill="#9CA8F5"/>
<path d="M669 127.5L665 117.6L651.5 126L632.2 119V132.2L638.1 134.6C655.5 141.8 658.8 146.1 666.3 145.4C673.8 144.7 672.3 135.6 669 127.5Z" fill="#FEA77F"/>
<path d="M658.9 121.4L663 130.5L651.8 126.8L651.5 126L658.9 121.4Z" fill="#FA8E70"/>
<path d="M667.4 273.5L666.6 274.2C666.393 274.35 666.223 274.545 666.102 274.77C665.981 274.995 665.912 275.245 665.9 275.5L665.6 277C665.516 277.705 665.694 278.417 666.1 279C668 281.6 670.2 282.2 672.5 282.9C675.267 283.633 677.854 284.926 680.1 286.7C683.753 289.461 688.132 291.094 692.7 291.4C697.7 291.8 699.7 289.5 699.7 287.5C699.7 285.5 696.9 283.9 696.9 283.9L667.4 273.5Z" fill="#4F2431"/>
<path d="M666.6 268.501C667.4 261.601 663.6 257.501 658.9 248.301C654.2 239.101 652.1 228.201 650.4 214.301H675.4C675.4 214.301 680.9 247.901 682.4 255.101C683.3 259.501 683.8 266.501 688.4 272.301C694.6 280.101 699 283.801 698 286.401C697 289.001 693.5 290.301 686.5 287.501C684.301 286.386 682.164 285.15 680.1 283.801C676.8 281.901 674.2 281.301 672.2 280.301C667.2 277.901 665.7 276.701 666.6 268.501Z" fill="#6B313F"/>
<path d="M686.4 283.501C682.5 279.501 679.2 276.601 678.7 274.301C678.2 272.001 677.5 268.301 676.8 264.901C676.1 261.501 665.1 231.801 662.1 215.201L659.5 214.301H650.4C652.1 228.201 654.2 239.101 658.9 248.301C663.6 257.501 667.4 261.601 666.6 268.501C665.8 275.401 667.2 277.901 672.2 280.301C674.2 281.301 676.8 281.901 680.1 283.801C682.164 285.15 684.301 286.386 686.5 287.501C690.6 289.101 693.5 289.401 695.4 288.801C692.032 287.751 688.952 285.937 686.4 283.501Z" fill="#612936"/>
<path d="M658.1 215.199C658.6 229.099 662.8 242.099 665.8 247.699C668.8 253.299 671.4 259.599 672.2 271.699" stroke="#4F2431" stroke-width="2" stroke-miterlimit="10" stroke-linecap="round"/>
<path d="M586.4 168.9L581 196.9H635.8L637.7 206.6C637.928 207.681 638.465 208.672 639.247 209.453C640.028 210.234 641.019 210.772 642.1 211L647 212L649.4 222.8H679L677.8 214.5L681.5 213.2C682.126 213.014 682.663 212.608 683.013 212.056C683.362 211.505 683.5 210.845 683.4 210.2L680.4 176.6C680.157 173.905 679.366 171.288 678.077 168.909C676.788 166.53 675.027 164.439 672.903 162.764C670.778 161.089 668.334 159.864 665.72 159.165C663.106 158.467 660.377 158.308 657.7 158.7C657.7 158.7 609.7 164.3 600.1 165.7C590.5 167.1 586.4 168.9 586.4 168.9Z" fill="#1C1B29"/>
<path d="M591 176C599.054 171.291 607.443 167.18 616.1 163.7C613.5 162.6 611.7 162.9 604 165.2L585.3 174.7L591 176Z" fill="#733544"/>
<path d="M651.5 126L666 131.3C666.041 131.327 666.075 131.365 666.098 131.408C666.122 131.452 666.134 131.5 666.134 131.55C666.134 131.6 666.122 131.648 666.098 131.692C666.075 131.735 666.041 131.773 666 131.8L632.3 120.8V119L651.5 126Z" fill="#FFD096"/>
<path d="M529.8 189.5L512.3 193.7L510 196.9H532.2L529.8 189.5Z" fill="#F7DC9E"/>
<path d="M594.2 174.3L580.7 174.9C579.648 174.938 578.638 175.321 577.825 175.99C577.012 176.658 576.441 177.575 576.2 178.6L571.7 196.9H596.9L597.8 177.9C597.814 177.424 597.73 176.949 597.554 176.506C597.378 176.063 597.114 175.661 596.777 175.324C596.439 174.987 596.037 174.722 595.594 174.546C595.151 174.37 594.677 174.286 594.2 174.3Z" fill="#4F2431"/>
<path d="M588.7 196.901C589.1 193.501 590 185.901 590.5 181.501C591 177.101 591.4 175.201 593 174.301H591.6L580.7 174.801C579.648 174.839 578.638 175.221 577.825 175.89C577.012 176.559 576.441 177.476 576.2 178.501L571.7 196.801L588.7 196.901Z" fill="#401D2B"/>
<path d="M761.2 234.501C761.3 238.701 758.9 242.101 763.2 244.001C769.6 246.801 772.4 249.701 777.2 251.101C782 252.501 789.2 254.601 785.4 247.301C781.6 240.001 779 233.301 779 233.301L761.2 234.501Z" fill="#1C1B29"/>
<path d="M795.2 222.9C795.8 227.1 793.8 230.7 798.3 232.1C805 234.1 808.2 236.7 813 237.4C817.8 238.1 825.4 239.5 820.8 232.7C816.2 225.9 812.7 219.5 812.7 219.5L795.2 222.9Z" fill="#28263B"/>
<path d="M814.6 182.699C813.813 179.699 812.225 176.969 810.005 174.803C807.785 172.636 805.018 171.114 802 170.399L795.7 168.899C790.8 134.699 796.4 127.799 770.3 116.899L748.5 113.299C748.5 113.299 726.2 110.799 716.6 120.799L723.2 159.699C723.2 159.699 715.3 183.999 715.8 196.899H744.8L752 238.499C799.5 237.599 824 218.899 824 218.899L814.6 182.699Z" fill="#CFDEFF"/>
<path d="M766.1 187.6C764.9 180.8 765 178.2 756.5 177.4L743.2 176.2L744.2 173.6L772.8 172.4L752 152.6L722.1 157.7C721.155 161.43 720.618 165.253 720.5 169.1C717 171.3 717.8 174.1 718.5 176.9C716.9 183.8 715.6 191.4 715.8 196.9H744.8C745 205.9 747.7 211.6 748.2 217.4C748.7 223.2 750.8 238.6 750.8 238.6C758.831 238.39 766.844 237.722 774.8 236.6L766.1 187.6Z" fill="#ABBAFF"/>
<path d="M723.7 169L752 170.9C752 170.9 744.6 168.8 737.7 167.6C733.536 166.788 729.329 166.221 725.1 165.9C724 165.9 723.5 166.8 723.1 168.1C723.069 168.199 723.062 168.304 723.077 168.406C723.092 168.508 723.13 168.606 723.187 168.692C723.244 168.778 723.32 168.851 723.409 168.904C723.497 168.957 723.597 168.99 723.7 169Z" fill="#8FA2FA"/>
<path d="M761.3 174.099C772 177.099 773.4 177.699 778.8 186.299C784.2 194.899 784.4 194.399 788.8 189.999C793.2 185.599 799.4 178.999 801.5 176.499C803.6 173.999 801.4 173.499 787.4 171.599C773.4 169.699 754.3 172.099 761.3 174.099Z" fill="#BDD1FF"/>
<path d="M729.7 144.799C731.698 141.025 733.146 136.984 734 132.799C734.8 129.699 736.9 133.799 735.2 139.099C734.023 142.602 731.956 145.738 729.2 148.199L729.7 144.799Z" fill="#B8C5FF"/>
<path d="M722.9 113C750.2 146.1 775.7 169.6 776.9 123.1L722.9 113Z" fill="#B8C5FF"/>
<path d="M737.7 118.4C763.1 134.6 769.5 140.3 769.7 124.8L737.7 118.4Z" fill="#5697B0"/>
<path d="M793.3 147.4C791.8 133 790.1 126.7 776.9 119.9C779.5 129.1 778.8 147.4 778.8 147.4H793.3Z" fill="white"/>
<path d="M781.3 135.5C780.767 139.205 779.897 142.854 778.7 146.4L781 146.7C782.213 143.145 783.149 139.5 783.8 135.8C784.3 131.6 782 130.9 781.3 135.5Z" fill="#DBE6FF"/>
<path d="M755.8 74.2998V66.4998C755.79 63.9543 754.971 61.4779 753.461 59.4287C751.951 57.3794 749.829 55.8634 747.4 55.0998C744.731 54.271 741.856 54.408 739.278 55.4868C736.7 56.5655 734.584 58.5172 733.3 60.9998C728.6 69.9998 721.2 84.4998 715.8 96.7998C707.2 116.4 733.6 124.6 760.4 126C787.2 127.4 791.2 116.1 789.7 98.8998C788.7 87.9998 787.1 76.8998 786.1 70.0998C785.789 68.1493 784.912 66.333 783.579 64.8756C782.246 63.4181 780.515 62.3835 778.6 61.8998C776.469 61.4038 774.234 61.6135 772.232 62.4972C770.231 63.3809 768.57 64.8908 767.5 66.7998L763.5 74.2998H755.8Z" fill="#7CE4CC"/>
<path d="M785.1 106.4L783.3 105.5L773.2 107.6H763.2L746.6 102C746.6 102 739.1 86.2999 737.7 102.5C736.8 113.7 740.7 120.7 743.2 124C748.886 125 754.632 125.635 760.4 125.9C764.738 126.215 769.098 126.048 773.4 125.4C776.8 121.8 782.4 114.8 785.1 106.4Z" fill="#AAFAE7"/>
<path opacity="0.74" d="M737.6 101.1C736.2 94.6997 733.9 81.3998 736.8 71.8998C739.7 62.3998 742.9 54.5998 747.4 55.0998C744.731 54.271 741.855 54.408 739.277 55.4868C736.699 56.5655 734.583 58.5172 733.3 60.9998C728.6 69.9998 721.2 84.4998 715.8 96.7998C708.1 114.3 728.4 122.7 752 125.3C747 123.8 741.2 117.6 737.6 101.1Z" fill="url(#paint3_linear)"/>
<path d="M752 125.3L750.1 125.1L748.3 124.9L745.5 124.5L744.6 124.3L743.2 124.1C740.7 120.8 736.8 113.8 737.7 102.6C737.685 102.395 737.719 102.189 737.8 102C741.4 117.8 747.1 123.9 752 125.3Z" fill="#AAFAE7"/>
<path opacity="0.5" d="M752 125.3L750.1 125.1L748.3 124.9L745.5 124.5L744.6 124.3L743.2 124.1C740.7 120.8 736.8 113.8 737.7 102.6C737.685 102.395 737.719 102.189 737.8 102C741.4 117.8 747.1 123.9 752 125.3Z" fill="url(#paint4_linear)"/>
<path d="M782.5 104.099L782.2 105.999C771.1 110.599 769.2 111.999 743.9 101.999V100.199L745 100.599C766.6 107.899 770.8 108.799 782.5 104.099Z" fill="#2C4661"/>
<path d="M741.01 107.86C744.617 107.34 747.07 103.639 746.487 99.594C745.904 95.5489 742.507 92.6911 738.899 93.211C735.291 93.7309 732.839 97.4316 733.422 101.477C734.005 105.522 737.402 108.38 741.01 107.86Z" fill="#738EFF"/>
<path d="M787.933 105.791C789.077 102.505 788.483 99.3117 786.605 98.6578C784.727 98.004 782.278 100.138 781.133 103.423C779.989 106.709 780.584 109.903 782.461 110.557C784.339 111.211 786.789 109.077 787.933 105.791Z" fill="#738EFF"/>
<path opacity="0.41" d="M762.3 95.7997C761.9 94.9997 762.8 94.5997 763.5 94.3997C763.781 94.3324 764.077 94.354 764.345 94.4615C764.614 94.5689 764.842 94.7569 765 94.9997L767.1 98.5997C767.7 99.6997 766.6 99.5997 765.6 98.7997C764.6 97.9997 762.9 97.0997 762.3 95.7997Z" fill="#284E7A"/>
<path opacity="0.41" d="M773.4 98.8004C773.77 98.2562 774.104 97.6883 774.4 97.1004C774.574 96.8099 774.658 96.4737 774.64 96.1351C774.623 95.7965 774.504 95.471 774.3 95.2004L774 94.8004C773.8 94.6004 773.6 94.7004 773.5 94.9004C772.847 96.0785 772.311 97.3177 771.9 98.6004C771.6 100 772.5 100.1 773.4 98.8004Z" fill="#284E7A"/>
<path d="M784.5 141.999C787 134.399 793.3 131.399 800.4 131.599L793.3 141.999H784.5Z" fill="#F7AEA5"/>
<path d="M757.5 135.399C776.6 128.899 785.1 140.799 785.1 140.799C787.284 137.87 790.267 135.634 793.69 134.357C797.113 133.08 800.831 132.817 804.4 133.599L807.6 139.399L778.7 150.699L757.5 135.399Z" fill="#FECCAF"/>
<path d="M784.8 144.9L785.1 142L788.6 144.1L784.8 144.9Z" fill="#6B3143"/>
<path d="M755.4 134.6L742.3 168.8L774.3 177.7H776.4L798.7 167.3L811.2 136.6L810.1 135.4L786.3 144L755.4 134.6Z" fill="#133BBA"/>
<path d="M811.2 136.6L787.3 145.4L776.4 177.7L798.3 168.5L811.2 136.6Z" fill="#1541CC"/>
<path d="M754.9 136L785.1 145.4L774.3 177.7L742.3 168.8L754.9 136Z" fill="#0B2585"/>
<path d="M842.9 148.6L845 147.7C845.1 147.7 845.1 147.6 845 147.6L842.9 146.7L841.9 144.6H841.8L840.9 146.7L838.7 147.6L840.9 148.5L841.8 150.6H841.9L842.9 148.5V148.6Z" fill="#194DF2"/>
<path d="M741.9 277.8L746.1 276C746.2 275.9 746.2 275.8 746.1 275.8L741.9 273.9L740.1 269.8C740 269.7 739.9 269.7 739.9 269.8L738 273.9L733.9 275.8C733.8 275.8 733.8 275.9 733.9 276L738 277.8L739.9 282C739.9 282.1 740 282.1 740.1 282L741.9 277.8Z" fill="white"/>
<path d="M620.2 196.9H607.1L607.5 218.8H570.1L569.6 196.9H556.4L557.2 234.8H570.4L570.2 226.6H607.7L607.9 234.8H621L620.2 196.9Z" fill="#C84B8B"/>
<path d="M607.399 190.8C611.284 188.704 615.8 188.1 620.099 189.1H620.299L659.199 451.8H645.999L607.399 190.8Z" fill="#8C3F49"/>
<path d="M607.399 190.799L645.999 451.799H652.799L613.899 188.799C611.617 189.004 609.403 189.685 607.399 190.799Z" fill="#632D3E"/>
<path d="M612.3 216.1H560.8C558.867 216.1 557.3 217.667 557.3 219.6V219.68C557.3 221.613 558.867 223.18 560.8 223.18H612.3C614.233 223.18 615.8 221.613 615.8 219.68V219.6C615.8 217.667 614.233 216.1 612.3 216.1Z" fill="#823B51"/>
<path d="M597.8 216.1H560.8C558.867 216.1 557.3 217.667 557.3 219.6V219.68C557.3 221.613 558.867 223.18 560.8 223.18H597.8C599.733 223.18 601.3 221.613 601.3 219.68V219.6C601.3 217.667 599.733 216.1 597.8 216.1Z" fill="#753549"/>
<path d="M585.5 216.1H560.8C558.867 216.1 557.3 217.667 557.3 219.6V219.68C557.3 221.613 558.867 223.18 560.8 223.18H585.5C587.433 223.18 589 221.613 589 219.68V219.6C589 217.667 587.433 216.1 585.5 216.1Z" fill="#632D3E"/>
<path d="M618.1 255.4H566.6C564.667 255.4 563.1 256.967 563.1 258.9V258.98C563.1 260.913 564.667 262.48 566.6 262.48H618.1C620.033 262.48 621.6 260.913 621.6 258.98V258.9C621.6 256.967 620.033 255.4 618.1 255.4Z" fill="#823B51"/>
<path d="M603.6 255.4H566.6C564.667 255.4 563.1 256.967 563.1 258.9V258.98C563.1 260.913 564.667 262.48 566.6 262.48H603.6C605.533 262.48 607.1 260.913 607.1 258.98V258.9C607.1 256.967 605.533 255.4 603.6 255.4Z" fill="#753549"/>
<path d="M591.3 255.4H566.6C564.667 255.4 563.1 256.967 563.1 258.9V258.98C563.1 260.913 564.667 262.48 566.6 262.48H591.3C593.233 262.48 594.8 260.913 594.8 258.98V258.9C594.8 256.967 593.233 255.4 591.3 255.4Z" fill="#632D3E"/>
<path d="M623.899 294.699H572.399C570.466 294.699 568.899 296.266 568.899 298.199V298.279C568.899 300.212 570.466 301.779 572.399 301.779H623.899C625.832 301.779 627.399 300.212 627.399 298.279V298.199C627.399 296.266 625.832 294.699 623.899 294.699Z" fill="#823B51"/>
<path d="M609.399 294.699H572.399C570.466 294.699 568.899 296.266 568.899 298.199V298.279C568.899 300.212 570.466 301.779 572.399 301.779H609.399C611.332 301.779 612.899 300.212 612.899 298.279V298.199C612.899 296.266 611.332 294.699 609.399 294.699Z" fill="#753549"/>
<path d="M597.099 294.699H572.399C570.466 294.699 568.899 296.266 568.899 298.199V298.279C568.899 300.212 570.466 301.779 572.399 301.779H597.099C599.032 301.779 600.599 300.212 600.599 298.279V298.199C600.599 296.266 599.032 294.699 597.099 294.699Z" fill="#632D3E"/>
<path d="M629.699 334H578.199C576.266 334 574.699 335.567 574.699 337.5V337.58C574.699 339.513 576.266 341.08 578.199 341.08H629.699C631.632 341.08 633.199 339.513 633.199 337.58V337.5C633.199 335.567 631.632 334 629.699 334Z" fill="#823B51"/>
<path d="M615.199 334H578.199C576.266 334 574.699 335.567 574.699 337.5V337.58C574.699 339.513 576.266 341.08 578.199 341.08H615.199C617.132 341.08 618.699 339.513 618.699 337.58V337.5C618.699 335.567 617.132 334 615.199 334Z" fill="#753549"/>
<path d="M602.899 334H578.199C576.266 334 574.699 335.567 574.699 337.5V337.58C574.699 339.513 576.266 341.08 578.199 341.08H602.899C604.832 341.08 606.399 339.513 606.399 337.58V337.5C606.399 335.567 604.832 334 602.899 334Z" fill="#632D3E"/>
<path d="M635.5 373.299H584C582.067 373.299 580.5 374.866 580.5 376.799V376.879C580.5 378.812 582.067 380.379 584 380.379H635.5C637.433 380.379 639 378.812 639 376.879V376.799C639 374.866 637.433 373.299 635.5 373.299Z" fill="#823B51"/>
<path d="M641.3 412.6H589.8C587.867 412.6 586.3 414.167 586.3 416.1V416.18C586.3 418.113 587.867 419.68 589.8 419.68H641.3C643.233 419.68 644.8 418.113 644.8 416.18V416.1C644.8 414.167 643.233 412.6 641.3 412.6Z" fill="#823B51"/>
<path d="M621 373.299H584C582.067 373.299 580.5 374.866 580.5 376.799V376.879C580.5 378.812 582.067 380.379 584 380.379H621C622.933 380.379 624.5 378.812 624.5 376.879V376.799C624.5 374.866 622.933 373.299 621 373.299Z" fill="#753549"/>
<path d="M608.7 373.299H584C582.067 373.299 580.5 374.866 580.5 376.799V376.879C580.5 378.812 582.067 380.379 584 380.379H608.7C610.633 380.379 612.2 378.812 612.2 376.879V376.799C612.2 374.866 610.633 373.299 608.7 373.299Z" fill="#632D3E"/>
<path d="M641.3 412.6H589.8C587.867 412.6 586.3 414.167 586.3 416.1V416.18C586.3 418.113 587.867 419.68 589.8 419.68H641.3C643.233 419.68 644.8 418.113 644.8 416.18V416.1C644.8 414.167 643.233 412.6 641.3 412.6Z" fill="#823B51"/>
<path d="M626.8 412.6H589.8C587.867 412.6 586.3 414.167 586.3 416.1V416.18C586.3 418.113 587.867 419.68 589.8 419.68H626.8C628.733 419.68 630.3 418.113 630.3 416.18V416.1C630.3 414.167 628.733 412.6 626.8 412.6Z" fill="#753549"/>
<path d="M614.5 412.6H589.8C587.867 412.6 586.3 414.167 586.3 416.1V416.18C586.3 418.113 587.867 419.68 589.8 419.68H614.5C616.433 419.68 618 418.113 618 416.18V416.1C618 414.167 616.433 412.6 614.5 412.6Z" fill="#632D3E"/>
<path d="M556.6 190.8C560.447 188.702 564.934 188.096 569.2 189.1H569.5L608.4 451.8H595.2L556.6 190.8Z" fill="#8C3F49"/>
<path d="M604 451.8H595.2L556.6 190.8C559.206 189.372 562.128 188.616 565.1 188.6L604 451.8Z" fill="#632D3E"/>
<path d="M560.8 223.199C562.733 223.199 564.3 221.632 564.3 219.699C564.3 217.766 562.733 216.199 560.8 216.199C558.867 216.199 557.3 217.766 557.3 219.699C557.3 221.632 558.867 223.199 560.8 223.199Z" fill="#753549"/>
<path d="M566.6 262.5C568.533 262.5 570.1 260.933 570.1 259C570.1 257.067 568.533 255.5 566.6 255.5C564.667 255.5 563.1 257.067 563.1 259C563.1 260.933 564.667 262.5 566.6 262.5Z" fill="#753549"/>
<path d="M572.399 301.799C574.332 301.799 575.899 300.232 575.899 298.299C575.899 296.366 574.332 294.799 572.399 294.799C570.466 294.799 568.899 296.366 568.899 298.299C568.899 300.232 570.466 301.799 572.399 301.799Z" fill="#753549"/>
<path d="M578.3 341.1C580.233 341.1 581.8 339.533 581.8 337.6C581.8 335.667 580.233 334.1 578.3 334.1C576.367 334.1 574.8 335.667 574.8 337.6C574.8 339.533 576.367 341.1 578.3 341.1Z" fill="#753549"/>
<path d="M584.1 380.299C586.033 380.299 587.6 378.732 587.6 376.799C587.6 374.866 586.033 373.299 584.1 373.299C582.167 373.299 580.6 374.866 580.6 376.799C580.6 378.732 582.167 380.299 584.1 380.299Z" fill="#753549"/>
<path d="M589.899 419.6C591.832 419.6 593.399 418.033 593.399 416.1C593.399 414.167 591.832 412.6 589.899 412.6C587.966 412.6 586.399 414.167 586.399 416.1C586.399 418.033 587.966 419.6 589.899 419.6Z" fill="#753549"/>
<path d="M545.7 202.699H345.9V205.919H545.7V202.699Z" fill="#C46999"/>
<path d="M545.7 225.6H345.9V228.82H545.7V225.6Z" fill="#C46999"/>
<path d="M524.1 290.6H370V297.21H524.1V290.6Z" fill="#C9795F"/>
<path d="M751.3 320.9L659.1 392" stroke="#612D46" stroke-width="8" stroke-miterlimit="10" stroke-linecap="round"/>
<path d="M896.7 320.9L804.5 392" stroke="#612D46" stroke-width="8" stroke-miterlimit="10" stroke-linecap="round"/>
<path d="M803.4 320.501C803.4 321.509 803 322.475 802.287 323.188C801.575 323.9 800.608 324.301 799.6 324.301H720.9C727.5 320.001 735.5 316.801 747.8 316.801H799.6C800.591 316.8 801.543 317.187 802.253 317.878C802.962 318.569 803.374 319.51 803.4 320.501Z" fill="#6B3143"/>
<path d="M799.6 324.299C801.698 324.299 803.4 322.598 803.4 320.499C803.4 318.401 801.698 316.699 799.6 316.699C797.501 316.699 795.8 318.401 795.8 320.499C795.8 322.598 797.501 324.299 799.6 324.299Z" fill="#9C4651"/>
<path d="M744.1 320.501C744.126 319.527 744.524 318.601 745.212 317.913C745.901 317.224 746.827 316.826 747.8 316.801C735.5 316.801 727.5 320.001 720.9 324.301H747.8C746.81 324.275 745.869 323.863 745.178 323.153C744.487 322.443 744.1 321.492 744.1 320.501Z" fill="#522539"/>
<path d="M949.2 320.5C949.2 321.508 948.799 322.475 948.087 323.187C947.374 323.9 946.407 324.3 945.4 324.3H867.1C873.866 319.844 881.706 317.288 889.8 316.9H945.4C946.374 316.899 947.311 317.272 948.018 317.942C948.725 318.612 949.148 319.528 949.2 320.5Z" fill="#6B3143"/>
<path d="M945.4 324.299C947.498 324.299 949.2 322.598 949.2 320.499C949.2 318.401 947.498 316.699 945.4 316.699C943.301 316.699 941.6 318.401 941.6 320.499C941.6 322.598 943.301 324.299 945.4 324.299Z" fill="#9C4651"/>
<path d="M893.7 324.3H867.1C874.139 319.624 882.352 317.025 890.8 316.8H893.7C893.156 316.711 892.599 316.741 892.068 316.889C891.537 317.036 891.045 317.297 890.625 317.654C890.205 318.011 889.868 318.454 889.636 318.955C889.405 319.455 889.285 319.999 889.285 320.55C889.285 321.101 889.405 321.645 889.636 322.146C889.868 322.646 890.205 323.089 890.625 323.446C891.045 323.803 891.537 324.064 892.068 324.211C892.599 324.359 893.156 324.389 893.7 324.3Z" fill="#522539"/>
<path d="M678.2 373.901C678.2 373.901 736.1 395.301 765.5 324.301C780.5 375.201 814.4 404.301 845.5 404.301C876.6 404.301 910.5 375.201 925.5 324.301C895.3 384.301 847.8 380.401 830.2 372.201" stroke="#5A4E70" stroke-width="2.5" stroke-linecap="round" stroke-linejoin="round"/>
<path d="M888.8 332.299L888.1 319.699" stroke="#522539" stroke-width="3" stroke-miterlimit="10" stroke-linecap="round"/>
<path d="M881.1 320.1L893.7 328.8" stroke="#522539" stroke-width="3" stroke-miterlimit="10" stroke-linecap="round"/>
<path d="M741.3 332.299L740.6 319.699" stroke="#522539" stroke-width="3" stroke-miterlimit="10" stroke-linecap="round"/>
<path d="M733.7 320.1L746.2 328.8" stroke="#522539" stroke-width="3" stroke-miterlimit="10" stroke-linecap="round"/>
<path d="M716.6 418.199H753.9C758.312 418.199 762.682 419.068 766.758 420.757C770.835 422.445 774.539 424.92 777.659 428.04C780.779 431.16 783.254 434.865 784.942 438.941C786.631 443.018 787.5 447.387 787.5 451.799H683C683 442.888 686.54 434.342 692.841 428.04C699.142 421.739 707.689 418.199 716.6 418.199Z" fill="#262538"/>
<path d="M787.5 451.799H761.2C761.2 442.905 757.674 434.374 751.394 428.076C745.115 421.777 736.594 418.226 727.7 418.199H753.9C762.811 418.199 771.358 421.739 777.659 428.04C783.96 434.342 787.5 442.888 787.5 451.799Z" fill="#41314A"/>
<path d="M803.4 297.301H813.1V290.691H803.4V297.301Z" fill="#F8A457"/>
<path d="M416.4 375.399C433.245 375.399 446.9 366.624 446.9 355.799C446.9 344.974 433.245 336.199 416.4 336.199C399.556 336.199 385.9 344.974 385.9 355.799C385.9 366.624 399.556 375.399 416.4 375.399Z" fill="#9E5F46"/>
<path d="M337.3 312.3C337.316 307.722 338.377 303.207 340.4 299.1L342.1 295.7C342.18 295.51 342.214 295.304 342.198 295.099C342.183 294.893 342.119 294.695 342.011 294.519C341.904 294.343 341.756 294.195 341.58 294.088C341.405 293.98 341.206 293.916 341 293.9H310.4C310.195 293.916 309.996 293.98 309.82 294.088C309.645 294.195 309.497 294.343 309.39 294.519C309.282 294.695 309.218 294.893 309.203 295.099C309.187 295.304 309.221 295.51 309.3 295.7L311 299.1C313.024 303.207 314.084 307.722 314.1 312.3C314.087 316.471 313.201 320.593 311.5 324.4C307.1 333.7 304.4 348.6 304.4 362.3C304.4 388 313.9 408.8 325.7 408.8C337.5 408.8 347 388 347 362.3C347 348.6 344.2 333.7 339.9 324.4C338.199 320.593 337.314 316.471 337.3 312.3Z" fill="#605A88"/>
<path d="M309.3 295.7L310.7 298.6C312.795 302.554 313.956 306.935 314.095 311.408C314.233 315.88 313.346 320.324 311.5 324.4C307.1 333.7 304.4 348.6 304.4 362.3C304.4 388 313.9 408.8 325.7 408.8C329.7 408.8 333.5 406.4 336.7 402.1C335 395 333 386.4 330.5 375.8C320.6 333.8 323 319.9 338.1 319.1C337.582 316.871 337.313 314.59 337.3 312.3C337.316 307.722 338.377 303.207 340.4 299.1L341.6 296.6H322.5C322.33 296.6 322.161 296.567 322.003 296.501C321.845 296.436 321.702 296.34 321.581 296.22C321.46 296.099 321.365 295.956 321.299 295.798C321.234 295.64 321.2 295.471 321.2 295.3C321.187 295.121 321.21 294.942 321.269 294.772C321.328 294.603 321.422 294.447 321.544 294.316C321.666 294.184 321.814 294.079 321.979 294.008C322.143 293.937 322.321 293.9 322.5 293.9H310.4C310.195 293.916 309.996 293.98 309.82 294.088C309.645 294.195 309.497 294.343 309.39 294.519C309.282 294.695 309.218 294.893 309.203 295.099C309.187 295.304 309.221 295.51 309.3 295.7Z" fill="#5A537D"/>
<path d="M433.9 319.601C433.9 319.601 440.1 308.701 427.4 302.301C427.4 302.301 420.6 310.001 426.7 320.101C422.2 320.101 417.2 322.201 414 329.601C414 329.601 411.5 320.401 402.6 320.301C402.6 320.301 400.9 304.901 384.9 309.401C385 314.801 387.3 324.201 398.6 325.201C398.6 325.201 396.1 336.901 406.9 342.601L422.6 342.301C431.4 338.801 436.7 333.701 436.4 327.301C436.4 327.301 444.5 329.201 449.2 324.201C449.2 324.201 443.6 316.201 433.9 319.601Z" fill="#2A7D8C"/>
<path d="M402.3 326.901C402.3 326.901 400.5 324.601 400.5 319.601C400.5 319.601 396.5 320.501 387.5 318.801C389.5 322.001 392.9 324.701 398.6 325.201C398.6 325.201 397.1 332.001 401.2 337.701H419.8C419.949 335.329 420.855 333.068 422.385 331.25C423.916 329.432 425.989 328.153 428.3 327.601C428.3 327.601 424.1 325.901 414 329.601C412.754 327.753 410.854 326.446 408.682 325.945C406.51 325.444 404.23 325.786 402.3 326.901Z" fill="#25707D"/>
<path d="M436.1 340.8H396.6L393.5 335.9H439.2L436.1 340.8Z" fill="#9E5F46"/>
<path d="M410.9 347.899C410.9 347.899 417.3 340.799 436.1 340.799L438.1 337.699H394.6L396.6 340.799C390.1 344.399 385.9 349.799 385.9 355.799C385.9 366.599 399.5 375.399 416.4 375.399C423.333 375.512 430.181 373.86 436.3 370.599C427.7 365.899 415.1 357.699 410.9 347.899Z" fill="#8F4F34"/>
<path d="M491.4 451.8H212.8V366.7C212.8 365.825 213.147 364.986 213.766 364.367C214.385 363.748 215.225 363.4 216.1 363.4H486.3L491.4 371.3V451.8Z" fill="#F2B59F"/>
<path d="M374.5 369.5L423.9 399.9L370 401.2L374.5 369.5Z" fill="#F0AF97"/>
<path d="M491.4 386.199H212.8V390.679H491.4V386.199Z" fill="#E8954D"/>
<path d="M361.5 426.399C360.621 426.388 359.756 426.174 358.974 425.773C358.191 425.373 357.512 424.796 356.989 424.089C356.466 423.383 356.113 422.564 355.959 421.698C355.805 420.833 355.854 419.943 356.1 419.099L361.3 401.199H373.1L366.9 422.299C366.558 423.471 365.848 424.501 364.876 425.239C363.904 425.977 362.721 426.384 361.5 426.399Z" fill="#ED988D"/>
<path d="M414.4 426.399C413.519 426.384 412.653 426.168 411.868 425.768C411.083 425.368 410.4 424.794 409.87 424.09C409.34 423.387 408.977 422.571 408.809 421.707C408.641 420.842 408.672 419.95 408.9 419.099L414.2 401.199H426L419.8 422.299C419.457 423.471 418.748 424.501 417.776 425.239C416.803 425.977 415.62 426.384 414.4 426.399Z" fill="#ED988D"/>
<path d="M467.2 426.399C466.32 426.388 465.456 426.174 464.673 425.773C463.89 425.373 463.211 424.796 462.688 424.089C462.165 423.383 461.813 422.564 461.659 421.698C461.504 420.833 461.553 419.943 461.8 419.099L467 401.199H478.8L472.6 422.299C472.257 423.471 471.548 424.501 470.575 425.239C469.603 425.977 468.42 426.384 467.2 426.399Z" fill="#ED988D"/>
<path d="M338.1 451.8H212.8V366.7C212.8 365.825 213.147 364.986 213.766 364.367C214.385 363.748 215.225 363.4 216.1 363.4H338.1V451.8Z" fill="#D48C93"/>
<path d="M232.6 363.4L251.7 410.2V396.6L270.4 401.2L268.4 380.3L284.2 375.4L264.3 363.4H232.6Z" fill="#D18891"/>
<path d="M338.1 386.199H212.8V390.679H338.1V386.199Z" fill="#C9795F"/>
<path d="M441.1 260.701L486.1 279.401L495.7 270.201L468.4 253.801L441.1 260.701Z" fill="#D99398"/>
<path d="M499.6 396.6H473C469.576 396.6 466.8 399.355 466.8 402.755C466.8 406.154 469.576 408.91 473 408.91H499.6C503.024 408.91 505.8 406.154 505.8 402.755C505.8 399.355 503.024 396.6 499.6 396.6Z" fill="#A15D5D"/>
<path d="M446.8 396.6H420.2C416.776 396.6 414 399.355 414 402.755C414 406.154 416.776 408.91 420.2 408.91H446.8C450.224 408.91 453 406.154 453 402.755C453 399.355 450.224 396.6 446.8 396.6Z" fill="#A15D5D"/>
<path d="M393.9 396.6H367.3C363.875 396.6 361.1 399.355 361.1 402.755C361.1 406.154 363.875 408.91 367.3 408.91H393.9C397.324 408.91 400.1 406.154 400.1 402.755C400.1 399.355 397.324 396.6 393.9 396.6Z" fill="#A15D5D"/>
<path d="M499.7 408.8C503.069 408.8 505.8 406.069 505.8 402.7C505.8 399.331 503.069 396.6 499.7 396.6C496.331 396.6 493.6 399.331 493.6 402.7C493.6 406.069 496.331 408.8 499.7 408.8Z" fill="#BF796E"/>
<path d="M446.8 408.8C450.169 408.8 452.9 406.069 452.9 402.7C452.9 399.331 450.169 396.6 446.8 396.6C443.431 396.6 440.7 399.331 440.7 402.7C440.7 406.069 443.431 408.8 446.8 408.8Z" fill="#BF796E"/>
<path d="M394 408.8C397.369 408.8 400.1 406.069 400.1 402.7C400.1 399.331 397.369 396.6 394 396.6C390.631 396.6 387.9 399.331 387.9 402.7C387.9 406.069 390.631 408.8 394 408.8Z" fill="#BF796E"/>
<path d="M456 201.1L462.9 196.9H443.1L456 201.1Z" fill="#C84B8B"/>
<path d="M431.8 346.799L434.5 346.599C435.838 346.5 437.178 346.753 438.389 347.332C439.599 347.911 440.637 348.796 441.4 349.899C442.187 351.158 442.603 352.614 442.6 354.099V355.799L431.8 346.799Z" fill="#A66A49"/>
<path d="M397.7 314.5C395.3 305.1 403.8 304 403.8 304C406.3 309 404.8 314 397.7 314.5Z" fill="#2A7D8C"/>
<path d="M421.7 303.5C424.4 303.9 425.9 305.3 426.1 307.6C422.9 308 421.9 306.2 421.7 303.5Z" fill="#2A7D8C"/>
<path d="M442.6 320.7C442.672 319.699 443.109 318.76 443.828 318.059C444.546 317.359 445.497 316.947 446.5 316.9C446.6 320.1 444.5 320.8 442.6 320.7Z" fill="#2A7D8C"/>
<path d="M425.6 299.699C425.501 300.113 425.485 300.542 425.553 300.962C425.62 301.382 425.769 301.784 425.992 302.146C426.215 302.508 426.507 302.823 426.851 303.072C427.196 303.322 427.586 303.501 428 303.599C428.413 303.698 428.842 303.714 429.262 303.646C429.682 303.579 430.085 303.43 430.447 303.207C430.809 302.984 431.124 302.692 431.373 302.348C431.622 302.003 431.801 301.613 431.9 301.199L425.6 299.699Z" fill="#E16A2D"/>
<path d="M382.7 312.901C383.51 313.195 384.402 313.161 385.187 312.806C385.972 312.451 386.587 311.803 386.9 311.001C387.189 310.178 387.141 309.275 386.766 308.488C386.391 307.702 385.721 307.095 384.9 306.801L382.7 312.901Z" fill="#E16A2D"/>
<path d="M429.9 307.5L432.7 309.5L430.4 310.7L429.9 307.5Z" fill="#30A19D"/>
<path d="M430.5 322.9L433.2 324L431.3 326L430.5 322.9Z" fill="#30A19D"/>
<path d="M427.2 312.5L429.4 313.4L428.3 314.2L427.2 312.5Z" fill="#30A19D"/>
<path d="M695.8 322.801H666.5L656.3 331.201H685.8L695.8 322.801Z" fill="#CC4D80"/>
<path d="M683.6 309.9L677.2 312.3H690.1L695.8 309.9H683.6Z" fill="#E85A94"/>
<path d="M491.4 371.3L472.7 363.4H486.3L491.4 371.3Z" fill="#FECCAF"/>
<path d="M299.2 451.801H251.7C253.109 446.58 256.2 441.969 260.493 438.681C264.786 435.393 270.043 433.611 275.45 433.611C280.858 433.611 286.115 435.393 290.408 438.681C294.701 441.969 297.791 446.58 299.2 451.801Z" fill="#803C44"/>
<path d="M275.5 428.5C268.735 428.501 262.174 430.81 256.9 435.047C251.627 439.284 247.958 445.194 246.5 451.8H251.7C253.109 446.579 256.199 441.968 260.492 438.68C264.786 435.393 270.042 433.611 275.45 433.611C280.858 433.611 286.114 435.393 290.408 438.68C294.701 441.968 297.791 446.579 299.2 451.8H304.4C302.946 445.211 299.292 439.313 294.039 435.078C288.786 430.843 282.247 428.523 275.5 428.5Z" fill="#C9795F"/>
<path d="M275.5 410.5C263.873 410.508 252.632 414.677 243.81 422.251C234.988 429.826 229.167 440.307 227.4 451.8H232.5C234.266 441.69 239.541 432.527 247.397 425.924C255.254 419.321 265.188 415.701 275.45 415.701C285.713 415.701 295.647 419.321 303.503 425.924C311.36 432.527 316.635 441.69 318.4 451.8H323.5C321.736 440.324 315.93 429.856 307.129 422.284C298.328 414.711 287.111 410.532 275.5 410.5Z" fill="#C9795F"/>
<path d="M285.1 435.6C282.217 436.811 279.6 438.578 277.4 440.8C274.368 443.865 272.166 447.65 271 451.8H251.7C253.079 446.552 256.167 441.913 260.478 438.617C264.788 435.321 270.074 433.556 275.5 433.6C278.805 433.588 282.076 434.269 285.1 435.6Z" fill="#944751"/>
<path d="M491.4 434.801L385.9 451.501H491.4V434.801Z" fill="#F0B099"/>
<path d="M893.5 391.6L890.8 393.7L893.8 393.5L893.5 391.6Z" fill="#F09E48"/>
<path d="M314.6 413.801L330.8 423.301V414.701L314.6 413.801Z" fill="#D18891"/>
<path d="M243.3 375.6L250.8 378.8L248.4 380.2L243.3 375.6Z" fill="#D48C93"/>
<path d="M255 365.5L249.5 370.5L260.7 369.7L255 365.5Z" fill="#D48C93"/>
<path d="M227.4 372.699L235.3 375.599L228.8 376.799L227.4 372.699Z" fill="#D18891"/>
<path d="M271.3 376.801L276.4 381.901L279.8 380.201L271.3 376.801Z" fill="#D18891"/>
<path d="M296.1 365.9L292.8 370.5H301L296.1 365.9Z" fill="#D18891"/>
<path d="M427 350.801L431.5 351.201L430 353.501L427 350.801Z" fill="#A66A49"/>
<path d="M398.5 348.5L393.5 352.1L400.2 350.3L398.5 348.5Z" fill="#8C4C31"/>
<path d="M394.6 312.1L396.8 313.3L395.3 313.9L394.6 312.1Z" fill="#30A19D"/>
<path d="M440.8 320.4L442.6 320.7L441.7 321.6L440.8 320.4Z" fill="#30A19D"/>
<path d="M376.1 422C391.1 422.3 384.9 436.1 384.9 436.1L376.1 422Z" fill="#F0B099"/>
<path d="M368.9 429.1L373.1 432.5L368.9 433.1V429.1Z" fill="#F7BCA8"/>
<path d="M679.5 290.6L680.3 293.9L677.2 292.9L679.5 290.6Z" fill="#FFBD67"/>
<path d="M711.3 313.9L705.8 317.5H699.5L705.2 313.9H711.3Z" fill="#E85A94"/>
<path d="M837.2 325.299V323.199H840.1L837.2 325.299Z" fill="#ED5C97"/>
<path d="M623.9 7.90039L628.8 8.80039L627.4 11.1004L623.9 7.90039Z" fill="#FFCD8F"/>
<path d="M633.357 57.6431C633.561 56.6138 633.155 55.6662 632.451 55.5268C631.747 55.3873 631.01 56.1088 630.807 57.1381C630.603 58.1675 631.008 59.115 631.713 59.2545C632.417 59.3939 633.153 58.6725 633.357 57.6431Z" fill="#543247"/>
<path d="M621.182 58.5595C621.953 58.1284 622.12 56.9582 621.554 55.9458C620.988 54.9334 619.904 54.4621 619.133 54.8932C618.362 55.3243 618.195 56.4946 618.761 57.507C619.327 58.5194 620.411 58.9906 621.182 58.5595Z" fill="#543247"/>
<path d="M610.7 3.09901C610.7 3.09901 613.2 2.89901 614.3 3.79901C613.1 5.19901 610.7 3.09901 610.7 3.09901Z" fill="#FFD08F"/>
<path d="M618.8 3.10018C624.1 1.80018 624.6 4.60018 624.6 4.60018L618.8 3.10018Z" fill="#FFFDC4"/>
<path d="M579.4 36.1992C579.6 38.0992 584 39.3992 584 39.3992L582.2 40.6992C577.7 40.5992 576.5 38.3992 576.5 38.3992C577.335 37.5071 578.316 36.7632 579.4 36.1992Z" fill="#D4655B"/>
<path d="M567.9 44.5996C568.6 46.6996 577.9 45.4996 577.9 45.4996L578.2 46.5996C571.3 47.7996 568.4 47.1996 568.4 47.1996C567.993 46.397 567.82 45.496 567.9 44.5996Z" fill="#D4655B"/>
<path d="M602 24.6996C602.6 27.1996 605.7 28.8996 605.7 28.8996L610.7 27.3996C609.764 25.9254 609.088 24.302 608.7 22.5996C608.7 22.5996 605.2 23.4996 602 24.6996Z" fill="#DC7363"/>
<path d="M642.7 85.9004C642.7 85.9004 642.6 87.6004 642.4 89.9004C642.003 93.2743 641.368 96.6159 640.5 99.9004C639.8 102.9 639.8 102.8 638.8 102.1L635.3 99.6004C637.3 96.7004 640.9 91.2004 642.7 85.9004Z" fill="#D14658"/>
<path d="M607.7 102.1L606.7 101.2C600 95.4004 588.3 83.4004 582.8 75.9004L591.1 73.4004H591.3C596.8 83.6004 606.7 96.8004 611 102.1L611.8 103.1C615.4 107.3 614 107.4 607.7 102.1Z" fill="#CC4355"/>
<path d="M596.4 73.4004L609.3 85.9004L611.8 96.8004L597.6 78.8004L596.4 73.4004Z" fill="#E65568"/>
<path d="M628.3 92.2991L601.6 73.5991L601.2 73.1991C600.4 72.4991 599.8 72.5991 601.4 74.4991L627.5 94.2991C627.8 93.5991 628 92.8991 628.3 92.2991Z" fill="#BD3C53"/>
<path d="M560.1 23.1996L563.4 21.6996C563.5 21.5996 563.5 21.4996 563.4 21.4996L560.1 19.9996H560L558.5 16.5996H558.4L556.9 19.9996L553.5 21.4996C553.4 21.4996 553.4 21.5996 553.5 21.6996L556.9 23.1996L558.4 26.5996H558.5L560 23.1996H560.1Z" fill="#FF7ABC"/>
<path d="M804.8 117.9L808.6 116.2V116L804.8 114.3H804.7L803 110.5H802.9L801.2 114.3H801.1L797.3 116V116.2L801.1 117.9H801.2L802.9 121.7H803L804.7 117.9H804.8Z" fill="#FFF0DB"/>
<path d="M579.7 26.3008C582.666 23.5277 585.997 21.1726 589.6 19.3008C584.6 20.4008 581 22.0008 579.7 26.3008Z" fill="#EB9363"/>
<path d="M634.4 4.60051L643 6.50051C642 4.50051 640.9 4.20051 634.4 4.60051Z" fill="#FFFDC4"/>
<path d="M646.5 121.501C651.2 115.601 654.9 111.901 656.4 111.001C657.9 110.101 657.7 110.501 655.4 113.701C653.1 116.901 649 123.501 649 123.501L646.5 121.501Z" fill="#1A378A"/>
<path d="M650.1 103.101C650.1 103.101 650 111.401 650.1 112.401C650.2 113.401 650.5 112.301 651.2 110.001C651.9 107.701 652.5 105.901 652.6 105.301C652.7 104.701 652.9 104.501 651.5 103.201C650.1 101.901 650.1 101.901 650.1 103.101Z" fill="#2A52C2"/>
<path d="M667.4 143.2C664.79 143.048 662.239 142.368 659.9 141.2C658.6 140.6 659.4 142.1 661.7 143.5C664 144.9 669.2 143.4 667.4 143.2Z" fill="#FA8E70"/>
<path d="M622.4 133.6L629.1 132.8C630.588 134.092 632.439 134.895 634.4 135.1L643.9 141.4L647.8 143.7C647.8 143.7 653.8 139.3 647.8 121.7C647.3 120 647 119.6 643.9 120.3L638.7 118.5L636.1 114.8C635.738 114.284 635.259 113.862 634.703 113.566C634.147 113.271 633.529 113.111 632.9 113.1H621.4C621.002 113.1 620.62 113.258 620.339 113.539C620.058 113.82 619.9 114.202 619.9 114.6C619.871 114.982 619.99 115.361 620.231 115.658C620.473 115.956 620.82 116.15 621.2 116.2L630.6 117.9L623.7 121.3C623.151 121.588 622.71 122.045 622.44 122.603C622.17 123.161 622.086 123.79 622.2 124.4C622.362 125.09 622.668 125.737 623.1 126.3C621.5 127.8 622.6 130 622.6 130C620.7 130.6 620 131 619.8 132.6C619.6 134.2 620.7 133.9 622.4 133.6Z" fill="#592938"/>
<path d="M645.2 138.2L634.4 131.8C633.399 131.256 632.431 130.655 631.5 130C630 128.9 630.2 127.8 630.9 127.6C631.128 127.532 631.336 127.411 631.508 127.246C631.68 127.082 631.811 126.879 631.889 126.655C631.967 126.43 631.991 126.19 631.958 125.954C631.925 125.719 631.837 125.494 631.7 125.3C631.1 123.8 630.8 123.2 631.6 122.4C632.4 121.6 632.9 121.3 632.5 120.8C632.1 120.3 631.2 119.2 631.9 118.3C632.6 117.4 633.4 117.7 632.9 116.2C632.4 114.7 631.9 113.1 632.9 113.1H621.4C621.002 113.1 620.62 113.258 620.339 113.539C620.058 113.82 619.9 114.202 619.9 114.6C619.871 114.982 619.99 115.361 620.231 115.658C620.473 115.956 620.82 116.15 621.2 116.2L630.6 117.9L623.7 121.3C623.151 121.588 622.71 122.045 622.44 122.603C622.17 123.161 622.086 123.79 622.2 124.4C622.362 125.09 622.668 125.737 623.1 126.3C621.5 127.8 622.6 130 622.6 130C620.7 130.6 620 131 619.8 132.6C619.6 134.2 620.7 133.9 622.4 133.6L629.1 132.8C630.588 134.092 632.439 134.895 634.4 135.1L643.9 141.4L645.2 142.2V138.2Z" fill="#4F2431"/>
<path d="M643.9 141.401L647.8 143.701C647.8 143.701 653.8 139.301 647.8 121.701C647.3 120.001 647 119.601 643.9 120.301L645.2 120.801C646.5 125.201 647.5 133.801 643.9 141.401Z" fill="#6B313F"/>
<path d="M635.1 113.801C636.3 120.701 634.2 128.201 634.2 128.201L639.3 130.601C640 127.901 639.9 124.601 638.7 118.501L636.1 114.801C635.846 114.397 635.504 114.055 635.1 113.801Z" fill="#733544"/>
<path d="M623.1 126.301C627.8 124.001 631.7 121.901 631.7 121.901L631.5 121.301L622.7 125.801L623.1 126.301Z" fill="#401D2B"/>
<path d="M622.6 130L630.9 127.6L630.4 126.9L622.4 129.6L622.6 130Z" fill="#401D2B"/>
<path d="M630.6 117.899L631.9 117.299L631.8 116.199L629.5 117.699L630.6 117.899Z" fill="#401D2B"/>
<path d="M645.2 138.199C644.828 139.29 644.394 140.358 643.9 141.399L647.8 143.699C648.668 142.927 649.294 141.92 649.6 140.799L645.2 138.199Z" fill="#592938"/>
<path d="M574.7 135C573.681 139.019 572.134 142.886 570.1 146.5C567.1 151.3 560.9 160.8 560.9 160.8C560.9 160.8 552.4 179.3 543.8 188.8L530 185.6C530 185.6 539.3 159.2 542.5 151.6C544.9 145.9 550.5 129.7 553.2 122C563.9 126.4 574.7 135 574.7 135Z" fill="#D68272"/>
<path d="M552.1 186.099L549.2 187.999L542.4 196.899H506L507.1 195.299C508.001 194.08 509.259 193.171 510.7 192.699L523 188.899L531.6 169.399C531.698 169.26 531.839 169.156 532.001 169.102C532.163 169.048 532.338 169.047 532.5 169.099C540.5 173.999 549 181.099 552.3 184.899C552.374 184.988 552.429 185.092 552.459 185.203C552.49 185.315 552.496 185.431 552.477 185.545C552.458 185.66 552.414 185.768 552.349 185.864C552.284 185.959 552.199 186.04 552.1 186.099Z" fill="#4F2431"/>
<path d="M555.8 148.4C558.3 156.1 558.8 158.3 560.2 156.5C561.33 155.147 562.303 153.671 563.1 152.1C563.3 151.7 563.8 150.7 560.1 148.4C556.4 146.1 554.5 144.5 555.8 148.4Z" fill="#D4655B"/>
<path d="M552.3 184.899C549 181.099 540.5 173.999 532.5 169.099C532.338 169.047 532.163 169.048 532.001 169.102C531.839 169.156 531.698 169.26 531.6 169.399L530.5 172.099C543.2 181.399 549.2 187.999 549.2 187.999L552.1 186.099C552.199 186.04 552.284 185.959 552.349 185.864C552.414 185.768 552.458 185.66 552.477 185.545C552.496 185.431 552.49 185.315 552.459 185.203C552.429 185.092 552.374 184.988 552.3 184.899Z" fill="#572836"/>
<path d="M534.2 193.201C530.1 194.601 526 196.201 519.7 196.901H542.4L543.6 195.301C544.1 190.101 538.4 191.801 534.2 193.201Z" fill="#421E29"/>
<path d="M594.2 174.301C590.6 174.501 589.9 175.601 589.3 180.901C588.7 186.201 588.4 187.501 588.2 188.701C588.176 188.869 588.092 189.022 587.963 189.132C587.834 189.243 587.67 189.303 587.5 189.301H573C572.8 189.301 572.7 189.101 572.7 188.901L575.3 178.901C575.573 177.729 576.236 176.684 577.181 175.939C578.126 175.194 579.297 174.792 580.5 174.801L594.2 174.301Z" fill="#592938"/>
<path d="M578.2 186C578.15 186.41 578.05 186.814 577.9 187.2C577.9 187.253 577.921 187.304 577.959 187.341C577.996 187.379 578.047 187.4 578.1 187.4H582.2C582.344 187.402 582.483 187.352 582.593 187.261C582.703 187.169 582.776 187.041 582.8 186.9L583.1 185.8C583.1 185.7 583.1 185.6 583 185.6H578.8C578.673 185.606 578.551 185.646 578.445 185.716C578.339 185.787 578.255 185.885 578.2 186Z" fill="#733544"/>
<path d="M693.6 177C696.208 177.538 698.78 178.24 701.3 179.1C702.5 179.6 702.6 179.7 700.5 182.1C698.4 184.5 698.1 185.5 696 182.2C693.9 178.9 692.2 176.6 693.6 177Z" fill="#1C1B29"/>
<path d="M647 212L666.5 215.8C669.6 216.4 670.1 216.5 677.8 214.5L679 222.8H649.4L647 212Z" fill="#232133"/>
<path d="M635.8 196.9C645.2 191.3 647.6 189.7 649.6 188.8C651.6 187.9 649.3 186.6 646.1 185.6C642.9 184.6 642.1 186.1 635.8 196.9Z" fill="#171621"/>
<path d="M653.4 201.599C662.2 203.599 669.3 205.199 672.9 205.799C676.5 206.399 675.3 204.899 670.7 201.299C667.542 198.694 664.2 196.321 660.7 194.199C658.5 192.999 657.9 193.799 654 197.099C650.1 200.399 649.9 200.799 653.4 201.599Z" fill="#171621"/>
<path d="M573.3 108.701C581.8 118.401 583.3 122.201 583.3 122.201L581.5 125.401C581.5 125.401 580.8 124.001 577.1 117.901C573.4 111.801 568.6 103.401 573.3 108.701Z" fill="#1A378A"/>
<path d="M629.557 102.612L625.586 103.093C625.092 103.153 624.741 103.599 624.8 104.09C624.859 104.58 625.307 104.93 625.801 104.87L629.772 104.39C630.265 104.33 630.617 103.884 630.558 103.393C630.499 102.902 630.05 102.553 629.557 102.612Z" fill="#B8C5FF"/>
<path d="M684.7 265.4C684.242 264.195 683.874 262.959 683.6 261.7C683.124 261.196 682.551 260.794 681.915 260.519C681.278 260.243 680.593 260.101 679.9 260.1C677.2 260.3 675.2 262.3 674.4 265.6C673.6 268.9 672.3 271.5 670.9 272.1C669.5 272.7 668.6 272 667 270.9C666.9 270.7 666.7 270.7 666.5 270.7C666.419 271.463 666.385 272.232 666.4 273C667.496 273.753 668.773 274.202 670.1 274.3C670.615 274.305 671.126 274.203 671.6 274C673.8 273.2 675.3 270.7 676.5 266.1C677 263.7 678.3 262.3 680 262.2C681.7 262.1 683.5 263.3 684.7 265.4Z" fill="#4F2431"/>
<path d="M626.7 103.201L629.6 102.801L629.8 103.601H625.9L626.7 103.201Z" fill="#E0E6FF"/>
<path d="M765.2 76.2995L755.8 74.2995H763.5L767.5 66.7995C768.569 64.8906 770.23 63.3807 772.232 62.497C774.234 61.6133 776.469 61.4036 778.6 61.8995L780.4 62.5995C776 61.0995 773.8 66.0995 772.1 72.2995C771.2 75.6995 771.1 77.4995 765.2 76.2995Z" fill="#61C7C7"/>
<path d="M783.066 77.1689C783.392 74.7607 782.059 72.5926 780.088 72.3262C778.118 72.0598 776.257 73.796 775.931 76.2042C775.606 78.6123 776.939 80.7804 778.909 81.0468C780.88 81.3132 782.741 79.577 783.066 77.1689Z" fill="#21354A"/>
<path d="M749.972 71.3012C750.519 68.9334 749.391 66.6514 747.454 66.2041C745.517 65.7569 743.503 67.3138 742.957 69.6816C742.41 72.0493 743.537 74.3313 745.475 74.7786C747.412 75.2258 749.425 73.669 749.972 71.3012Z" fill="#21354A"/>
<path d="M748.5 148.199C751.3 148.699 754.1 149.499 755.2 149.799C756.3 150.099 756.7 150.299 756.3 151.599C755.9 152.899 755.9 152.799 753.5 152.599L747.9 152.299L748.5 148.199Z" fill="#61C7C7"/>
<path d="M723.2 159.701C727.3 160.301 732.6 160.601 737.3 161.001C737.441 159.088 737.845 157.204 738.5 155.401C739.612 152.429 741.09 149.607 742.9 147.001C739.2 146.201 734.7 145.301 731 144.701C732.6 126.201 724.2 115.001 718.2 119.401C715.336 121.504 713.371 124.611 712.7 128.101C712.2 130.801 711.9 135.401 711.6 136.401C710.7 139.701 708.2 140.401 710.3 147.001C711.4 150.301 707.6 157.601 723.2 159.701Z" fill="white"/>
<path d="M740.8 146.5L737 145.8C735.1 145.4 734.2 145.6 735.3 146.2C736.4 146.8 736.5 147.3 733.6 147.7C730.7 148.1 731 149.6 731.9 150.3C732.8 151 733.4 152.1 731.2 152.8C729 153.5 728.6 154.5 729.9 155.3C731.2 156.1 731.9 157.1 729.7 157.8C727.5 158.5 727.8 159.7 729.7 160.4L734.7 160.7L740.8 146.5Z" fill="#FFE8AD"/>
<path d="M737.3 161C737.6 158 738.3 153.8 742.9 147L749.9 148.5L749 151.9L753.5 155C755 156.1 755 156.4 754.7 157.1C754.472 157.634 754.088 158.087 753.6 158.4C753.3 158.7 752.5 158.2 751.3 157.8L747.9 156.7C747.3 156.5 747.2 156.9 747.6 157.2C748 157.5 750.8 158.9 751.4 159.3C752 159.7 752.1 159.9 751.9 160.4C751.7 160.9 751.4 161.9 750.4 161.8C749.4 161.7 745.8 160.6 745.8 160.6C743.4 161.6 740.3 161.2 737.3 161Z" fill="#61C7C7"/>
<path d="M731 144.699C728.3 144.799 723.8 146.899 720.5 149.199C717.2 151.499 716.5 149.899 717.6 148.199C718.7 146.499 722.8 145.599 726.7 144.699C730.6 143.799 731.1 143.999 731.1 143.999L731 144.699Z" fill="#DBE6FF"/>
<path d="M727.6 144.5C728.9 144.3 729.7 143 727.3 142.3L721.7 140.7C721 140.6 720.4 138.5 722.9 139.1C725.4 139.7 731.2 142.7 731.2 142.7C731.2 142.7 732.8 144.2 731 144.7L727.6 144.5Z" fill="#DBE6FF"/>
<path d="M749.9 152.501L748 151.201L748.4 150.301L750.6 152.501H749.9Z" fill="#5697B0"/>
<path d="M747.6 157.2L746.4 156.6L747 156L747.9 156.7L747.6 157.2Z" fill="#5697B0"/>
<path d="M739 146.199C736.1 148.699 732.8 153.199 732.5 160.499L737.3 160.999C737.441 159.086 737.845 157.202 738.5 155.399C739.612 152.427 741.09 149.606 742.9 146.999L739 146.199Z" fill="#FFD978"/>
<path d="M713.2 141.4C713.348 141.119 713.587 140.897 713.878 140.77C714.168 140.643 714.494 140.618 714.8 140.7C716.535 141.117 718.239 141.652 719.9 142.3C720.9 142.9 717.1 144 714.1 144.6C711.1 145.2 711.7 144.1 713.2 141.4Z" fill="#E6EDFF"/>
<path d="M745.7 156.8C744.9 155.9 744.8 155 746.1 154.4C747.4 153.8 747.3 152.8 746.8 152.1C746.3 151.4 745.3 150.3 747.1 149.7C748.9 149.1 748.1 148.1 746.7 147.8H746.6L742.9 147C739.6 151.9 738.3 155.4 737.7 158.1C737.8 158.1 743.8 158.8 745.1 158.5C746.4 158.2 746.6 157.6 745.7 156.8Z" fill="#66D4CD"/>
<path d="M806.5 148.199L802.4 150.199C802.07 150.363 801.819 150.651 801.7 150.999C801.2 151.999 800.9 152.799 801.7 152.799L805.9 152.499C808.6 150.599 808.1 149.799 806.5 148.199Z" fill="#5EC7C7"/>
<path d="M805.2 151.801L801 153.801C800.695 153.995 800.452 154.273 800.3 154.601C799.9 155.601 799.5 156.401 800.3 156.401L804.5 156.101C807.2 154.201 806.7 153.401 805.2 151.801Z" fill="#5EC7C7"/>
<path d="M803.5 156.201L801.2 157.201C801.028 157.614 800.927 158.054 800.9 158.501C800.9 159.201 801.2 159.101 802 159.001L804.2 158.701C804.8 158.601 804.8 158.501 804.9 157.901V155.801L803.5 156.201Z" fill="#5EC7C7"/>
<path d="M744.8 196.899C743.4 188.599 743.2 186.999 742.9 185.899C742.6 184.799 740.5 193.999 740.4 196.899H744.8Z" fill="#7C90EB"/>
<path d="M760.7 191.4C759.2 203.3 757.1 216.1 756.2 222.8C755.3 229.5 754 224.5 752.9 219.3C751.8 214.1 752.1 212.2 754.9 202.7C757.7 193.2 761.5 184.8 760.7 191.4Z" fill="#9EB0FF"/>
<path d="M776.4 186.499C783.4 196.799 795.1 213.599 797.4 217.999C799.7 222.399 797 219.899 792.6 216.599C788.2 213.299 787.5 212.399 784.6 207.499C781.7 202.599 772.5 180.699 776.4 186.499Z" fill="#E0EAFF"/>
<path d="M807.4 178.5C805 187.7 801 199.3 800 202.8C799 206.3 795.1 205.1 792 203.6C788.9 202.1 790.2 202.8 792.5 205.7C794.359 207.88 796.73 209.563 799.4 210.6C801 211.2 803.7 213 805.2 202.9C806.7 192.8 808.7 173.8 807.4 178.5Z" fill="#BDD1FF"/>
<path d="M816.4 217.201C815.7 223.001 810.5 221.401 807.8 219.601C805.1 217.801 801.6 218.401 800.5 224.301C800 226.801 797.5 229.101 793.6 226.001C789.7 222.901 786.7 223.901 786 228.001C785.3 232.101 781.9 233.101 778.5 229.201C775.1 225.301 770.9 227.201 769.9 232.101C768.9 237.001 764.4 235.901 762.1 231.901C759.8 227.901 755.8 229.701 755.1 234.101C754.4 238.501 750.8 235.801 750.3 234.301L750.8 238.601C755.1 238.501 759.5 238.301 763.8 237.901C803.5 234.501 824 218.901 824 218.901L823.3 215.801C822.1 211.501 817.2 211.401 816.4 217.201Z" fill="#94A7FF"/>
<path d="M773.1 227.4C771.6 228 770.4 229.7 769.9 232.1C769.1 236.1 764.4 235.9 762.1 231.9C759.8 227.9 755.8 229.7 755.1 234.1C754.4 238.5 750.8 235.8 750.3 234.3C750.5 236.1 750.7 237.5 750.8 238.1V238.6C758.831 238.39 766.844 237.723 774.8 236.6L773.1 227.4Z" fill="#7D93FF"/>
<path d="M622.8 70.1993C625.8 70.1993 628.6 70.0993 629.5 70.8993C630.4 71.6993 629 73.3993 626.8 74.9993C624.6 76.5993 625.4 75.7993 623.1 73.7993C620.8 71.7993 620.5 70.1993 622.8 70.1993Z" fill="#C74153"/>
<path d="M624 70.3008L621.5 70.7008C621.2 71.5008 621.9 72.8008 623.1 73.8008C624.3 74.8008 625.8 75.7008 626.8 75.0008L627.8 74.2008C627.4 73.3008 626.2 71.0008 624 70.3008Z" fill="#A82C3C"/>
<path d="M628.5 70.5001C626.613 70.225 624.705 70.1246 622.8 70.2001C621.5 70.2001 621.3 70.8001 621.5 71.7001H628.3C628.7 71.8001 628.6 71.0001 628.5 70.5001Z" fill="white"/>
<path d="M639.2 66.2992C639.3 66.1992 639.3 65.9992 639.4 65.8992C639.704 65.0382 639.732 64.1039 639.482 63.2259C639.231 62.3479 638.713 61.5697 638 60.9992C638.109 61.2674 638.156 61.557 638.136 61.846C638.117 62.1349 638.031 62.4156 637.887 62.6665C637.742 62.9173 637.542 63.1318 637.301 63.2935C637.061 63.4551 636.787 63.5597 636.5 63.5992C635.517 63.6431 634.534 63.5076 633.6 63.1992C632.388 62.7169 631.081 62.5201 629.78 62.6242C628.479 62.7282 627.22 63.1303 626.1 63.7992C622.1 61.6992 619.4 63.4992 615.8 63.4992C614.818 63.5215 613.839 63.3865 612.9 63.0992C609.8 62.1992 609.9 60.7992 610.6 59.1992C606.2 60.1992 606.4 64.8992 608.4 66.8992C609.5 68.2992 611.6 68.8992 614.4 68.2992C618.8 71.9992 620.9 72.2992 626.1 68.8992C630.3 72.4992 634.3 72.0992 636.7 67.6992C637.2 67.6929 637.691 67.5615 638.128 67.317C638.565 67.0725 638.933 66.7226 639.2 66.2992Z" fill="#6B3143"/>
<path d="M626.1 68.9C630.3 72.5 634.3 72.1 636.7 67.7C637.2 67.6937 637.691 67.5623 638.128 67.3178C638.564 67.0732 638.933 66.7234 639.2 66.3C639.3 66.2 639.3 66 639.4 65.9C639.522 65.443 639.59 64.973 639.6 64.5C639.33 65.1929 638.812 65.7607 638.147 66.0933C637.481 66.4259 636.716 66.4996 636 66.3C633 68.8 629.8 68 626.8 65.7C626.8 65.7 620.5 69.1 615.9 65.4C610.8 66.7 607.1 64.3 607.7 61C607.154 61.9243 606.927 63.0023 607.054 64.0682C607.18 65.1341 607.653 66.129 608.4 66.9C609.5 68.3 611.6 68.9 614.4 68.3C618.8 72 620.9 72.3 626.1 68.9Z" fill="#5E2737"/>
<path d="M722.8 177.399C723.4 178.899 724.3 178.199 725.9 177.799C730.8 176.399 735.8 174.399 738 174.199C740.2 173.999 741 173.099 736.5 173.199C732 173.299 725.6 173.599 723.6 173.799C721.6 173.999 721.8 174.899 722.8 177.399Z" fill="#8FA2FA"/>
<path d="M749.6 56.0996C753.1 58.9996 753.3 64.9996 753.3 67.3996C753.3 69.7996 753.3 74.0996 753.3 75.1996C753.3 76.2996 753.6 76.6996 757 78.7996C760.4 80.8996 759.1 79.0996 757.7 77.0996L755.8 74.2996V66.4996C755.791 64.3699 755.212 62.2815 754.121 60.4521C753.031 58.6228 751.469 57.1197 749.6 56.0996Z" fill="#D4FFDC"/>
<path d="M781.4 73.9006C782.7 74.6006 782.6 77.8006 781.4 76.4006C780.2 75.0006 779.6 73.0006 781.4 73.9006Z" fill="#335A70"/>
<path d="M748.6 67.7989C749.8 68.4989 749.7 71.7989 748.6 70.2989C747.5 68.7989 746.7 66.8989 748.6 67.7989Z" fill="#335A70"/>
<g style="mix-blend-mode:multiply">
<path d="M735.6 69.9992C739.9 71.9992 741.8 74.3992 743.1 77.2992C744.4 80.1992 742.4 84.7992 737.7 79.6992C733 74.5992 731.1 67.8992 735.6 69.9992Z" fill="#DAD4FF"/>
</g>
<g style="mix-blend-mode:multiply">
<path d="M788.2 85.0996C787.7 81.6996 787.3 78.4996 786.9 75.5996C785.623 77.2995 784.798 79.2948 784.5 81.3996C784.1 83.7996 785.8 86.7996 788.2 85.0996Z" fill="#DAD4FF"/>
</g>
<g style="mix-blend-mode:multiply">
<path d="M730.7 84.6007C736 87.9007 737.8 88.1007 740.3 87.8007C742.8 87.5007 742.3 85.7007 738.4 82.9007C734.5 80.1007 732.3 79.6007 729.8 80.6007C727.3 81.6007 729 83.4007 730.7 84.6007Z" fill="#DAD4FF"/>
</g>
<g style="mix-blend-mode:multiply">
<path d="M788.9 91.8008L788.6 88.3008C786.7 90.6008 786.9 91.9008 788.9 91.8008Z" fill="#DAD4FF"/>
</g>
<path d="M743.683 104.023C745.079 103.501 745.49 101.149 744.601 98.7691C743.711 96.3895 741.857 94.8838 740.461 95.406C739.064 95.9282 738.653 98.2806 739.543 100.66C740.432 103.04 742.286 104.546 743.683 104.023Z" fill="#B2A6FF"/>
<path d="M788.114 102.815C788.32 101.227 787.866 99.8583 787.099 99.7587C786.332 99.6591 785.544 100.866 785.337 102.454C785.131 104.043 785.585 105.411 786.352 105.51C787.119 105.61 787.908 104.403 788.114 102.815Z" fill="#B2A6FF"/>
<path d="M782.8 65.7C784.7 67.7 784.9 70.9 782.8 68.4C780.7 65.9 780.5 63.3 782.8 65.7Z" fill="#D4FFDC"/>
<path d="M760.6 114.599C766 116.799 770 115.999 772.5 114.999C775 113.999 774.7 116.699 770.3 118.899C765.9 121.099 764.8 120.299 762.5 118.399C760.2 116.499 757.5 113.299 760.6 114.599Z" fill="#7CE4CC"/>
<path d="M727.4 211.1L731.1 213.2L729.3 215.2L727.4 211.1Z" fill="#F77BB0"/>
<path d="M57.6 427.399C34.4 425.499 13.6 436.399 0 451.799H101.4C104.7 425.699 80.3 416.999 57.6 427.399Z" fill="#237A85"/>
<path d="M81.7998 429.1C90.5211 428.912 99.014 431.897 105.7 437.5L84.7998 439.4L81.7998 429.1Z" fill="#30868C"/>
<path d="M99.9004 416.8L107.5 420.7L105.7 413.5L99.9004 416.8Z" fill="#237A85"/>
<path d="M196.4 425.899H200.2V420.699L196.4 425.899Z" fill="#30868C"/>
<path d="M156.4 405.499L164.4 411.499L166.7 401.699L156.4 405.499Z" fill="#237A85"/>
<path d="M176.1 383.6L181.1 390.6L182.6 386.8L176.1 383.6Z" fill="#37989E"/>
<path d="M105.7 431.2L113.4 433.6V429.1L105.7 431.2Z" fill="#37989E"/>
<path d="M140.3 404.2L143.8 400.5V404.2H140.3Z" fill="#37989E"/>
<path d="M124.3 387.099L132.8 386.199L128.5 388.399L124.3 387.099Z" fill="#37989E"/>
<path d="M155.1 388.4L159.7 392.9V383.6L155.1 388.4Z" fill="#37989E"/>
<path d="M86.4998 399.199L88.6998 404.199L81.7998 401.699L86.4998 399.199Z" fill="#237A85"/>
<path d="M153.4 429.1L161.6 432.7L158.7 433.6L153.4 429.1Z" fill="#30868C"/>
<path d="M182.6 380.199L183.9 372.699L188.2 374.799L182.6 380.199Z" fill="#30868C"/>
<path d="M116.1 386.8L111.5 383.6L118.4 377.9L116.1 386.8Z" fill="#30868C"/>
<path d="M128.5 400.4C129.163 400.4 129.7 399.863 129.7 399.2C129.7 398.537 129.163 398 128.5 398C127.837 398 127.3 398.537 127.3 399.2C127.3 399.863 127.837 400.4 128.5 400.4Z" fill="#37989E"/>
<path d="M138.9 419.2C140.06 419.2 141 418.26 141 417.1C141 415.94 140.06 415 138.9 415C137.74 415 136.8 415.94 136.8 417.1C136.8 418.26 137.74 419.2 138.9 419.2Z" fill="#237A85"/>
<defs>
<linearGradient id="paint0_linear" x1="684.24" y1="258.29" x2="684.24" y2="426.73" gradientUnits="userSpaceOnUse">
<stop stop-color="#E8827D"/>
<stop offset="1" stop-color="#E2A395"/>
</linearGradient>
<linearGradient id="paint1_linear" x1="626.34" y1="5.32948" x2="608.62" y2="50.9695" gradientUnits="userSpaceOnUse">
<stop stop-color="#FFC285"/>
<stop offset="1" stop-color="#DB8D6B"/>
</linearGradient>
<linearGradient id="paint2_linear" x1="567.51" y1="32.119" x2="665.42" y2="32.119" gradientUnits="userSpaceOnUse">
<stop stop-color="#D67569"/>
<stop offset="1" stop-color="#E39E7F"/>
</linearGradient>
<linearGradient id="paint3_linear" x1="713.06" y1="98.1098" x2="733.99" y2="93.1298" gradientUnits="userSpaceOnUse">
<stop stop-color="#61C7C7"/>
<stop offset="1" stop-color="#54B9C7"/>
</linearGradient>
<linearGradient id="paint4_linear" x1="11382.3" y1="2727.68" x2="11590.9" y2="2727.68" gradientUnits="userSpaceOnUse">
<stop stop-color="#61C7C7"/>
<stop offset="1" stop-color="#54B9C7"/>
</linearGradient>
</defs>
</svg>
